<ttFont>
    <TTGlyph name=".notdef" xMin="60" yMin="95" xMax="257" yMax="378">
      <contour>
        <pt x="60" y="112" on="1"/>
        <pt x="60" y="118" on="0"/>
        <pt x="63" y="122" on="1"/>
        <pt x="137" y="236" on="1"/>
        <pt x="63" y="351" on="1"/>
        <pt x="60" y="356" on="0"/>
        <pt x="60" y="360" on="1"/>
        <pt x="60" y="368" on="0"/>
        <pt x="70" y="378" on="0"/>
        <pt x="78" y="378" on="1"/>
        <pt x="87" y="378" on="0"/>
        <pt x="93" y="370" on="1"/>
        <pt x="159" y="268" on="1"/>
        <pt x="225" y="370" on="1"/>
        <pt x="230" y="378" on="0"/>
        <pt x="239" y="378" on="1"/>
        <pt x="246" y="378" on="0"/>
        <pt x="257" y="368" on="0"/>
        <pt x="257" y="360" on="1"/>
        <pt x="257" y="356" on="0"/>
        <pt x="254" y="351" on="1"/>
        <pt x="180" y="236" on="1"/>
        <pt x="253" y="122" on="1"/>
        <pt x="256" y="118" on="0"/>
        <pt x="256" y="112" on="1"/>
        <pt x="256" y="105" on="0"/>
        <pt x="245" y="95" on="0"/>
        <pt x="238" y="95" on="1"/>
        <pt x="229" y="95" on="0"/>
        <pt x="224" y="103" on="1"/>
        <pt x="159" y="203" on="1"/>
        <pt x="93" y="103" on="1"/>
        <pt x="87" y="95" on="0"/>
        <pt x="78" y="95" on="1"/>
        <pt x="71" y="95" on="0"/>
        <pt x="60" y="105" on="0"/>
      </contour>
    </TTGlyph>
    <TTGlyph name="A" xMin="25" yMin="0" xMax="496" yMax="737">
      <contour>
        <pt x="25" y="16" on="1"/>
        <pt x="25" y="20" on="0"/>
        <pt x="26" y="22" on="1"/>
        <pt x="243" y="723" on="1"/>
        <pt x="247" y="737" on="0"/>
        <pt x="275" y="737" on="0"/>
        <pt x="280" y="723" on="1"/>
        <pt x="495" y="22" on="1"/>
        <pt x="495" y="21" on="0"/>
        <pt x="496" y="18" on="0"/>
        <pt x="496" y="17" on="1"/>
        <pt x="496" y="10" on="0"/>
        <pt x="484" y="0" on="0"/>
        <pt x="476" y="0" on="1"/>
        <pt x="464" y="0" on="0"/>
        <pt x="460" y="13" on="1"/>
        <pt x="409" y="177" on="1"/>
        <pt x="111" y="177" on="1"/>
        <pt x="61" y="13" on="1"/>
        <pt x="57" y="0" on="0"/>
        <pt x="43" y="0" on="1"/>
        <pt x="25" y="0" on="0"/>
      </contour>
      <contour>
        <pt x="122" y="213" on="1"/>
        <pt x="398" y="213" on="1"/>
        <pt x="261" y="661" on="1"/>
      </contour>
    </TTGlyph>
    <TTGlyph name="AE" xMin="79" yMin="0" xMax="652" yMax="731">
      <contour>
        <pt x="79" y="23" on="1"/>
        <pt x="79" y="525" on="1"/>
        <pt x="79" y="632" on="0"/>
        <pt x="186" y="731" on="0"/>
        <pt x="275" y="731" on="1"/>
        <pt x="635" y="731" on="1"/>
        <pt x="652" y="731" on="0"/>
        <pt x="652" y="714" on="1"/>
        <pt x="652" y="695" on="0"/>
        <pt x="635" y="695" on="1"/>
        <pt x="398" y="695" on="1"/>
        <pt x="398" y="384" on="1"/>
        <pt x="558" y="384" on="1"/>
        <pt x="575" y="384" on="0"/>
        <pt x="575" y="365" on="1"/>
        <pt x="575" y="348" on="0"/>
        <pt x="558" y="348" on="1"/>
        <pt x="398" y="348" on="1"/>
        <pt x="398" y="36" on="1"/>
        <pt x="635" y="36" on="1"/>
        <pt x="652" y="36" on="0"/>
        <pt x="652" y="17" on="1"/>
        <pt x="652" y="0" on="0"/>
        <pt x="635" y="0" on="1"/>
        <pt x="380" y="0" on="1"/>
        <pt x="362" y="0" on="0"/>
        <pt x="362" y="18" on="1"/>
        <pt x="362" y="348" on="1"/>
        <pt x="115" y="348" on="1"/>
        <pt x="115" y="23" on="1"/>
        <pt x="115" y="0" on="0"/>
        <pt x="79" y="0" on="0"/>
      </contour>
      <contour>
        <pt x="115" y="384" on="1"/>
        <pt x="362" y="384" on="1"/>
        <pt x="362" y="695" on="1"/>
        <pt x="275" y="695" on="1"/>
        <pt x="198" y="695" on="0"/>
        <pt x="115" y="610" on="0"/>
        <pt x="115" y="525" on="1"/>
      </contour>
    </TTGlyph>
    <TTGlyph name="AEacute" xMin="79" yMin="0" xMax="652" yMax="953">
      <contour>
        <pt x="79" y="23" on="1"/>
        <pt x="79" y="525" on="1"/>
        <pt x="79" y="632" on="0"/>
        <pt x="186" y="731" on="0"/>
        <pt x="275" y="731" on="1"/>
        <pt x="635" y="731" on="1"/>
        <pt x="652" y="731" on="0"/>
        <pt x="652" y="714" on="1"/>
        <pt x="652" y="695" on="0"/>
        <pt x="635" y="695" on="1"/>
        <pt x="398" y="695" on="1"/>
        <pt x="398" y="384" on="1"/>
        <pt x="558" y="384" on="1"/>
        <pt x="575" y="384" on="0"/>
        <pt x="575" y="365" on="1"/>
        <pt x="575" y="348" on="0"/>
        <pt x="558" y="348" on="1"/>
        <pt x="398" y="348" on="1"/>
        <pt x="398" y="36" on="1"/>
        <pt x="635" y="36" on="1"/>
        <pt x="652" y="36" on="0"/>
        <pt x="652" y="17" on="1"/>
        <pt x="652" y="0" on="0"/>
        <pt x="635" y="0" on="1"/>
        <pt x="380" y="0" on="1"/>
        <pt x="362" y="0" on="0"/>
        <pt x="362" y="18" on="1"/>
        <pt x="362" y="348" on="1"/>
        <pt x="115" y="348" on="1"/>
        <pt x="115" y="23" on="1"/>
        <pt x="115" y="0" on="0"/>
        <pt x="79" y="0" on="0"/>
      </contour>
      <contour>
        <pt x="115" y="384" on="1"/>
        <pt x="362" y="384" on="1"/>
        <pt x="362" y="695" on="1"/>
        <pt x="275" y="695" on="1"/>
        <pt x="198" y="695" on="0"/>
        <pt x="115" y="610" on="0"/>
        <pt x="115" y="525" on="1"/>
      </contour>
      <contour>
        <pt x="275" y="878" on="1"/>
        <pt x="275" y="887" on="0"/>
        <pt x="283" y="891" on="1"/>
        <pt x="385" y="951" on="1"/>
        <pt x="389" y="953" on="0"/>
        <pt x="392" y="953" on="1"/>
        <pt x="408" y="953" on="0"/>
        <pt x="408" y="935" on="1"/>
        <pt x="408" y="923" on="0"/>
        <pt x="398" y="917" on="1"/>
        <pt x="303" y="863" on="1"/>
        <pt x="298" y="860" on="0"/>
        <pt x="294" y="860" on="1"/>
        <pt x="286" y="860" on="0"/>
        <pt x="275" y="871" on="0"/>
      </contour>
    </TTGlyph>
    <TTGlyph name="Aacute" xMin="25" yMin="0" xMax="496" yMax="953">
      <contour>
        <pt x="25" y="16" on="1"/>
        <pt x="25" y="20" on="0"/>
        <pt x="26" y="22" on="1"/>
        <pt x="243" y="723" on="1"/>
        <pt x="247" y="737" on="0"/>
        <pt x="275" y="737" on="0"/>
        <pt x="280" y="723" on="1"/>
        <pt x="495" y="22" on="1"/>
        <pt x="495" y="21" on="0"/>
        <pt x="496" y="18" on="0"/>
        <pt x="496" y="17" on="1"/>
        <pt x="496" y="10" on="0"/>
        <pt x="484" y="0" on="0"/>
        <pt x="476" y="0" on="1"/>
        <pt x="464" y="0" on="0"/>
        <pt x="460" y="13" on="1"/>
        <pt x="409" y="177" on="1"/>
        <pt x="111" y="177" on="1"/>
        <pt x="61" y="13" on="1"/>
        <pt x="57" y="0" on="0"/>
        <pt x="43" y="0" on="1"/>
        <pt x="25" y="0" on="0"/>
      </contour>
      <contour>
        <pt x="122" y="213" on="1"/>
        <pt x="398" y="213" on="1"/>
        <pt x="261" y="661" on="1"/>
      </contour>
      <contour>
        <pt x="194" y="878" on="1"/>
        <pt x="194" y="887" on="0"/>
        <pt x="202" y="891" on="1"/>
        <pt x="304" y="951" on="1"/>
        <pt x="308" y="953" on="0"/>
        <pt x="311" y="953" on="1"/>
        <pt x="327" y="953" on="0"/>
        <pt x="327" y="935" on="1"/>
        <pt x="327" y="923" on="0"/>
        <pt x="317" y="917" on="1"/>
        <pt x="222" y="863" on="1"/>
        <pt x="218" y="860" on="0"/>
        <pt x="213" y="860" on="1"/>
        <pt x="205" y="860" on="0"/>
        <pt x="194" y="871" on="0"/>
      </contour>
    </TTGlyph>
    <TTGlyph name="Abreve" xMin="25" yMin="0" xMax="496" yMax="969">
      <contour>
        <pt x="25" y="16" on="1"/>
        <pt x="25" y="20" on="0"/>
        <pt x="26" y="22" on="1"/>
        <pt x="243" y="723" on="1"/>
        <pt x="247" y="737" on="0"/>
        <pt x="275" y="737" on="0"/>
        <pt x="280" y="723" on="1"/>
        <pt x="495" y="22" on="1"/>
        <pt x="495" y="21" on="0"/>
        <pt x="496" y="18" on="0"/>
        <pt x="496" y="17" on="1"/>
        <pt x="496" y="10" on="0"/>
        <pt x="484" y="0" on="0"/>
        <pt x="476" y="0" on="1"/>
        <pt x="464" y="0" on="0"/>
        <pt x="460" y="13" on="1"/>
        <pt x="409" y="177" on="1"/>
        <pt x="111" y="177" on="1"/>
        <pt x="61" y="13" on="1"/>
        <pt x="57" y="0" on="0"/>
        <pt x="43" y="0" on="1"/>
        <pt x="25" y="0" on="0"/>
      </contour>
      <contour>
        <pt x="122" y="213" on="1"/>
        <pt x="398" y="213" on="1"/>
        <pt x="261" y="661" on="1"/>
      </contour>
      <contour>
        <pt x="151" y="969" on="1"/>
        <pt x="183" y="969" on="1"/>
        <pt x="183" y="935" on="0"/>
        <pt x="228" y="886" on="0"/>
        <pt x="260" y="886" on="1"/>
        <pt x="291" y="886" on="0"/>
        <pt x="336" y="935" on="0"/>
        <pt x="336" y="969" on="1"/>
        <pt x="369" y="969" on="1"/>
        <pt x="369" y="925" on="0"/>
        <pt x="303" y="860" on="0"/>
        <pt x="260" y="860" on="1"/>
        <pt x="216" y="860" on="0"/>
        <pt x="151" y="925" on="0"/>
      </contour>
    </TTGlyph>
    <TTGlyph name="Acircumflex" xMin="25" yMin="0" xMax="496" yMax="953">
      <contour>
        <pt x="25" y="16" on="1"/>
        <pt x="25" y="20" on="0"/>
        <pt x="26" y="22" on="1"/>
        <pt x="243" y="723" on="1"/>
        <pt x="247" y="737" on="0"/>
        <pt x="275" y="737" on="0"/>
        <pt x="280" y="723" on="1"/>
        <pt x="495" y="22" on="1"/>
        <pt x="495" y="21" on="0"/>
        <pt x="496" y="18" on="0"/>
        <pt x="496" y="17" on="1"/>
        <pt x="496" y="10" on="0"/>
        <pt x="484" y="0" on="0"/>
        <pt x="476" y="0" on="1"/>
        <pt x="464" y="0" on="0"/>
        <pt x="460" y="13" on="1"/>
        <pt x="409" y="177" on="1"/>
        <pt x="111" y="177" on="1"/>
        <pt x="61" y="13" on="1"/>
        <pt x="57" y="0" on="0"/>
        <pt x="43" y="0" on="1"/>
        <pt x="25" y="0" on="0"/>
      </contour>
      <contour>
        <pt x="122" y="213" on="1"/>
        <pt x="398" y="213" on="1"/>
        <pt x="261" y="661" on="1"/>
      </contour>
      <contour>
        <pt x="130" y="878" on="1"/>
        <pt x="130" y="888" on="0"/>
        <pt x="139" y="892" on="1"/>
        <pt x="243" y="948" on="1"/>
        <pt x="251" y="953" on="0"/>
        <pt x="269" y="953" on="0"/>
        <pt x="277" y="948" on="1"/>
        <pt x="381" y="893" on="1"/>
        <pt x="390" y="888" on="0"/>
        <pt x="390" y="876" on="1"/>
        <pt x="390" y="869" on="0"/>
        <pt x="380" y="860" on="0"/>
        <pt x="373" y="860" on="1"/>
        <pt x="364" y="863" on="1"/>
        <pt x="260" y="918" on="1"/>
        <pt x="156" y="862" on="1"/>
        <pt x="155" y="862" on="0"/>
        <pt x="149" y="859" on="0"/>
        <pt x="148" y="859" on="1"/>
        <pt x="141" y="859" on="0"/>
        <pt x="130" y="870" on="0"/>
      </contour>
    </TTGlyph>
    <TTGlyph name="Adieresis" xMin="25" yMin="0" xMax="496" yMax="918">
      <contour>
        <pt x="25" y="16" on="1"/>
        <pt x="25" y="20" on="0"/>
        <pt x="26" y="22" on="1"/>
        <pt x="243" y="723" on="1"/>
        <pt x="247" y="737" on="0"/>
        <pt x="275" y="737" on="0"/>
        <pt x="280" y="723" on="1"/>
        <pt x="495" y="22" on="1"/>
        <pt x="495" y="21" on="0"/>
        <pt x="496" y="18" on="0"/>
        <pt x="496" y="17" on="1"/>
        <pt x="496" y="10" on="0"/>
        <pt x="484" y="0" on="0"/>
        <pt x="476" y="0" on="1"/>
        <pt x="464" y="0" on="0"/>
        <pt x="460" y="13" on="1"/>
        <pt x="409" y="177" on="1"/>
        <pt x="111" y="177" on="1"/>
        <pt x="61" y="13" on="1"/>
        <pt x="57" y="0" on="0"/>
        <pt x="43" y="0" on="1"/>
        <pt x="25" y="0" on="0"/>
      </contour>
      <contour>
        <pt x="122" y="213" on="1"/>
        <pt x="398" y="213" on="1"/>
        <pt x="261" y="661" on="1"/>
      </contour>
      <contour>
        <pt x="175" y="876" on="0"/>
        <pt x="175" y="902" on="0"/>
        <pt x="192" y="918" on="0"/>
        <pt x="218" y="918" on="0"/>
        <pt x="234" y="902" on="0"/>
        <pt x="234" y="876" on="0"/>
        <pt x="218" y="859" on="0"/>
        <pt x="192" y="859" on="0"/>
      </contour>
      <contour>
        <pt x="286" y="876" on="0"/>
        <pt x="286" y="902" on="0"/>
        <pt x="303" y="918" on="0"/>
        <pt x="329" y="918" on="0"/>
        <pt x="345" y="902" on="0"/>
        <pt x="345" y="876" on="0"/>
        <pt x="329" y="859" on="0"/>
        <pt x="303" y="859" on="0"/>
      </contour>
    </TTGlyph>
    <TTGlyph name="Agrave" xMin="25" yMin="0" xMax="496" yMax="953">
      <contour>
        <pt x="25" y="16" on="1"/>
        <pt x="25" y="20" on="0"/>
        <pt x="26" y="22" on="1"/>
        <pt x="243" y="723" on="1"/>
        <pt x="247" y="737" on="0"/>
        <pt x="275" y="737" on="0"/>
        <pt x="280" y="723" on="1"/>
        <pt x="495" y="22" on="1"/>
        <pt x="495" y="21" on="0"/>
        <pt x="496" y="18" on="0"/>
        <pt x="496" y="17" on="1"/>
        <pt x="496" y="10" on="0"/>
        <pt x="484" y="0" on="0"/>
        <pt x="476" y="0" on="1"/>
        <pt x="464" y="0" on="0"/>
        <pt x="460" y="13" on="1"/>
        <pt x="409" y="177" on="1"/>
        <pt x="111" y="177" on="1"/>
        <pt x="61" y="13" on="1"/>
        <pt x="57" y="0" on="0"/>
        <pt x="43" y="0" on="1"/>
        <pt x="25" y="0" on="0"/>
      </contour>
      <contour>
        <pt x="122" y="213" on="1"/>
        <pt x="398" y="213" on="1"/>
        <pt x="261" y="661" on="1"/>
      </contour>
      <contour>
        <pt x="194" y="935" on="1"/>
        <pt x="194" y="953" on="0"/>
        <pt x="210" y="953" on="1"/>
        <pt x="213" y="953" on="0"/>
        <pt x="217" y="951" on="1"/>
        <pt x="319" y="891" on="1"/>
        <pt x="327" y="887" on="0"/>
        <pt x="327" y="878" on="1"/>
        <pt x="327" y="871" on="0"/>
        <pt x="316" y="860" on="0"/>
        <pt x="308" y="860" on="1"/>
        <pt x="304" y="860" on="0"/>
        <pt x="299" y="863" on="1"/>
        <pt x="204" y="917" on="1"/>
        <pt x="194" y="923" on="0"/>
      </contour>
    </TTGlyph>
    <TTGlyph name="Amacron" xMin="25" yMin="0" xMax="496" yMax="941">
      <contour>
        <pt x="25" y="16" on="1"/>
        <pt x="25" y="20" on="0"/>
        <pt x="26" y="22" on="1"/>
        <pt x="243" y="723" on="1"/>
        <pt x="247" y="737" on="0"/>
        <pt x="275" y="737" on="0"/>
        <pt x="280" y="723" on="1"/>
        <pt x="495" y="22" on="1"/>
        <pt x="495" y="21" on="0"/>
        <pt x="496" y="18" on="0"/>
        <pt x="496" y="17" on="1"/>
        <pt x="496" y="10" on="0"/>
        <pt x="484" y="0" on="0"/>
        <pt x="476" y="0" on="1"/>
        <pt x="464" y="0" on="0"/>
        <pt x="460" y="13" on="1"/>
        <pt x="409" y="177" on="1"/>
        <pt x="111" y="177" on="1"/>
        <pt x="61" y="13" on="1"/>
        <pt x="57" y="0" on="0"/>
        <pt x="43" y="0" on="1"/>
        <pt x="25" y="0" on="0"/>
      </contour>
      <contour>
        <pt x="122" y="213" on="1"/>
        <pt x="398" y="213" on="1"/>
        <pt x="261" y="661" on="1"/>
      </contour>
      <contour>
        <pt x="133" y="923" on="1"/>
        <pt x="133" y="941" on="0"/>
        <pt x="150" y="941" on="1"/>
        <pt x="370" y="941" on="1"/>
        <pt x="377" y="941" on="0"/>
        <pt x="388" y="930" on="0"/>
        <pt x="388" y="916" on="0"/>
        <pt x="377" y="906" on="0"/>
        <pt x="370" y="906" on="1"/>
        <pt x="150" y="906" on="1"/>
        <pt x="133" y="906" on="0"/>
      </contour>
    </TTGlyph>
    <TTGlyph name="Aogonek" xMin="25" yMin="-195" xMax="496" yMax="737">
      <contour>
        <pt x="25" y="16" on="1"/>
        <pt x="25" y="20" on="0"/>
        <pt x="26" y="22" on="1"/>
        <pt x="243" y="723" on="1"/>
        <pt x="247" y="737" on="0"/>
        <pt x="275" y="737" on="0"/>
        <pt x="280" y="723" on="1"/>
        <pt x="495" y="22" on="1"/>
        <pt x="495" y="21" on="0"/>
        <pt x="496" y="18" on="0"/>
        <pt x="496" y="17" on="1"/>
        <pt x="496" y="8" on="0"/>
        <pt x="485" y="2" on="1"/>
        <pt x="449" y="-33" on="0"/>
        <pt x="413" y="-90" on="0"/>
        <pt x="413" y="-126" on="1"/>
        <pt x="413" y="-169" on="0"/>
        <pt x="476" y="-169" on="1"/>
        <pt x="494" y="-169" on="0"/>
        <pt x="494" y="-195" on="0"/>
        <pt x="471" y="-195" on="1"/>
        <pt x="437" y="-195" on="0"/>
        <pt x="384" y="-164" on="0"/>
        <pt x="384" y="-128" on="1"/>
        <pt x="384" y="-54" on="0"/>
        <pt x="458" y="17" on="1"/>
        <pt x="409" y="177" on="1"/>
        <pt x="111" y="177" on="1"/>
        <pt x="61" y="13" on="1"/>
        <pt x="57" y="0" on="0"/>
        <pt x="43" y="0" on="1"/>
        <pt x="25" y="0" on="0"/>
      </contour>
      <contour>
        <pt x="122" y="213" on="1"/>
        <pt x="398" y="213" on="1"/>
        <pt x="261" y="661" on="1"/>
      </contour>
    </TTGlyph>
    <TTGlyph name="Aring" xMin="25" yMin="0" xMax="496" yMax="1027">
      <contour>
        <pt x="25" y="16" on="1"/>
        <pt x="25" y="20" on="0"/>
        <pt x="26" y="22" on="1"/>
        <pt x="243" y="723" on="1"/>
        <pt x="247" y="737" on="0"/>
        <pt x="275" y="737" on="0"/>
        <pt x="280" y="723" on="1"/>
        <pt x="495" y="22" on="1"/>
        <pt x="495" y="21" on="0"/>
        <pt x="496" y="18" on="0"/>
        <pt x="496" y="17" on="1"/>
        <pt x="496" y="10" on="0"/>
        <pt x="484" y="0" on="0"/>
        <pt x="476" y="0" on="1"/>
        <pt x="464" y="0" on="0"/>
        <pt x="460" y="13" on="1"/>
        <pt x="409" y="177" on="1"/>
        <pt x="111" y="177" on="1"/>
        <pt x="61" y="13" on="1"/>
        <pt x="57" y="0" on="0"/>
        <pt x="43" y="0" on="1"/>
        <pt x="25" y="0" on="0"/>
      </contour>
      <contour>
        <pt x="122" y="213" on="1"/>
        <pt x="398" y="213" on="1"/>
        <pt x="261" y="661" on="1"/>
      </contour>
      <contour>
        <pt x="170" y="936" on="1"/>
        <pt x="170" y="972" on="0"/>
        <pt x="223" y="1027" on="0"/>
        <pt x="260" y="1027" on="1"/>
        <pt x="295" y="1027" on="0"/>
        <pt x="350" y="972" on="0"/>
        <pt x="350" y="936" on="1"/>
        <pt x="350" y="899" on="0"/>
        <pt x="295" y="843" on="0"/>
        <pt x="260" y="843" on="1"/>
        <pt x="223" y="843" on="0"/>
        <pt x="170" y="899" on="0"/>
      </contour>
      <contour>
        <pt x="194" y="936" on="1"/>
        <pt x="194" y="909" on="0"/>
        <pt x="234" y="866" on="0"/>
        <pt x="286" y="866" on="0"/>
        <pt x="325" y="909" on="0"/>
        <pt x="325" y="936" on="1"/>
        <pt x="325" y="960" on="0"/>
        <pt x="286" y="1001" on="0"/>
        <pt x="260" y="1001" on="1"/>
        <pt x="233" y="1001" on="0"/>
        <pt x="194" y="960" on="0"/>
      </contour>
    </TTGlyph>
    <TTGlyph name="Atilde" xMin="25" yMin="0" xMax="496" yMax="949">
      <contour>
        <pt x="25" y="16" on="1"/>
        <pt x="25" y="20" on="0"/>
        <pt x="26" y="22" on="1"/>
        <pt x="243" y="723" on="1"/>
        <pt x="247" y="737" on="0"/>
        <pt x="275" y="737" on="0"/>
        <pt x="280" y="723" on="1"/>
        <pt x="495" y="22" on="1"/>
        <pt x="495" y="21" on="0"/>
        <pt x="496" y="18" on="0"/>
        <pt x="496" y="17" on="1"/>
        <pt x="496" y="10" on="0"/>
        <pt x="484" y="0" on="0"/>
        <pt x="476" y="0" on="1"/>
        <pt x="464" y="0" on="0"/>
        <pt x="460" y="13" on="1"/>
        <pt x="409" y="177" on="1"/>
        <pt x="111" y="177" on="1"/>
        <pt x="61" y="13" on="1"/>
        <pt x="57" y="0" on="0"/>
        <pt x="43" y="0" on="1"/>
        <pt x="25" y="0" on="0"/>
      </contour>
      <contour>
        <pt x="113" y="897" on="1"/>
        <pt x="113" y="916" on="0"/>
        <pt x="174" y="949" on="0"/>
        <pt x="202" y="949" on="1"/>
        <pt x="226" y="949" on="0"/>
        <pt x="303" y="912" on="0"/>
        <pt x="329" y="912" on="1"/>
        <pt x="349" y="912" on="0"/>
        <pt x="374" y="928" on="0"/>
        <pt x="388" y="944" on="0"/>
        <pt x="394" y="944" on="1"/>
        <pt x="408" y="944" on="0"/>
        <pt x="408" y="929" on="1"/>
        <pt x="408" y="908" on="0"/>
        <pt x="351" y="878" on="0"/>
        <pt x="324" y="878" on="1"/>
        <pt x="301" y="878" on="0"/>
        <pt x="224" y="915" on="0"/>
        <pt x="195" y="915" on="1"/>
        <pt x="176" y="915" on="0"/>
        <pt x="148" y="898" on="0"/>
        <pt x="131" y="880" on="0"/>
        <pt x="126" y="880" on="1"/>
        <pt x="113" y="880" on="0"/>
      </contour>
      <contour>
        <pt x="122" y="213" on="1"/>
        <pt x="398" y="213" on="1"/>
        <pt x="261" y="661" on="1"/>
      </contour>
    </TTGlyph>
    <TTGlyph name="B" xMin="83" yMin="0" xMax="474" yMax="731">
      <contour>
        <pt x="83" y="17" on="1"/>
        <pt x="83" y="713" on="1"/>
        <pt x="83" y="731" on="0"/>
        <pt x="101" y="731" on="1"/>
        <pt x="251" y="731" on="1"/>
        <pt x="350" y="731" on="0"/>
        <pt x="456" y="661" on="0"/>
        <pt x="456" y="564" on="1"/>
        <pt x="456" y="501" on="0"/>
        <pt x="410" y="413" on="0"/>
        <pt x="371" y="396" on="1"/>
        <pt x="474" y="353" on="0"/>
        <pt x="474" y="220" on="1"/>
        <pt x="474" y="203" on="1"/>
        <pt x="474" y="97" on="0"/>
        <pt x="367" y="0" on="0"/>
        <pt x="278" y="0" on="1"/>
        <pt x="101" y="0" on="1"/>
        <pt x="83" y="0" on="0"/>
      </contour>
      <contour>
        <pt x="119" y="36" on="1"/>
        <pt x="278" y="36" on="1"/>
        <pt x="438" y="36" on="0"/>
        <pt x="438" y="203" on="1"/>
        <pt x="438" y="220" on="1"/>
        <pt x="438" y="304" on="0"/>
        <pt x="356" y="378" on="0"/>
        <pt x="278" y="378" on="1"/>
        <pt x="119" y="378" on="1"/>
      </contour>
      <contour>
        <pt x="119" y="414" on="1"/>
        <pt x="258" y="414" on="1"/>
        <pt x="344" y="414" on="0"/>
        <pt x="420" y="480" on="0"/>
        <pt x="420" y="564" on="1"/>
        <pt x="420" y="641" on="0"/>
        <pt x="335" y="695" on="0"/>
        <pt x="253" y="695" on="1"/>
        <pt x="119" y="695" on="1"/>
      </contour>
    </TTGlyph>
    <TTGlyph name="C" xMin="76" yMin="-6" xMax="467" yMax="731">
      <contour>
        <pt x="76" y="200" on="1"/>
        <pt x="76" y="525" on="1"/>
        <pt x="76" y="631" on="0"/>
        <pt x="187" y="731" on="0"/>
        <pt x="275" y="731" on="1"/>
        <pt x="366" y="731" on="0"/>
        <pt x="467" y="638" on="0"/>
        <pt x="467" y="574" on="1"/>
        <pt x="467" y="546" on="0"/>
        <pt x="431" y="546" on="0"/>
        <pt x="431" y="564" on="1"/>
        <pt x="430" y="586" on="0"/>
        <pt x="416" y="625" on="0"/>
        <pt x="385" y="669" on="0"/>
        <pt x="320" y="695" on="0"/>
        <pt x="274" y="695" on="1"/>
        <pt x="112" y="695" on="0"/>
        <pt x="112" y="525" on="1"/>
        <pt x="112" y="200" on="1"/>
        <pt x="112" y="30" on="0"/>
        <pt x="278" y="30" on="1"/>
        <pt x="316" y="30" on="0"/>
        <pt x="372" y="49" on="0"/>
        <pt x="401" y="72" on="0"/>
        <pt x="422" y="114" on="0"/>
        <pt x="428" y="139" on="0"/>
        <pt x="431" y="161" on="1"/>
        <pt x="433" y="179" on="0"/>
        <pt x="449" y="179" on="1"/>
        <pt x="467" y="179" on="0"/>
        <pt x="467" y="150" on="1"/>
        <pt x="467" y="88" on="0"/>
        <pt x="363" y="-6" on="0"/>
        <pt x="272" y="-6" on="1"/>
        <pt x="185" y="-6" on="0"/>
        <pt x="76" y="94" on="0"/>
      </contour>
    </TTGlyph>
    <TTGlyph name="Cacute" xMin="76" yMin="-6" xMax="467" yMax="953">
      <contour>
        <pt x="76" y="200" on="1"/>
        <pt x="76" y="525" on="1"/>
        <pt x="76" y="631" on="0"/>
        <pt x="187" y="731" on="0"/>
        <pt x="275" y="731" on="1"/>
        <pt x="366" y="731" on="0"/>
        <pt x="467" y="638" on="0"/>
        <pt x="467" y="574" on="1"/>
        <pt x="467" y="546" on="0"/>
        <pt x="431" y="546" on="0"/>
        <pt x="431" y="564" on="1"/>
        <pt x="430" y="586" on="0"/>
        <pt x="416" y="625" on="0"/>
        <pt x="385" y="669" on="0"/>
        <pt x="320" y="695" on="0"/>
        <pt x="274" y="695" on="1"/>
        <pt x="112" y="695" on="0"/>
        <pt x="112" y="525" on="1"/>
        <pt x="112" y="200" on="1"/>
        <pt x="112" y="30" on="0"/>
        <pt x="278" y="30" on="1"/>
        <pt x="316" y="30" on="0"/>
        <pt x="372" y="49" on="0"/>
        <pt x="401" y="72" on="0"/>
        <pt x="422" y="114" on="0"/>
        <pt x="428" y="139" on="0"/>
        <pt x="431" y="161" on="1"/>
        <pt x="433" y="179" on="0"/>
        <pt x="449" y="179" on="1"/>
        <pt x="467" y="179" on="0"/>
        <pt x="467" y="150" on="1"/>
        <pt x="467" y="88" on="0"/>
        <pt x="363" y="-6" on="0"/>
        <pt x="272" y="-6" on="1"/>
        <pt x="185" y="-6" on="0"/>
        <pt x="76" y="94" on="0"/>
      </contour>
      <contour>
        <pt x="205" y="878" on="1"/>
        <pt x="205" y="887" on="0"/>
        <pt x="213" y="891" on="1"/>
        <pt x="315" y="951" on="1"/>
        <pt x="319" y="953" on="0"/>
        <pt x="322" y="953" on="1"/>
        <pt x="338" y="953" on="0"/>
        <pt x="338" y="935" on="1"/>
        <pt x="338" y="923" on="0"/>
        <pt x="328" y="917" on="1"/>
        <pt x="233" y="863" on="1"/>
        <pt x="228" y="860" on="0"/>
        <pt x="224" y="860" on="1"/>
        <pt x="216" y="860" on="0"/>
        <pt x="205" y="871" on="0"/>
      </contour>
    </TTGlyph>
    <TTGlyph name="Ccaron" xMin="76" yMin="-6" xMax="467" yMax="990">
      <contour>
        <pt x="76" y="200" on="1"/>
        <pt x="76" y="525" on="1"/>
        <pt x="76" y="631" on="0"/>
        <pt x="187" y="731" on="0"/>
        <pt x="275" y="731" on="1"/>
        <pt x="366" y="731" on="0"/>
        <pt x="467" y="638" on="0"/>
        <pt x="467" y="574" on="1"/>
        <pt x="467" y="546" on="0"/>
        <pt x="431" y="546" on="0"/>
        <pt x="431" y="564" on="1"/>
        <pt x="430" y="586" on="0"/>
        <pt x="416" y="625" on="0"/>
        <pt x="385" y="669" on="0"/>
        <pt x="320" y="695" on="0"/>
        <pt x="274" y="695" on="1"/>
        <pt x="112" y="695" on="0"/>
        <pt x="112" y="525" on="1"/>
        <pt x="112" y="200" on="1"/>
        <pt x="112" y="30" on="0"/>
        <pt x="278" y="30" on="1"/>
        <pt x="316" y="30" on="0"/>
        <pt x="372" y="49" on="0"/>
        <pt x="401" y="72" on="0"/>
        <pt x="422" y="114" on="0"/>
        <pt x="428" y="139" on="0"/>
        <pt x="431" y="161" on="1"/>
        <pt x="433" y="179" on="0"/>
        <pt x="449" y="179" on="1"/>
        <pt x="467" y="179" on="0"/>
        <pt x="467" y="150" on="1"/>
        <pt x="467" y="88" on="0"/>
        <pt x="363" y="-6" on="0"/>
        <pt x="272" y="-6" on="1"/>
        <pt x="185" y="-6" on="0"/>
        <pt x="76" y="94" on="0"/>
      </contour>
      <contour>
        <pt x="141" y="969" on="0"/>
        <pt x="141" y="981" on="0"/>
        <pt x="150" y="990" on="0"/>
        <pt x="156" y="990" on="1"/>
        <pt x="165" y="990" on="0"/>
        <pt x="172" y="982" on="1"/>
        <pt x="270" y="879" on="1"/>
        <pt x="368" y="982" on="1"/>
        <pt x="375" y="990" on="0"/>
        <pt x="384" y="990" on="1"/>
        <pt x="390" y="990" on="0"/>
        <pt x="399" y="981" on="0"/>
        <pt x="399" y="969" on="0"/>
        <pt x="391" y="959" on="1"/>
        <pt x="291" y="858" on="1"/>
        <pt x="280" y="847" on="0"/>
        <pt x="270" y="847" on="1"/>
        <pt x="258" y="847" on="0"/>
        <pt x="249" y="858" on="1"/>
        <pt x="149" y="959" on="1"/>
      </contour>
    </TTGlyph>
    <TTGlyph name="Ccedilla" xMin="76" yMin="-207" xMax="467" yMax="731">
      <contour>
        <pt x="76" y="200" on="1"/>
        <pt x="76" y="525" on="1"/>
        <pt x="76" y="631" on="0"/>
        <pt x="187" y="731" on="0"/>
        <pt x="275" y="731" on="1"/>
        <pt x="366" y="731" on="0"/>
        <pt x="467" y="638" on="0"/>
        <pt x="467" y="574" on="1"/>
        <pt x="467" y="546" on="0"/>
        <pt x="431" y="546" on="0"/>
        <pt x="431" y="564" on="1"/>
        <pt x="430" y="586" on="0"/>
        <pt x="416" y="625" on="0"/>
        <pt x="385" y="669" on="0"/>
        <pt x="320" y="695" on="0"/>
        <pt x="274" y="695" on="1"/>
        <pt x="112" y="695" on="0"/>
        <pt x="112" y="525" on="1"/>
        <pt x="112" y="200" on="1"/>
        <pt x="112" y="30" on="0"/>
        <pt x="278" y="30" on="1"/>
        <pt x="316" y="30" on="0"/>
        <pt x="372" y="49" on="0"/>
        <pt x="401" y="72" on="0"/>
        <pt x="422" y="114" on="0"/>
        <pt x="428" y="139" on="0"/>
        <pt x="431" y="161" on="1"/>
        <pt x="433" y="179" on="0"/>
        <pt x="449" y="179" on="1"/>
        <pt x="467" y="179" on="0"/>
        <pt x="467" y="150" on="1"/>
        <pt x="467" y="94" on="0"/>
        <pt x="383" y="6" on="0"/>
        <pt x="308" y="-3" on="1"/>
        <pt x="293" y="-65" on="1"/>
        <pt x="341" y="-66" on="0"/>
        <pt x="387" y="-107" on="0"/>
        <pt x="387" y="-135" on="1"/>
        <pt x="387" y="-164" on="0"/>
        <pt x="342" y="-207" on="0"/>
        <pt x="305" y="-207" on="1"/>
        <pt x="282" y="-207" on="0"/>
        <pt x="231" y="-194" on="0"/>
        <pt x="231" y="-183" on="1"/>
        <pt x="231" y="-178" on="0"/>
        <pt x="239" y="-165" on="0"/>
        <pt x="243" y="-165" on="1"/>
        <pt x="261" y="-172" on="1"/>
        <pt x="279" y="-178" on="0"/>
        <pt x="299" y="-178" on="1"/>
        <pt x="354" y="-178" on="0"/>
        <pt x="354" y="-137" on="1"/>
        <pt x="354" y="-97" on="0"/>
        <pt x="284" y="-92" on="1"/>
        <pt x="255" y="-90" on="1"/>
        <pt x="276" y="-6" on="1"/>
        <pt x="272" y="-6" on="1"/>
        <pt x="185" y="-6" on="0"/>
        <pt x="76" y="94" on="0"/>
      </contour>
    </TTGlyph>
    <TTGlyph name="Ccircumflex" xMin="76" yMin="-6" xMax="467" yMax="953">
      <contour>
        <pt x="76" y="200" on="1"/>
        <pt x="76" y="525" on="1"/>
        <pt x="76" y="631" on="0"/>
        <pt x="187" y="731" on="0"/>
        <pt x="275" y="731" on="1"/>
        <pt x="366" y="731" on="0"/>
        <pt x="467" y="638" on="0"/>
        <pt x="467" y="574" on="1"/>
        <pt x="467" y="546" on="0"/>
        <pt x="431" y="546" on="0"/>
        <pt x="431" y="564" on="1"/>
        <pt x="430" y="586" on="0"/>
        <pt x="416" y="625" on="0"/>
        <pt x="385" y="669" on="0"/>
        <pt x="320" y="695" on="0"/>
        <pt x="274" y="695" on="1"/>
        <pt x="112" y="695" on="0"/>
        <pt x="112" y="525" on="1"/>
        <pt x="112" y="200" on="1"/>
        <pt x="112" y="30" on="0"/>
        <pt x="278" y="30" on="1"/>
        <pt x="316" y="30" on="0"/>
        <pt x="372" y="49" on="0"/>
        <pt x="401" y="72" on="0"/>
        <pt x="422" y="114" on="0"/>
        <pt x="428" y="139" on="0"/>
        <pt x="431" y="161" on="1"/>
        <pt x="433" y="179" on="0"/>
        <pt x="449" y="179" on="1"/>
        <pt x="467" y="179" on="0"/>
        <pt x="467" y="150" on="1"/>
        <pt x="467" y="88" on="0"/>
        <pt x="363" y="-6" on="0"/>
        <pt x="272" y="-6" on="1"/>
        <pt x="185" y="-6" on="0"/>
        <pt x="76" y="94" on="0"/>
      </contour>
      <contour>
        <pt x="141" y="878" on="1"/>
        <pt x="141" y="888" on="0"/>
        <pt x="150" y="892" on="1"/>
        <pt x="254" y="948" on="1"/>
        <pt x="262" y="953" on="0"/>
        <pt x="280" y="953" on="0"/>
        <pt x="288" y="948" on="1"/>
        <pt x="392" y="893" on="1"/>
        <pt x="401" y="888" on="0"/>
        <pt x="401" y="876" on="1"/>
        <pt x="401" y="869" on="0"/>
        <pt x="391" y="860" on="0"/>
        <pt x="384" y="860" on="1"/>
        <pt x="375" y="863" on="1"/>
        <pt x="271" y="918" on="1"/>
        <pt x="167" y="862" on="1"/>
        <pt x="166" y="862" on="0"/>
        <pt x="160" y="859" on="0"/>
        <pt x="159" y="859" on="1"/>
        <pt x="152" y="859" on="0"/>
        <pt x="141" y="870" on="0"/>
      </contour>
    </TTGlyph>
    <TTGlyph name="Cdotaccent" xMin="76" yMin="-6" xMax="467" yMax="918">
      <contour>
        <pt x="76" y="200" on="1"/>
        <pt x="76" y="525" on="1"/>
        <pt x="76" y="631" on="0"/>
        <pt x="187" y="731" on="0"/>
        <pt x="275" y="731" on="1"/>
        <pt x="366" y="731" on="0"/>
        <pt x="467" y="638" on="0"/>
        <pt x="467" y="574" on="1"/>
        <pt x="467" y="546" on="0"/>
        <pt x="431" y="546" on="0"/>
        <pt x="431" y="564" on="1"/>
        <pt x="430" y="586" on="0"/>
        <pt x="416" y="625" on="0"/>
        <pt x="385" y="669" on="0"/>
        <pt x="320" y="695" on="0"/>
        <pt x="274" y="695" on="1"/>
        <pt x="112" y="695" on="0"/>
        <pt x="112" y="525" on="1"/>
        <pt x="112" y="200" on="1"/>
        <pt x="112" y="30" on="0"/>
        <pt x="278" y="30" on="1"/>
        <pt x="316" y="30" on="0"/>
        <pt x="372" y="49" on="0"/>
        <pt x="401" y="72" on="0"/>
        <pt x="422" y="114" on="0"/>
        <pt x="428" y="139" on="0"/>
        <pt x="431" y="161" on="1"/>
        <pt x="433" y="179" on="0"/>
        <pt x="449" y="179" on="1"/>
        <pt x="467" y="179" on="0"/>
        <pt x="467" y="150" on="1"/>
        <pt x="467" y="88" on="0"/>
        <pt x="363" y="-6" on="0"/>
        <pt x="272" y="-6" on="1"/>
        <pt x="185" y="-6" on="0"/>
        <pt x="76" y="94" on="0"/>
      </contour>
      <contour>
        <pt x="242" y="876" on="0"/>
        <pt x="242" y="902" on="0"/>
        <pt x="259" y="918" on="0"/>
        <pt x="285" y="918" on="0"/>
        <pt x="301" y="902" on="0"/>
        <pt x="301" y="876" on="0"/>
        <pt x="285" y="859" on="0"/>
        <pt x="259" y="859" on="0"/>
      </contour>
    </TTGlyph>
    <TTGlyph name="D" xMin="83" yMin="0" xMax="474" yMax="731">
      <contour>
        <pt x="83" y="17" on="1"/>
        <pt x="83" y="714" on="1"/>
        <pt x="83" y="731" on="0"/>
        <pt x="101" y="731" on="1"/>
        <pt x="278" y="731" on="1"/>
        <pt x="367" y="731" on="0"/>
        <pt x="474" y="632" on="0"/>
        <pt x="474" y="525" on="1"/>
        <pt x="474" y="206" on="1"/>
        <pt x="474" y="99" on="0"/>
        <pt x="367" y="0" on="0"/>
        <pt x="278" y="0" on="1"/>
        <pt x="101" y="0" on="1"/>
        <pt x="83" y="0" on="0"/>
      </contour>
      <contour>
        <pt x="119" y="36" on="1"/>
        <pt x="278" y="36" on="1"/>
        <pt x="355" y="36" on="0"/>
        <pt x="438" y="121" on="0"/>
        <pt x="438" y="206" on="1"/>
        <pt x="438" y="525" on="1"/>
        <pt x="438" y="610" on="0"/>
        <pt x="355" y="695" on="0"/>
        <pt x="278" y="695" on="1"/>
        <pt x="119" y="695" on="1"/>
      </contour>
    </TTGlyph>
    <TTGlyph name="Dcaron" xMin="83" yMin="0" xMax="474" yMax="990">
      <contour>
        <pt x="83" y="17" on="1"/>
        <pt x="83" y="714" on="1"/>
        <pt x="83" y="731" on="0"/>
        <pt x="101" y="731" on="1"/>
        <pt x="278" y="731" on="1"/>
        <pt x="367" y="731" on="0"/>
        <pt x="474" y="632" on="0"/>
        <pt x="474" y="525" on="1"/>
        <pt x="474" y="206" on="1"/>
        <pt x="474" y="99" on="0"/>
        <pt x="367" y="0" on="0"/>
        <pt x="278" y="0" on="1"/>
        <pt x="101" y="0" on="1"/>
        <pt x="83" y="0" on="0"/>
      </contour>
      <contour>
        <pt x="119" y="36" on="1"/>
        <pt x="278" y="36" on="1"/>
        <pt x="355" y="36" on="0"/>
        <pt x="438" y="121" on="0"/>
        <pt x="438" y="206" on="1"/>
        <pt x="438" y="525" on="1"/>
        <pt x="438" y="610" on="0"/>
        <pt x="355" y="695" on="0"/>
        <pt x="278" y="695" on="1"/>
        <pt x="119" y="695" on="1"/>
      </contour>
      <contour>
        <pt x="148" y="969" on="0"/>
        <pt x="148" y="981" on="0"/>
        <pt x="157" y="990" on="0"/>
        <pt x="163" y="990" on="1"/>
        <pt x="172" y="990" on="0"/>
        <pt x="179" y="982" on="1"/>
        <pt x="277" y="879" on="1"/>
        <pt x="375" y="982" on="1"/>
        <pt x="382" y="990" on="0"/>
        <pt x="391" y="990" on="1"/>
        <pt x="397" y="990" on="0"/>
        <pt x="406" y="981" on="0"/>
        <pt x="406" y="969" on="0"/>
        <pt x="398" y="959" on="1"/>
        <pt x="298" y="858" on="1"/>
        <pt x="287" y="847" on="0"/>
        <pt x="277" y="847" on="1"/>
        <pt x="265" y="847" on="0"/>
        <pt x="256" y="858" on="1"/>
        <pt x="156" y="959" on="1"/>
      </contour>
    </TTGlyph>
    <TTGlyph name="Dcroat" xMin="3" yMin="0" xMax="484" yMax="731">
      <contour>
        <pt x="3" y="384" on="1"/>
        <pt x="3" y="402" on="0"/>
        <pt x="20" y="402" on="1"/>
        <pt x="93" y="402" on="1"/>
        <pt x="93" y="714" on="1"/>
        <pt x="93" y="731" on="0"/>
        <pt x="111" y="731" on="1"/>
        <pt x="288" y="731" on="1"/>
        <pt x="377" y="731" on="0"/>
        <pt x="484" y="632" on="0"/>
        <pt x="484" y="525" on="1"/>
        <pt x="484" y="206" on="1"/>
        <pt x="484" y="99" on="0"/>
        <pt x="377" y="0" on="0"/>
        <pt x="288" y="0" on="1"/>
        <pt x="111" y="0" on="1"/>
        <pt x="93" y="0" on="0"/>
        <pt x="93" y="17" on="1"/>
        <pt x="93" y="367" on="1"/>
        <pt x="20" y="367" on="1"/>
        <pt x="3" y="367" on="0"/>
      </contour>
      <contour>
        <pt x="129" y="36" on="1"/>
        <pt x="288" y="36" on="1"/>
        <pt x="365" y="36" on="0"/>
        <pt x="448" y="121" on="0"/>
        <pt x="448" y="206" on="1"/>
        <pt x="448" y="525" on="1"/>
        <pt x="448" y="610" on="0"/>
        <pt x="365" y="695" on="0"/>
        <pt x="288" y="695" on="1"/>
        <pt x="129" y="695" on="1"/>
        <pt x="129" y="402" on="1"/>
        <pt x="260" y="402" on="1"/>
        <pt x="267" y="402" on="0"/>
        <pt x="278" y="391" on="0"/>
        <pt x="278" y="377" on="0"/>
        <pt x="267" y="367" on="0"/>
        <pt x="260" y="367" on="1"/>
        <pt x="129" y="367" on="1"/>
      </contour>
    </TTGlyph>
    <TTGlyph name="E" xMin="83" yMin="0" xMax="474" yMax="731">
      <contour>
        <pt x="83" y="18" on="1"/>
        <pt x="83" y="713" on="1"/>
        <pt x="83" y="731" on="0"/>
        <pt x="101" y="731" on="1"/>
        <pt x="457" y="731" on="1"/>
        <pt x="474" y="731" on="0"/>
        <pt x="474" y="714" on="1"/>
        <pt x="474" y="695" on="0"/>
        <pt x="457" y="695" on="1"/>
        <pt x="119" y="695" on="1"/>
        <pt x="119" y="384" on="1"/>
        <pt x="279" y="384" on="1"/>
        <pt x="296" y="384" on="0"/>
        <pt x="296" y="365" on="1"/>
        <pt x="296" y="348" on="0"/>
        <pt x="279" y="348" on="1"/>
        <pt x="119" y="348" on="1"/>
        <pt x="119" y="36" on="1"/>
        <pt x="457" y="36" on="1"/>
        <pt x="474" y="36" on="0"/>
        <pt x="474" y="17" on="1"/>
        <pt x="474" y="0" on="0"/>
        <pt x="457" y="0" on="1"/>
        <pt x="101" y="0" on="1"/>
        <pt x="83" y="0" on="0"/>
      </contour>
    </TTGlyph>
    <TTGlyph name="Eacute" xMin="83" yMin="0" xMax="474" yMax="953">
      <contour>
        <pt x="83" y="18" on="1"/>
        <pt x="83" y="713" on="1"/>
        <pt x="83" y="731" on="0"/>
        <pt x="101" y="731" on="1"/>
        <pt x="457" y="731" on="1"/>
        <pt x="474" y="731" on="0"/>
        <pt x="474" y="714" on="1"/>
        <pt x="474" y="695" on="0"/>
        <pt x="457" y="695" on="1"/>
        <pt x="119" y="695" on="1"/>
        <pt x="119" y="384" on="1"/>
        <pt x="279" y="384" on="1"/>
        <pt x="296" y="384" on="0"/>
        <pt x="296" y="365" on="1"/>
        <pt x="296" y="348" on="0"/>
        <pt x="279" y="348" on="1"/>
        <pt x="119" y="348" on="1"/>
        <pt x="119" y="36" on="1"/>
        <pt x="457" y="36" on="1"/>
        <pt x="474" y="36" on="0"/>
        <pt x="474" y="17" on="1"/>
        <pt x="474" y="0" on="0"/>
        <pt x="457" y="0" on="1"/>
        <pt x="101" y="0" on="1"/>
        <pt x="83" y="0" on="0"/>
      </contour>
      <contour>
        <pt x="212" y="878" on="1"/>
        <pt x="212" y="887" on="0"/>
        <pt x="220" y="891" on="1"/>
        <pt x="322" y="951" on="1"/>
        <pt x="326" y="953" on="0"/>
        <pt x="329" y="953" on="1"/>
        <pt x="345" y="953" on="0"/>
        <pt x="345" y="935" on="1"/>
        <pt x="345" y="923" on="0"/>
        <pt x="335" y="917" on="1"/>
        <pt x="240" y="863" on="1"/>
        <pt x="236" y="860" on="0"/>
        <pt x="231" y="860" on="1"/>
        <pt x="223" y="860" on="0"/>
        <pt x="212" y="871" on="0"/>
      </contour>
    </TTGlyph>
    <TTGlyph name="Ebreve" xMin="83" yMin="0" xMax="474" yMax="969">
      <contour>
        <pt x="83" y="18" on="1"/>
        <pt x="83" y="713" on="1"/>
        <pt x="83" y="731" on="0"/>
        <pt x="101" y="731" on="1"/>
        <pt x="457" y="731" on="1"/>
        <pt x="474" y="731" on="0"/>
        <pt x="474" y="714" on="1"/>
        <pt x="474" y="695" on="0"/>
        <pt x="457" y="695" on="1"/>
        <pt x="119" y="695" on="1"/>
        <pt x="119" y="384" on="1"/>
        <pt x="279" y="384" on="1"/>
        <pt x="296" y="384" on="0"/>
        <pt x="296" y="365" on="1"/>
        <pt x="296" y="348" on="0"/>
        <pt x="279" y="348" on="1"/>
        <pt x="119" y="348" on="1"/>
        <pt x="119" y="36" on="1"/>
        <pt x="457" y="36" on="1"/>
        <pt x="474" y="36" on="0"/>
        <pt x="474" y="17" on="1"/>
        <pt x="474" y="0" on="0"/>
        <pt x="457" y="0" on="1"/>
        <pt x="101" y="0" on="1"/>
        <pt x="83" y="0" on="0"/>
      </contour>
      <contour>
        <pt x="169" y="969" on="1"/>
        <pt x="201" y="969" on="1"/>
        <pt x="201" y="935" on="0"/>
        <pt x="246" y="886" on="0"/>
        <pt x="278" y="886" on="1"/>
        <pt x="309" y="886" on="0"/>
        <pt x="354" y="935" on="0"/>
        <pt x="354" y="969" on="1"/>
        <pt x="387" y="969" on="1"/>
        <pt x="387" y="925" on="0"/>
        <pt x="321" y="860" on="0"/>
        <pt x="278" y="860" on="1"/>
        <pt x="234" y="860" on="0"/>
        <pt x="169" y="925" on="0"/>
      </contour>
    </TTGlyph>
    <TTGlyph name="Ecaron" xMin="83" yMin="0" xMax="474" yMax="990">
      <contour>
        <pt x="83" y="18" on="1"/>
        <pt x="83" y="713" on="1"/>
        <pt x="83" y="731" on="0"/>
        <pt x="101" y="731" on="1"/>
        <pt x="457" y="731" on="1"/>
        <pt x="474" y="731" on="0"/>
        <pt x="474" y="714" on="1"/>
        <pt x="474" y="695" on="0"/>
        <pt x="457" y="695" on="1"/>
        <pt x="119" y="695" on="1"/>
        <pt x="119" y="384" on="1"/>
        <pt x="279" y="384" on="1"/>
        <pt x="296" y="384" on="0"/>
        <pt x="296" y="365" on="1"/>
        <pt x="296" y="348" on="0"/>
        <pt x="279" y="348" on="1"/>
        <pt x="119" y="348" on="1"/>
        <pt x="119" y="36" on="1"/>
        <pt x="457" y="36" on="1"/>
        <pt x="474" y="36" on="0"/>
        <pt x="474" y="17" on="1"/>
        <pt x="474" y="0" on="0"/>
        <pt x="457" y="0" on="1"/>
        <pt x="101" y="0" on="1"/>
        <pt x="83" y="0" on="0"/>
      </contour>
      <contour>
        <pt x="148" y="969" on="0"/>
        <pt x="148" y="981" on="0"/>
        <pt x="157" y="990" on="0"/>
        <pt x="163" y="990" on="1"/>
        <pt x="172" y="990" on="0"/>
        <pt x="179" y="982" on="1"/>
        <pt x="277" y="879" on="1"/>
        <pt x="375" y="982" on="1"/>
        <pt x="382" y="990" on="0"/>
        <pt x="391" y="990" on="1"/>
        <pt x="397" y="990" on="0"/>
        <pt x="406" y="981" on="0"/>
        <pt x="406" y="969" on="0"/>
        <pt x="398" y="959" on="1"/>
        <pt x="298" y="858" on="1"/>
        <pt x="287" y="847" on="0"/>
        <pt x="277" y="847" on="1"/>
        <pt x="265" y="847" on="0"/>
        <pt x="256" y="858" on="1"/>
        <pt x="156" y="959" on="1"/>
      </contour>
    </TTGlyph>
    <TTGlyph name="Ecircumflex" xMin="83" yMin="0" xMax="474" yMax="953">
      <contour>
        <pt x="83" y="18" on="1"/>
        <pt x="83" y="713" on="1"/>
        <pt x="83" y="731" on="0"/>
        <pt x="101" y="731" on="1"/>
        <pt x="457" y="731" on="1"/>
        <pt x="474" y="731" on="0"/>
        <pt x="474" y="714" on="1"/>
        <pt x="474" y="695" on="0"/>
        <pt x="457" y="695" on="1"/>
        <pt x="119" y="695" on="1"/>
        <pt x="119" y="384" on="1"/>
        <pt x="279" y="384" on="1"/>
        <pt x="296" y="384" on="0"/>
        <pt x="296" y="365" on="1"/>
        <pt x="296" y="348" on="0"/>
        <pt x="279" y="348" on="1"/>
        <pt x="119" y="348" on="1"/>
        <pt x="119" y="36" on="1"/>
        <pt x="457" y="36" on="1"/>
        <pt x="474" y="36" on="0"/>
        <pt x="474" y="17" on="1"/>
        <pt x="474" y="0" on="0"/>
        <pt x="457" y="0" on="1"/>
        <pt x="101" y="0" on="1"/>
        <pt x="83" y="0" on="0"/>
      </contour>
      <contour>
        <pt x="148" y="878" on="1"/>
        <pt x="148" y="888" on="0"/>
        <pt x="157" y="892" on="1"/>
        <pt x="261" y="948" on="1"/>
        <pt x="269" y="953" on="0"/>
        <pt x="287" y="953" on="0"/>
        <pt x="295" y="948" on="1"/>
        <pt x="399" y="893" on="1"/>
        <pt x="408" y="888" on="0"/>
        <pt x="408" y="876" on="1"/>
        <pt x="408" y="869" on="0"/>
        <pt x="398" y="860" on="0"/>
        <pt x="391" y="860" on="1"/>
        <pt x="382" y="863" on="1"/>
        <pt x="278" y="918" on="1"/>
        <pt x="174" y="862" on="1"/>
        <pt x="173" y="862" on="0"/>
        <pt x="167" y="859" on="0"/>
        <pt x="166" y="859" on="1"/>
        <pt x="159" y="859" on="0"/>
        <pt x="148" y="870" on="0"/>
      </contour>
    </TTGlyph>
    <TTGlyph name="Edieresis" xMin="83" yMin="0" xMax="474" yMax="918">
      <contour>
        <pt x="83" y="18" on="1"/>
        <pt x="83" y="713" on="1"/>
        <pt x="83" y="731" on="0"/>
        <pt x="101" y="731" on="1"/>
        <pt x="457" y="731" on="1"/>
        <pt x="474" y="731" on="0"/>
        <pt x="474" y="714" on="1"/>
        <pt x="474" y="695" on="0"/>
        <pt x="457" y="695" on="1"/>
        <pt x="119" y="695" on="1"/>
        <pt x="119" y="384" on="1"/>
        <pt x="279" y="384" on="1"/>
        <pt x="296" y="384" on="0"/>
        <pt x="296" y="365" on="1"/>
        <pt x="296" y="348" on="0"/>
        <pt x="279" y="348" on="1"/>
        <pt x="119" y="348" on="1"/>
        <pt x="119" y="36" on="1"/>
        <pt x="457" y="36" on="1"/>
        <pt x="474" y="36" on="0"/>
        <pt x="474" y="17" on="1"/>
        <pt x="474" y="0" on="0"/>
        <pt x="457" y="0" on="1"/>
        <pt x="101" y="0" on="1"/>
        <pt x="83" y="0" on="0"/>
      </contour>
      <contour>
        <pt x="193" y="876" on="0"/>
        <pt x="193" y="902" on="0"/>
        <pt x="210" y="918" on="0"/>
        <pt x="236" y="918" on="0"/>
        <pt x="252" y="902" on="0"/>
        <pt x="252" y="876" on="0"/>
        <pt x="236" y="859" on="0"/>
        <pt x="210" y="859" on="0"/>
      </contour>
      <contour>
        <pt x="304" y="876" on="0"/>
        <pt x="304" y="902" on="0"/>
        <pt x="321" y="918" on="0"/>
        <pt x="347" y="918" on="0"/>
        <pt x="363" y="902" on="0"/>
        <pt x="363" y="876" on="0"/>
        <pt x="347" y="859" on="0"/>
        <pt x="321" y="859" on="0"/>
      </contour>
    </TTGlyph>
    <TTGlyph name="Edotaccent" xMin="83" yMin="0" xMax="474" yMax="918">
      <contour>
        <pt x="83" y="18" on="1"/>
        <pt x="83" y="713" on="1"/>
        <pt x="83" y="731" on="0"/>
        <pt x="101" y="731" on="1"/>
        <pt x="457" y="731" on="1"/>
        <pt x="474" y="731" on="0"/>
        <pt x="474" y="714" on="1"/>
        <pt x="474" y="695" on="0"/>
        <pt x="457" y="695" on="1"/>
        <pt x="119" y="695" on="1"/>
        <pt x="119" y="384" on="1"/>
        <pt x="279" y="384" on="1"/>
        <pt x="296" y="384" on="0"/>
        <pt x="296" y="365" on="1"/>
        <pt x="296" y="348" on="0"/>
        <pt x="279" y="348" on="1"/>
        <pt x="119" y="348" on="1"/>
        <pt x="119" y="36" on="1"/>
        <pt x="457" y="36" on="1"/>
        <pt x="474" y="36" on="0"/>
        <pt x="474" y="17" on="1"/>
        <pt x="474" y="0" on="0"/>
        <pt x="457" y="0" on="1"/>
        <pt x="101" y="0" on="1"/>
        <pt x="83" y="0" on="0"/>
      </contour>
      <contour>
        <pt x="249" y="876" on="0"/>
        <pt x="249" y="902" on="0"/>
        <pt x="266" y="918" on="0"/>
        <pt x="292" y="918" on="0"/>
        <pt x="308" y="902" on="0"/>
        <pt x="308" y="876" on="0"/>
        <pt x="292" y="859" on="0"/>
        <pt x="266" y="859" on="0"/>
      </contour>
    </TTGlyph>
    <TTGlyph name="Egrave" xMin="83" yMin="0" xMax="474" yMax="953">
      <contour>
        <pt x="83" y="18" on="1"/>
        <pt x="83" y="713" on="1"/>
        <pt x="83" y="731" on="0"/>
        <pt x="101" y="731" on="1"/>
        <pt x="457" y="731" on="1"/>
        <pt x="474" y="731" on="0"/>
        <pt x="474" y="714" on="1"/>
        <pt x="474" y="695" on="0"/>
        <pt x="457" y="695" on="1"/>
        <pt x="119" y="695" on="1"/>
        <pt x="119" y="384" on="1"/>
        <pt x="279" y="384" on="1"/>
        <pt x="296" y="384" on="0"/>
        <pt x="296" y="365" on="1"/>
        <pt x="296" y="348" on="0"/>
        <pt x="279" y="348" on="1"/>
        <pt x="119" y="348" on="1"/>
        <pt x="119" y="36" on="1"/>
        <pt x="457" y="36" on="1"/>
        <pt x="474" y="36" on="0"/>
        <pt x="474" y="17" on="1"/>
        <pt x="474" y="0" on="0"/>
        <pt x="457" y="0" on="1"/>
        <pt x="101" y="0" on="1"/>
        <pt x="83" y="0" on="0"/>
      </contour>
      <contour>
        <pt x="212" y="935" on="1"/>
        <pt x="212" y="953" on="0"/>
        <pt x="228" y="953" on="1"/>
        <pt x="231" y="953" on="0"/>
        <pt x="235" y="951" on="1"/>
        <pt x="337" y="891" on="1"/>
        <pt x="345" y="887" on="0"/>
        <pt x="345" y="878" on="1"/>
        <pt x="345" y="871" on="0"/>
        <pt x="334" y="860" on="0"/>
        <pt x="326" y="860" on="1"/>
        <pt x="322" y="860" on="0"/>
        <pt x="317" y="863" on="1"/>
        <pt x="222" y="917" on="1"/>
        <pt x="212" y="923" on="0"/>
      </contour>
    </TTGlyph>
    <TTGlyph name="Emacron" xMin="83" yMin="0" xMax="474" yMax="941">
      <contour>
        <pt x="83" y="18" on="1"/>
        <pt x="83" y="713" on="1"/>
        <pt x="83" y="731" on="0"/>
        <pt x="101" y="731" on="1"/>
        <pt x="457" y="731" on="1"/>
        <pt x="474" y="731" on="0"/>
        <pt x="474" y="714" on="1"/>
        <pt x="474" y="695" on="0"/>
        <pt x="457" y="695" on="1"/>
        <pt x="119" y="695" on="1"/>
        <pt x="119" y="384" on="1"/>
        <pt x="279" y="384" on="1"/>
        <pt x="296" y="384" on="0"/>
        <pt x="296" y="365" on="1"/>
        <pt x="296" y="348" on="0"/>
        <pt x="279" y="348" on="1"/>
        <pt x="119" y="348" on="1"/>
        <pt x="119" y="36" on="1"/>
        <pt x="457" y="36" on="1"/>
        <pt x="474" y="36" on="0"/>
        <pt x="474" y="17" on="1"/>
        <pt x="474" y="0" on="0"/>
        <pt x="457" y="0" on="1"/>
        <pt x="101" y="0" on="1"/>
        <pt x="83" y="0" on="0"/>
      </contour>
      <contour>
        <pt x="151" y="923" on="1"/>
        <pt x="151" y="941" on="0"/>
        <pt x="168" y="941" on="1"/>
        <pt x="388" y="941" on="1"/>
        <pt x="395" y="941" on="0"/>
        <pt x="406" y="930" on="0"/>
        <pt x="406" y="916" on="0"/>
        <pt x="395" y="906" on="0"/>
        <pt x="388" y="906" on="1"/>
        <pt x="168" y="906" on="1"/>
        <pt x="151" y="906" on="0"/>
      </contour>
    </TTGlyph>
    <TTGlyph name="Eng" xMin="83" yMin="-237" xMax="474" yMax="731">
      <contour>
        <pt x="83" y="18" on="1"/>
        <pt x="83" y="714" on="1"/>
        <pt x="83" y="731" on="0"/>
        <pt x="101" y="731" on="1"/>
        <pt x="112" y="731" on="0"/>
        <pt x="132" y="695" on="1"/>
        <pt x="438" y="89" on="1"/>
        <pt x="438" y="714" on="1"/>
        <pt x="438" y="731" on="0"/>
        <pt x="474" y="731" on="0"/>
        <pt x="474" y="714" on="1"/>
        <pt x="474" y="-48" on="1"/>
        <pt x="474" y="-237" on="0"/>
        <pt x="352" y="-237" on="1"/>
        <pt x="345" y="-237" on="0"/>
        <pt x="334" y="-226" on="0"/>
        <pt x="334" y="-219" on="1"/>
        <pt x="334" y="-202" on="0"/>
        <pt x="352" y="-202" on="1"/>
        <pt x="405" y="-202" on="0"/>
        <pt x="439" y="-125" on="0"/>
        <pt x="439" y="-48" on="1"/>
        <pt x="439" y="0" on="1"/>
        <pt x="439" y="12" on="0"/>
        <pt x="427" y="36" on="1"/>
        <pt x="119" y="643" on="1"/>
        <pt x="119" y="18" on="1"/>
        <pt x="119" y="0" on="0"/>
        <pt x="83" y="0" on="0"/>
      </contour>
    </TTGlyph>
    <TTGlyph name="Eogonek" xMin="83" yMin="-195" xMax="474" yMax="731">
      <contour>
        <pt x="83" y="18" on="1"/>
        <pt x="83" y="713" on="1"/>
        <pt x="83" y="731" on="0"/>
        <pt x="101" y="731" on="1"/>
        <pt x="457" y="731" on="1"/>
        <pt x="474" y="731" on="0"/>
        <pt x="474" y="714" on="1"/>
        <pt x="474" y="695" on="0"/>
        <pt x="457" y="695" on="1"/>
        <pt x="119" y="695" on="1"/>
        <pt x="119" y="384" on="1"/>
        <pt x="279" y="384" on="1"/>
        <pt x="296" y="384" on="0"/>
        <pt x="296" y="365" on="1"/>
        <pt x="296" y="348" on="0"/>
        <pt x="279" y="348" on="1"/>
        <pt x="119" y="348" on="1"/>
        <pt x="119" y="36" on="1"/>
        <pt x="457" y="36" on="1"/>
        <pt x="474" y="36" on="0"/>
        <pt x="474" y="17" on="1"/>
        <pt x="474" y="4" on="0"/>
        <pt x="464" y="1" on="1"/>
        <pt x="393" y="-66" on="0"/>
        <pt x="393" y="-126" on="1"/>
        <pt x="393" y="-169" on="0"/>
        <pt x="456" y="-169" on="1"/>
        <pt x="474" y="-169" on="0"/>
        <pt x="474" y="-195" on="0"/>
        <pt x="451" y="-195" on="1"/>
        <pt x="417" y="-195" on="0"/>
        <pt x="364" y="-164" on="0"/>
        <pt x="364" y="-128" on="1"/>
        <pt x="364" y="-60" on="0"/>
        <pt x="421" y="0" on="1"/>
        <pt x="101" y="0" on="1"/>
        <pt x="83" y="0" on="0"/>
      </contour>
    </TTGlyph>
    <TTGlyph name="Eth" xMin="3" yMin="0" xMax="484" yMax="731">
      <contour>
        <pt x="3" y="384" on="1"/>
        <pt x="3" y="402" on="0"/>
        <pt x="20" y="402" on="1"/>
        <pt x="93" y="402" on="1"/>
        <pt x="93" y="714" on="1"/>
        <pt x="93" y="731" on="0"/>
        <pt x="111" y="731" on="1"/>
        <pt x="288" y="731" on="1"/>
        <pt x="377" y="731" on="0"/>
        <pt x="484" y="632" on="0"/>
        <pt x="484" y="525" on="1"/>
        <pt x="484" y="206" on="1"/>
        <pt x="484" y="99" on="0"/>
        <pt x="377" y="0" on="0"/>
        <pt x="288" y="0" on="1"/>
        <pt x="111" y="0" on="1"/>
        <pt x="93" y="0" on="0"/>
        <pt x="93" y="17" on="1"/>
        <pt x="93" y="367" on="1"/>
        <pt x="20" y="367" on="1"/>
        <pt x="3" y="367" on="0"/>
      </contour>
      <contour>
        <pt x="129" y="36" on="1"/>
        <pt x="288" y="36" on="1"/>
        <pt x="365" y="36" on="0"/>
        <pt x="448" y="121" on="0"/>
        <pt x="448" y="206" on="1"/>
        <pt x="448" y="525" on="1"/>
        <pt x="448" y="610" on="0"/>
        <pt x="365" y="695" on="0"/>
        <pt x="288" y="695" on="1"/>
        <pt x="129" y="695" on="1"/>
        <pt x="129" y="402" on="1"/>
        <pt x="260" y="402" on="1"/>
        <pt x="267" y="402" on="0"/>
        <pt x="278" y="391" on="0"/>
        <pt x="278" y="377" on="0"/>
        <pt x="267" y="367" on="0"/>
        <pt x="260" y="367" on="1"/>
        <pt x="129" y="367" on="1"/>
      </contour>
    </TTGlyph>
    <TTGlyph name="Euro" xMin="37" yMin="-6" xMax="515" yMax="731">
      <contour>
        <pt x="37" y="281" on="1"/>
        <pt x="37" y="299" on="0"/>
        <pt x="54" y="299" on="1"/>
        <pt x="124" y="299" on="1"/>
        <pt x="124" y="407" on="1"/>
        <pt x="54" y="407" on="1"/>
        <pt x="37" y="407" on="0"/>
        <pt x="37" y="424" on="1"/>
        <pt x="37" y="442" on="0"/>
        <pt x="54" y="442" on="1"/>
        <pt x="124" y="442" on="1"/>
        <pt x="124" y="525" on="1"/>
        <pt x="124" y="632" on="0"/>
        <pt x="230" y="731" on="0"/>
        <pt x="319" y="731" on="1"/>
        <pt x="409" y="731" on="0"/>
        <pt x="515" y="637" on="0"/>
        <pt x="515" y="566" on="1"/>
        <pt x="515" y="546" on="0"/>
        <pt x="479" y="546" on="0"/>
        <pt x="479" y="564" on="1"/>
        <pt x="479" y="628" on="0"/>
        <pt x="389" y="695" on="0"/>
        <pt x="319" y="695" on="1"/>
        <pt x="242" y="695" on="0"/>
        <pt x="160" y="610" on="0"/>
        <pt x="160" y="525" on="1"/>
        <pt x="160" y="442" on="1"/>
        <pt x="364" y="442" on="1"/>
        <pt x="371" y="442" on="0"/>
        <pt x="382" y="431" on="0"/>
        <pt x="382" y="417" on="0"/>
        <pt x="371" y="407" on="0"/>
        <pt x="364" y="407" on="1"/>
        <pt x="160" y="407" on="1"/>
        <pt x="160" y="299" on="1"/>
        <pt x="364" y="299" on="1"/>
        <pt x="371" y="299" on="0"/>
        <pt x="382" y="288" on="0"/>
        <pt x="382" y="274" on="0"/>
        <pt x="371" y="264" on="0"/>
        <pt x="364" y="264" on="1"/>
        <pt x="160" y="264" on="1"/>
        <pt x="160" y="200" on="1"/>
        <pt x="160" y="115" on="0"/>
        <pt x="242" y="30" on="0"/>
        <pt x="319" y="30" on="1"/>
        <pt x="389" y="30" on="0"/>
        <pt x="479" y="97" on="0"/>
        <pt x="479" y="161" on="1"/>
        <pt x="479" y="179" on="0"/>
        <pt x="515" y="179" on="0"/>
        <pt x="515" y="159" on="1"/>
        <pt x="515" y="88" on="0"/>
        <pt x="409" y="-6" on="0"/>
        <pt x="319" y="-6" on="1"/>
        <pt x="230" y="-6" on="0"/>
        <pt x="124" y="93" on="0"/>
        <pt x="124" y="200" on="1"/>
        <pt x="124" y="264" on="1"/>
        <pt x="54" y="264" on="1"/>
        <pt x="37" y="264" on="0"/>
      </contour>
    </TTGlyph>
    <TTGlyph name="F" xMin="83" yMin="0" xMax="474" yMax="731">
      <contour>
        <pt x="83" y="17" on="1"/>
        <pt x="83" y="713" on="1"/>
        <pt x="83" y="731" on="0"/>
        <pt x="101" y="731" on="1"/>
        <pt x="457" y="731" on="1"/>
        <pt x="474" y="731" on="0"/>
        <pt x="474" y="714" on="1"/>
        <pt x="474" y="695" on="0"/>
        <pt x="457" y="695" on="1"/>
        <pt x="119" y="695" on="1"/>
        <pt x="119" y="384" on="1"/>
        <pt x="279" y="384" on="1"/>
        <pt x="296" y="384" on="0"/>
        <pt x="296" y="365" on="1"/>
        <pt x="296" y="348" on="0"/>
        <pt x="279" y="348" on="1"/>
        <pt x="119" y="348" on="1"/>
        <pt x="119" y="17" on="1"/>
        <pt x="119" y="0" on="0"/>
        <pt x="83" y="0" on="0"/>
      </contour>
    </TTGlyph>
    <TTGlyph name="G" xMin="76" yMin="-6" xMax="467" yMax="731">
      <contour>
        <pt x="76" y="200" on="1"/>
        <pt x="76" y="525" on="1"/>
        <pt x="76" y="632" on="0"/>
        <pt x="182" y="731" on="0"/>
        <pt x="271" y="731" on="1"/>
        <pt x="361" y="731" on="0"/>
        <pt x="467" y="637" on="0"/>
        <pt x="467" y="566" on="1"/>
        <pt x="467" y="546" on="0"/>
        <pt x="449" y="546" on="1"/>
        <pt x="432" y="546" on="0"/>
        <pt x="431" y="564" on="1"/>
        <pt x="422" y="630" on="0"/>
        <pt x="339" y="695" on="0"/>
        <pt x="271" y="695" on="1"/>
        <pt x="194" y="695" on="0"/>
        <pt x="112" y="610" on="0"/>
        <pt x="112" y="525" on="1"/>
        <pt x="112" y="200" on="1"/>
        <pt x="112" y="115" on="0"/>
        <pt x="194" y="30" on="0"/>
        <pt x="348" y="30" on="0"/>
        <pt x="431" y="115" on="0"/>
        <pt x="431" y="200" on="1"/>
        <pt x="431" y="348" on="1"/>
        <pt x="272" y="348" on="1"/>
        <pt x="255" y="348" on="0"/>
        <pt x="255" y="384" on="0"/>
        <pt x="272" y="384" on="1"/>
        <pt x="450" y="384" on="1"/>
        <pt x="467" y="384" on="0"/>
        <pt x="467" y="365" on="1"/>
        <pt x="467" y="200" on="1"/>
        <pt x="467" y="93" on="0"/>
        <pt x="360" y="-6" on="0"/>
        <pt x="182" y="-6" on="0"/>
        <pt x="76" y="93" on="0"/>
      </contour>
    </TTGlyph>
    <TTGlyph name="Gbreve" xMin="76" yMin="-6" xMax="467" yMax="969">
      <contour>
        <pt x="76" y="200" on="1"/>
        <pt x="76" y="525" on="1"/>
        <pt x="76" y="632" on="0"/>
        <pt x="182" y="731" on="0"/>
        <pt x="271" y="731" on="1"/>
        <pt x="361" y="731" on="0"/>
        <pt x="467" y="637" on="0"/>
        <pt x="467" y="566" on="1"/>
        <pt x="467" y="546" on="0"/>
        <pt x="449" y="546" on="1"/>
        <pt x="432" y="546" on="0"/>
        <pt x="431" y="564" on="1"/>
        <pt x="422" y="630" on="0"/>
        <pt x="339" y="695" on="0"/>
        <pt x="271" y="695" on="1"/>
        <pt x="194" y="695" on="0"/>
        <pt x="112" y="610" on="0"/>
        <pt x="112" y="525" on="1"/>
        <pt x="112" y="200" on="1"/>
        <pt x="112" y="115" on="0"/>
        <pt x="194" y="30" on="0"/>
        <pt x="348" y="30" on="0"/>
        <pt x="431" y="115" on="0"/>
        <pt x="431" y="200" on="1"/>
        <pt x="431" y="348" on="1"/>
        <pt x="272" y="348" on="1"/>
        <pt x="255" y="348" on="0"/>
        <pt x="255" y="384" on="0"/>
        <pt x="272" y="384" on="1"/>
        <pt x="450" y="384" on="1"/>
        <pt x="467" y="384" on="0"/>
        <pt x="467" y="365" on="1"/>
        <pt x="467" y="200" on="1"/>
        <pt x="467" y="93" on="0"/>
        <pt x="360" y="-6" on="0"/>
        <pt x="182" y="-6" on="0"/>
        <pt x="76" y="93" on="0"/>
      </contour>
      <contour>
        <pt x="162" y="969" on="1"/>
        <pt x="194" y="969" on="1"/>
        <pt x="194" y="935" on="0"/>
        <pt x="239" y="886" on="0"/>
        <pt x="271" y="886" on="1"/>
        <pt x="302" y="886" on="0"/>
        <pt x="347" y="935" on="0"/>
        <pt x="347" y="969" on="1"/>
        <pt x="380" y="969" on="1"/>
        <pt x="380" y="925" on="0"/>
        <pt x="314" y="860" on="0"/>
        <pt x="271" y="860" on="1"/>
        <pt x="227" y="860" on="0"/>
        <pt x="162" y="925" on="0"/>
      </contour>
    </TTGlyph>
    <TTGlyph name="Gcircumflex" xMin="76" yMin="-6" xMax="467" yMax="953">
      <contour>
        <pt x="76" y="200" on="1"/>
        <pt x="76" y="525" on="1"/>
        <pt x="76" y="632" on="0"/>
        <pt x="182" y="731" on="0"/>
        <pt x="271" y="731" on="1"/>
        <pt x="361" y="731" on="0"/>
        <pt x="467" y="637" on="0"/>
        <pt x="467" y="566" on="1"/>
        <pt x="467" y="546" on="0"/>
        <pt x="449" y="546" on="1"/>
        <pt x="432" y="546" on="0"/>
        <pt x="431" y="564" on="1"/>
        <pt x="422" y="630" on="0"/>
        <pt x="339" y="695" on="0"/>
        <pt x="271" y="695" on="1"/>
        <pt x="194" y="695" on="0"/>
        <pt x="112" y="610" on="0"/>
        <pt x="112" y="525" on="1"/>
        <pt x="112" y="200" on="1"/>
        <pt x="112" y="115" on="0"/>
        <pt x="194" y="30" on="0"/>
        <pt x="348" y="30" on="0"/>
        <pt x="431" y="115" on="0"/>
        <pt x="431" y="200" on="1"/>
        <pt x="431" y="348" on="1"/>
        <pt x="272" y="348" on="1"/>
        <pt x="255" y="348" on="0"/>
        <pt x="255" y="384" on="0"/>
        <pt x="272" y="384" on="1"/>
        <pt x="450" y="384" on="1"/>
        <pt x="467" y="384" on="0"/>
        <pt x="467" y="365" on="1"/>
        <pt x="467" y="200" on="1"/>
        <pt x="467" y="93" on="0"/>
        <pt x="360" y="-6" on="0"/>
        <pt x="182" y="-6" on="0"/>
        <pt x="76" y="93" on="0"/>
      </contour>
      <contour>
        <pt x="141" y="878" on="1"/>
        <pt x="141" y="888" on="0"/>
        <pt x="150" y="892" on="1"/>
        <pt x="254" y="948" on="1"/>
        <pt x="262" y="953" on="0"/>
        <pt x="280" y="953" on="0"/>
        <pt x="288" y="948" on="1"/>
        <pt x="392" y="893" on="1"/>
        <pt x="401" y="888" on="0"/>
        <pt x="401" y="876" on="1"/>
        <pt x="401" y="869" on="0"/>
        <pt x="391" y="860" on="0"/>
        <pt x="384" y="860" on="1"/>
        <pt x="375" y="863" on="1"/>
        <pt x="271" y="918" on="1"/>
        <pt x="167" y="862" on="1"/>
        <pt x="166" y="862" on="0"/>
        <pt x="160" y="859" on="0"/>
        <pt x="159" y="859" on="1"/>
        <pt x="152" y="859" on="0"/>
        <pt x="141" y="870" on="0"/>
      </contour>
    </TTGlyph>
    <TTGlyph name="Gcommaaccent" xMin="76" yMin="-141" xMax="467" yMax="731">
      <contour>
        <pt x="76" y="200" on="1"/>
        <pt x="76" y="525" on="1"/>
        <pt x="76" y="632" on="0"/>
        <pt x="182" y="731" on="0"/>
        <pt x="271" y="731" on="1"/>
        <pt x="361" y="731" on="0"/>
        <pt x="467" y="637" on="0"/>
        <pt x="467" y="566" on="1"/>
        <pt x="467" y="546" on="0"/>
        <pt x="449" y="546" on="1"/>
        <pt x="432" y="546" on="0"/>
        <pt x="431" y="564" on="1"/>
        <pt x="422" y="630" on="0"/>
        <pt x="339" y="695" on="0"/>
        <pt x="271" y="695" on="1"/>
        <pt x="194" y="695" on="0"/>
        <pt x="112" y="610" on="0"/>
        <pt x="112" y="525" on="1"/>
        <pt x="112" y="200" on="1"/>
        <pt x="112" y="115" on="0"/>
        <pt x="194" y="30" on="0"/>
        <pt x="348" y="30" on="0"/>
        <pt x="431" y="115" on="0"/>
        <pt x="431" y="200" on="1"/>
        <pt x="431" y="348" on="1"/>
        <pt x="272" y="348" on="1"/>
        <pt x="255" y="348" on="0"/>
        <pt x="255" y="384" on="0"/>
        <pt x="272" y="384" on="1"/>
        <pt x="450" y="384" on="1"/>
        <pt x="467" y="384" on="0"/>
        <pt x="467" y="365" on="1"/>
        <pt x="467" y="200" on="1"/>
        <pt x="467" y="93" on="0"/>
        <pt x="360" y="-6" on="0"/>
        <pt x="182" y="-6" on="0"/>
        <pt x="76" y="93" on="0"/>
      </contour>
      <contour>
        <pt x="202" y="-123" on="1"/>
        <pt x="202" y="-114" on="0"/>
        <pt x="210" y="-110" on="1"/>
        <pt x="312" y="-50" on="1"/>
        <pt x="316" y="-48" on="0"/>
        <pt x="319" y="-48" on="1"/>
        <pt x="335" y="-48" on="0"/>
        <pt x="335" y="-66" on="1"/>
        <pt x="335" y="-78" on="0"/>
        <pt x="325" y="-84" on="1"/>
        <pt x="230" y="-138" on="1"/>
        <pt x="226" y="-141" on="0"/>
        <pt x="221" y="-141" on="1"/>
        <pt x="213" y="-141" on="0"/>
        <pt x="202" y="-130" on="0"/>
      </contour>
    </TTGlyph>
    <TTGlyph name="Gdotaccent" xMin="76" yMin="-6" xMax="467" yMax="918">
      <contour>
        <pt x="76" y="200" on="1"/>
        <pt x="76" y="525" on="1"/>
        <pt x="76" y="632" on="0"/>
        <pt x="182" y="731" on="0"/>
        <pt x="271" y="731" on="1"/>
        <pt x="361" y="731" on="0"/>
        <pt x="467" y="637" on="0"/>
        <pt x="467" y="566" on="1"/>
        <pt x="467" y="546" on="0"/>
        <pt x="449" y="546" on="1"/>
        <pt x="432" y="546" on="0"/>
        <pt x="431" y="564" on="1"/>
        <pt x="422" y="630" on="0"/>
        <pt x="339" y="695" on="0"/>
        <pt x="271" y="695" on="1"/>
        <pt x="194" y="695" on="0"/>
        <pt x="112" y="610" on="0"/>
        <pt x="112" y="525" on="1"/>
        <pt x="112" y="200" on="1"/>
        <pt x="112" y="115" on="0"/>
        <pt x="194" y="30" on="0"/>
        <pt x="348" y="30" on="0"/>
        <pt x="431" y="115" on="0"/>
        <pt x="431" y="200" on="1"/>
        <pt x="431" y="348" on="1"/>
        <pt x="272" y="348" on="1"/>
        <pt x="255" y="348" on="0"/>
        <pt x="255" y="384" on="0"/>
        <pt x="272" y="384" on="1"/>
        <pt x="450" y="384" on="1"/>
        <pt x="467" y="384" on="0"/>
        <pt x="467" y="365" on="1"/>
        <pt x="467" y="200" on="1"/>
        <pt x="467" y="93" on="0"/>
        <pt x="360" y="-6" on="0"/>
        <pt x="182" y="-6" on="0"/>
        <pt x="76" y="93" on="0"/>
      </contour>
      <contour>
        <pt x="242" y="876" on="0"/>
        <pt x="242" y="902" on="0"/>
        <pt x="259" y="918" on="0"/>
        <pt x="285" y="918" on="0"/>
        <pt x="301" y="902" on="0"/>
        <pt x="301" y="876" on="0"/>
        <pt x="285" y="859" on="0"/>
        <pt x="259" y="859" on="0"/>
      </contour>
    </TTGlyph>
    <TTGlyph name="H" xMin="83" yMin="0" xMax="474" yMax="731">
      <contour>
        <pt x="83" y="18" on="1"/>
        <pt x="83" y="714" on="1"/>
        <pt x="83" y="731" on="0"/>
        <pt x="119" y="731" on="0"/>
        <pt x="119" y="714" on="1"/>
        <pt x="119" y="397" on="1"/>
        <pt x="438" y="397" on="1"/>
        <pt x="438" y="714" on="1"/>
        <pt x="438" y="731" on="0"/>
        <pt x="474" y="731" on="0"/>
        <pt x="474" y="714" on="1"/>
        <pt x="474" y="18" on="1"/>
        <pt x="474" y="0" on="0"/>
        <pt x="438" y="0" on="0"/>
        <pt x="438" y="18" on="1"/>
        <pt x="438" y="361" on="1"/>
        <pt x="119" y="361" on="1"/>
        <pt x="119" y="18" on="1"/>
        <pt x="119" y="0" on="0"/>
        <pt x="83" y="0" on="0"/>
      </contour>
    </TTGlyph>
    <TTGlyph name="Hbar" xMin="21" yMin="0" xMax="536" yMax="731">
      <contour>
        <pt x="21" y="560" on="1"/>
        <pt x="21" y="578" on="0"/>
        <pt x="38" y="578" on="1"/>
        <pt x="83" y="578" on="1"/>
        <pt x="83" y="714" on="1"/>
        <pt x="83" y="731" on="0"/>
        <pt x="119" y="731" on="0"/>
        <pt x="119" y="714" on="1"/>
        <pt x="119" y="578" on="1"/>
        <pt x="438" y="578" on="1"/>
        <pt x="438" y="714" on="1"/>
        <pt x="438" y="731" on="0"/>
        <pt x="474" y="731" on="0"/>
        <pt x="474" y="714" on="1"/>
        <pt x="474" y="578" on="1"/>
        <pt x="518" y="578" on="1"/>
        <pt x="525" y="578" on="0"/>
        <pt x="536" y="567" on="0"/>
        <pt x="536" y="553" on="0"/>
        <pt x="525" y="543" on="0"/>
        <pt x="518" y="543" on="1"/>
        <pt x="474" y="543" on="1"/>
        <pt x="474" y="18" on="1"/>
        <pt x="474" y="0" on="0"/>
        <pt x="438" y="0" on="0"/>
        <pt x="438" y="18" on="1"/>
        <pt x="438" y="361" on="1"/>
        <pt x="119" y="361" on="1"/>
        <pt x="119" y="18" on="1"/>
        <pt x="119" y="0" on="0"/>
        <pt x="83" y="0" on="0"/>
        <pt x="83" y="18" on="1"/>
        <pt x="83" y="543" on="1"/>
        <pt x="38" y="543" on="1"/>
        <pt x="21" y="543" on="0"/>
      </contour>
      <contour>
        <pt x="119" y="397" on="1"/>
        <pt x="438" y="397" on="1"/>
        <pt x="438" y="543" on="1"/>
        <pt x="119" y="543" on="1"/>
      </contour>
    </TTGlyph>
    <TTGlyph name="Hcircumflex" xMin="83" yMin="0" xMax="474" yMax="953">
      <contour>
        <pt x="83" y="18" on="1"/>
        <pt x="83" y="714" on="1"/>
        <pt x="83" y="731" on="0"/>
        <pt x="119" y="731" on="0"/>
        <pt x="119" y="714" on="1"/>
        <pt x="119" y="397" on="1"/>
        <pt x="438" y="397" on="1"/>
        <pt x="438" y="714" on="1"/>
        <pt x="438" y="731" on="0"/>
        <pt x="474" y="731" on="0"/>
        <pt x="474" y="714" on="1"/>
        <pt x="474" y="18" on="1"/>
        <pt x="474" y="0" on="0"/>
        <pt x="438" y="0" on="0"/>
        <pt x="438" y="18" on="1"/>
        <pt x="438" y="361" on="1"/>
        <pt x="119" y="361" on="1"/>
        <pt x="119" y="18" on="1"/>
        <pt x="119" y="0" on="0"/>
        <pt x="83" y="0" on="0"/>
      </contour>
      <contour>
        <pt x="149" y="878" on="1"/>
        <pt x="149" y="888" on="0"/>
        <pt x="158" y="892" on="1"/>
        <pt x="262" y="948" on="1"/>
        <pt x="270" y="953" on="0"/>
        <pt x="288" y="953" on="0"/>
        <pt x="296" y="948" on="1"/>
        <pt x="400" y="893" on="1"/>
        <pt x="409" y="888" on="0"/>
        <pt x="409" y="876" on="1"/>
        <pt x="409" y="869" on="0"/>
        <pt x="399" y="860" on="0"/>
        <pt x="392" y="860" on="1"/>
        <pt x="383" y="863" on="1"/>
        <pt x="279" y="918" on="1"/>
        <pt x="175" y="862" on="1"/>
        <pt x="174" y="862" on="0"/>
        <pt x="168" y="859" on="0"/>
        <pt x="167" y="859" on="1"/>
        <pt x="160" y="859" on="0"/>
        <pt x="149" y="870" on="0"/>
      </contour>
    </TTGlyph>
    <TTGlyph name="I" xMin="83" yMin="0" xMax="119" yMax="731">
      <contour>
        <pt x="83" y="18" on="1"/>
        <pt x="83" y="714" on="1"/>
        <pt x="83" y="731" on="0"/>
        <pt x="119" y="731" on="0"/>
        <pt x="119" y="714" on="1"/>
        <pt x="119" y="18" on="1"/>
        <pt x="119" y="0" on="0"/>
        <pt x="83" y="0" on="0"/>
      </contour>
    </TTGlyph>
    <TTGlyph name="IJ" xMin="83" yMin="-6" xMax="617" yMax="731">
      <contour>
        <pt x="83" y="18" on="1"/>
        <pt x="83" y="714" on="1"/>
        <pt x="83" y="731" on="0"/>
        <pt x="119" y="731" on="0"/>
        <pt x="119" y="714" on="1"/>
        <pt x="119" y="18" on="1"/>
        <pt x="119" y="0" on="0"/>
        <pt x="83" y="0" on="0"/>
      </contour>
      <contour>
        <pt x="226" y="159" on="1"/>
        <pt x="226" y="179" on="0"/>
        <pt x="243" y="179" on="1"/>
        <pt x="262" y="179" on="0"/>
        <pt x="262" y="161" on="1"/>
        <pt x="262" y="97" on="0"/>
        <pt x="352" y="30" on="0"/>
        <pt x="422" y="30" on="1"/>
        <pt x="499" y="30" on="0"/>
        <pt x="581" y="115" on="0"/>
        <pt x="581" y="200" on="1"/>
        <pt x="581" y="695" on="1"/>
        <pt x="422" y="695" on="1"/>
        <pt x="405" y="695" on="0"/>
        <pt x="405" y="714" on="1"/>
        <pt x="405" y="731" on="0"/>
        <pt x="422" y="731" on="1"/>
        <pt x="599" y="731" on="1"/>
        <pt x="617" y="731" on="0"/>
        <pt x="617" y="713" on="1"/>
        <pt x="617" y="200" on="1"/>
        <pt x="617" y="93" on="0"/>
        <pt x="511" y="-6" on="0"/>
        <pt x="422" y="-6" on="1"/>
        <pt x="332" y="-6" on="0"/>
        <pt x="226" y="88" on="0"/>
      </contour>
    </TTGlyph>
    <TTGlyph name="Iacute" xMin="34" yMin="0" xMax="167" yMax="953">
      <contour>
        <pt x="34" y="878" on="1"/>
        <pt x="34" y="887" on="0"/>
        <pt x="42" y="891" on="1"/>
        <pt x="144" y="951" on="1"/>
        <pt x="148" y="953" on="0"/>
        <pt x="151" y="953" on="1"/>
        <pt x="167" y="953" on="0"/>
        <pt x="167" y="935" on="1"/>
        <pt x="167" y="923" on="0"/>
        <pt x="157" y="917" on="1"/>
        <pt x="62" y="863" on="1"/>
        <pt x="58" y="860" on="0"/>
        <pt x="53" y="860" on="1"/>
        <pt x="45" y="860" on="0"/>
        <pt x="34" y="871" on="0"/>
      </contour>
      <contour>
        <pt x="83" y="18" on="1"/>
        <pt x="83" y="714" on="1"/>
        <pt x="83" y="731" on="0"/>
        <pt x="119" y="731" on="0"/>
        <pt x="119" y="714" on="1"/>
        <pt x="119" y="18" on="1"/>
        <pt x="119" y="0" on="0"/>
        <pt x="83" y="0" on="0"/>
      </contour>
    </TTGlyph>
    <TTGlyph name="Ibreve" xMin="-8" yMin="0" xMax="210" yMax="969">
      <contour>
        <pt x="-8" y="969" on="1"/>
        <pt x="24" y="969" on="1"/>
        <pt x="24" y="935" on="0"/>
        <pt x="69" y="886" on="0"/>
        <pt x="101" y="886" on="1"/>
        <pt x="132" y="886" on="0"/>
        <pt x="177" y="935" on="0"/>
        <pt x="177" y="969" on="1"/>
        <pt x="210" y="969" on="1"/>
        <pt x="210" y="925" on="0"/>
        <pt x="144" y="860" on="0"/>
        <pt x="101" y="860" on="1"/>
        <pt x="57" y="860" on="0"/>
        <pt x="-8" y="925" on="0"/>
      </contour>
      <contour>
        <pt x="83" y="18" on="1"/>
        <pt x="83" y="714" on="1"/>
        <pt x="83" y="731" on="0"/>
        <pt x="119" y="731" on="0"/>
        <pt x="119" y="714" on="1"/>
        <pt x="119" y="18" on="1"/>
        <pt x="119" y="0" on="0"/>
        <pt x="83" y="0" on="0"/>
      </contour>
    </TTGlyph>
    <TTGlyph name="Icircumflex" xMin="-29" yMin="0" xMax="231" yMax="953">
      <contour>
        <pt x="-29" y="878" on="1"/>
        <pt x="-29" y="888" on="0"/>
        <pt x="-20" y="892" on="1"/>
        <pt x="84" y="948" on="1"/>
        <pt x="92" y="953" on="0"/>
        <pt x="110" y="953" on="0"/>
        <pt x="118" y="948" on="1"/>
        <pt x="222" y="893" on="1"/>
        <pt x="231" y="888" on="0"/>
        <pt x="231" y="876" on="1"/>
        <pt x="231" y="869" on="0"/>
        <pt x="221" y="860" on="0"/>
        <pt x="214" y="860" on="1"/>
        <pt x="205" y="863" on="1"/>
        <pt x="101" y="918" on="1"/>
        <pt x="-3" y="862" on="1"/>
        <pt x="-4" y="862" on="0"/>
        <pt x="-10" y="859" on="0"/>
        <pt x="-11" y="859" on="1"/>
        <pt x="-18" y="859" on="0"/>
        <pt x="-29" y="870" on="0"/>
      </contour>
      <contour>
        <pt x="83" y="18" on="1"/>
        <pt x="83" y="714" on="1"/>
        <pt x="83" y="731" on="0"/>
        <pt x="119" y="731" on="0"/>
        <pt x="119" y="714" on="1"/>
        <pt x="119" y="18" on="1"/>
        <pt x="119" y="0" on="0"/>
        <pt x="83" y="0" on="0"/>
      </contour>
    </TTGlyph>
    <TTGlyph name="Idieresis" xMin="16" yMin="0" xMax="186" yMax="918">
      <contour>
        <pt x="16" y="876" on="0"/>
        <pt x="16" y="902" on="0"/>
        <pt x="33" y="918" on="0"/>
        <pt x="59" y="918" on="0"/>
        <pt x="75" y="902" on="0"/>
        <pt x="75" y="876" on="0"/>
        <pt x="59" y="859" on="0"/>
        <pt x="33" y="859" on="0"/>
      </contour>
      <contour>
        <pt x="83" y="18" on="1"/>
        <pt x="83" y="714" on="1"/>
        <pt x="83" y="731" on="0"/>
        <pt x="119" y="731" on="0"/>
        <pt x="119" y="714" on="1"/>
        <pt x="119" y="18" on="1"/>
        <pt x="119" y="0" on="0"/>
        <pt x="83" y="0" on="0"/>
      </contour>
      <contour>
        <pt x="127" y="876" on="0"/>
        <pt x="127" y="902" on="0"/>
        <pt x="144" y="918" on="0"/>
        <pt x="170" y="918" on="0"/>
        <pt x="186" y="902" on="0"/>
        <pt x="186" y="876" on="0"/>
        <pt x="170" y="859" on="0"/>
        <pt x="144" y="859" on="0"/>
      </contour>
    </TTGlyph>
    <TTGlyph name="Idotaccent" xMin="71" yMin="0" xMax="130" yMax="918">
      <contour>
        <pt x="71" y="876" on="0"/>
        <pt x="71" y="902" on="0"/>
        <pt x="88" y="918" on="0"/>
        <pt x="114" y="918" on="0"/>
        <pt x="130" y="902" on="0"/>
        <pt x="130" y="876" on="0"/>
        <pt x="114" y="859" on="0"/>
        <pt x="88" y="859" on="0"/>
      </contour>
      <contour>
        <pt x="83" y="18" on="1"/>
        <pt x="83" y="714" on="1"/>
        <pt x="83" y="731" on="0"/>
        <pt x="119" y="731" on="0"/>
        <pt x="119" y="714" on="1"/>
        <pt x="119" y="18" on="1"/>
        <pt x="119" y="0" on="0"/>
        <pt x="83" y="0" on="0"/>
      </contour>
    </TTGlyph>
    <TTGlyph name="Igrave" xMin="34" yMin="0" xMax="167" yMax="953">
      <contour>
        <pt x="34" y="935" on="1"/>
        <pt x="34" y="953" on="0"/>
        <pt x="50" y="953" on="1"/>
        <pt x="53" y="953" on="0"/>
        <pt x="57" y="951" on="1"/>
        <pt x="159" y="891" on="1"/>
        <pt x="167" y="887" on="0"/>
        <pt x="167" y="878" on="1"/>
        <pt x="167" y="871" on="0"/>
        <pt x="156" y="860" on="0"/>
        <pt x="148" y="860" on="1"/>
        <pt x="144" y="860" on="0"/>
        <pt x="139" y="863" on="1"/>
        <pt x="44" y="917" on="1"/>
        <pt x="34" y="923" on="0"/>
      </contour>
      <contour>
        <pt x="83" y="18" on="1"/>
        <pt x="83" y="714" on="1"/>
        <pt x="83" y="731" on="0"/>
        <pt x="119" y="731" on="0"/>
        <pt x="119" y="714" on="1"/>
        <pt x="119" y="18" on="1"/>
        <pt x="119" y="0" on="0"/>
        <pt x="83" y="0" on="0"/>
      </contour>
    </TTGlyph>
    <TTGlyph name="Imacron" xMin="-26" yMin="0" xMax="229" yMax="941">
      <contour>
        <pt x="-26" y="923" on="1"/>
        <pt x="-26" y="941" on="0"/>
        <pt x="-9" y="941" on="1"/>
        <pt x="211" y="941" on="1"/>
        <pt x="218" y="941" on="0"/>
        <pt x="229" y="930" on="0"/>
        <pt x="229" y="916" on="0"/>
        <pt x="218" y="906" on="0"/>
        <pt x="211" y="906" on="1"/>
        <pt x="-9" y="906" on="1"/>
        <pt x="-26" y="906" on="0"/>
      </contour>
      <contour>
        <pt x="83" y="18" on="1"/>
        <pt x="83" y="714" on="1"/>
        <pt x="83" y="731" on="0"/>
        <pt x="119" y="731" on="0"/>
        <pt x="119" y="714" on="1"/>
        <pt x="119" y="18" on="1"/>
        <pt x="119" y="0" on="0"/>
        <pt x="83" y="0" on="0"/>
      </contour>
    </TTGlyph>
    <TTGlyph name="Iogonek" xMin="15" yMin="-190" xMax="125" yMax="731">
      <contour>
        <pt x="15" y="-123" on="1"/>
        <pt x="15" y="-50" on="0"/>
        <pt x="84" y="17" on="1"/>
        <pt x="84" y="714" on="1"/>
        <pt x="84" y="731" on="0"/>
        <pt x="120" y="731" on="0"/>
        <pt x="120" y="714" on="1"/>
        <pt x="120" y="18" on="1"/>
        <pt x="120" y="7" on="0"/>
        <pt x="111" y="2" on="1"/>
        <pt x="44" y="-63" on="0"/>
        <pt x="44" y="-121" on="1"/>
        <pt x="44" y="-164" on="0"/>
        <pt x="107" y="-164" on="1"/>
        <pt x="125" y="-164" on="0"/>
        <pt x="125" y="-190" on="0"/>
        <pt x="102" y="-190" on="1"/>
        <pt x="68" y="-190" on="0"/>
        <pt x="15" y="-159" on="0"/>
      </contour>
    </TTGlyph>
    <TTGlyph name="Itilde" xMin="-46" yMin="0" xMax="249" yMax="949">
      <contour>
        <pt x="-46" y="897" on="1"/>
        <pt x="-46" y="916" on="0"/>
        <pt x="15" y="949" on="0"/>
        <pt x="43" y="949" on="1"/>
        <pt x="67" y="949" on="0"/>
        <pt x="144" y="912" on="0"/>
        <pt x="170" y="912" on="1"/>
        <pt x="190" y="912" on="0"/>
        <pt x="215" y="928" on="0"/>
        <pt x="229" y="944" on="0"/>
        <pt x="235" y="944" on="1"/>
        <pt x="249" y="944" on="0"/>
        <pt x="249" y="929" on="1"/>
        <pt x="249" y="908" on="0"/>
        <pt x="192" y="878" on="0"/>
        <pt x="165" y="878" on="1"/>
        <pt x="142" y="878" on="0"/>
        <pt x="65" y="915" on="0"/>
        <pt x="36" y="915" on="1"/>
        <pt x="17" y="915" on="0"/>
        <pt x="-11" y="898" on="0"/>
        <pt x="-28" y="880" on="0"/>
        <pt x="-33" y="880" on="1"/>
        <pt x="-46" y="880" on="0"/>
      </contour>
      <contour>
        <pt x="83" y="18" on="1"/>
        <pt x="83" y="714" on="1"/>
        <pt x="83" y="731" on="0"/>
        <pt x="119" y="731" on="0"/>
        <pt x="119" y="714" on="1"/>
        <pt x="119" y="18" on="1"/>
        <pt x="119" y="0" on="0"/>
        <pt x="83" y="0" on="0"/>
      </contour>
    </TTGlyph>
    <TTGlyph name="J" xMin="26" yMin="-6" xMax="417" yMax="731">
      <contour>
        <pt x="26" y="159" on="1"/>
        <pt x="26" y="179" on="0"/>
        <pt x="43" y="179" on="1"/>
        <pt x="62" y="179" on="0"/>
        <pt x="62" y="161" on="1"/>
        <pt x="62" y="97" on="0"/>
        <pt x="152" y="30" on="0"/>
        <pt x="222" y="30" on="1"/>
        <pt x="299" y="30" on="0"/>
        <pt x="381" y="115" on="0"/>
        <pt x="381" y="200" on="1"/>
        <pt x="381" y="695" on="1"/>
        <pt x="222" y="695" on="1"/>
        <pt x="205" y="695" on="0"/>
        <pt x="205" y="714" on="1"/>
        <pt x="205" y="731" on="0"/>
        <pt x="222" y="731" on="1"/>
        <pt x="399" y="731" on="1"/>
        <pt x="417" y="731" on="0"/>
        <pt x="417" y="713" on="1"/>
        <pt x="417" y="200" on="1"/>
        <pt x="417" y="93" on="0"/>
        <pt x="311" y="-6" on="0"/>
        <pt x="222" y="-6" on="1"/>
        <pt x="132" y="-6" on="0"/>
        <pt x="26" y="88" on="0"/>
      </contour>
    </TTGlyph>
    <TTGlyph name="Jcircumflex" xMin="26" yMin="-6" xMax="417" yMax="953">
      <contour>
        <pt x="26" y="159" on="1"/>
        <pt x="26" y="179" on="0"/>
        <pt x="43" y="179" on="1"/>
        <pt x="62" y="179" on="0"/>
        <pt x="62" y="161" on="1"/>
        <pt x="62" y="97" on="0"/>
        <pt x="152" y="30" on="0"/>
        <pt x="222" y="30" on="1"/>
        <pt x="299" y="30" on="0"/>
        <pt x="381" y="115" on="0"/>
        <pt x="381" y="200" on="1"/>
        <pt x="381" y="695" on="1"/>
        <pt x="222" y="695" on="1"/>
        <pt x="205" y="695" on="0"/>
        <pt x="205" y="714" on="1"/>
        <pt x="205" y="731" on="0"/>
        <pt x="222" y="731" on="1"/>
        <pt x="399" y="731" on="1"/>
        <pt x="417" y="731" on="0"/>
        <pt x="417" y="713" on="1"/>
        <pt x="417" y="200" on="1"/>
        <pt x="417" y="93" on="0"/>
        <pt x="311" y="-6" on="0"/>
        <pt x="222" y="-6" on="1"/>
        <pt x="132" y="-6" on="0"/>
        <pt x="26" y="88" on="0"/>
      </contour>
      <contour>
        <pt x="118" y="878" on="1"/>
        <pt x="118" y="888" on="0"/>
        <pt x="127" y="892" on="1"/>
        <pt x="231" y="948" on="1"/>
        <pt x="239" y="953" on="0"/>
        <pt x="257" y="953" on="0"/>
        <pt x="265" y="948" on="1"/>
        <pt x="369" y="893" on="1"/>
        <pt x="378" y="888" on="0"/>
        <pt x="378" y="876" on="1"/>
        <pt x="378" y="869" on="0"/>
        <pt x="368" y="860" on="0"/>
        <pt x="361" y="860" on="1"/>
        <pt x="352" y="863" on="1"/>
        <pt x="248" y="918" on="1"/>
        <pt x="144" y="862" on="1"/>
        <pt x="143" y="862" on="0"/>
        <pt x="137" y="859" on="0"/>
        <pt x="136" y="859" on="1"/>
        <pt x="129" y="859" on="0"/>
        <pt x="118" y="870" on="0"/>
      </contour>
    </TTGlyph>
    <TTGlyph name="K" xMin="83" yMin="0" xMax="500" yMax="731">
      <contour>
        <pt x="83" y="18" on="1"/>
        <pt x="83" y="714" on="1"/>
        <pt x="83" y="731" on="0"/>
        <pt x="119" y="731" on="0"/>
        <pt x="119" y="714" on="1"/>
        <pt x="119" y="322" on="1"/>
        <pt x="442" y="725" on="1"/>
        <pt x="446" y="731" on="0"/>
        <pt x="456" y="731" on="1"/>
        <pt x="463" y="731" on="0"/>
        <pt x="474" y="719" on="0"/>
        <pt x="474" y="712" on="1"/>
        <pt x="474" y="706" on="0"/>
        <pt x="470" y="702" on="1"/>
        <pt x="239" y="415" on="1"/>
        <pt x="497" y="27" on="1"/>
        <pt x="500" y="22" on="0"/>
        <pt x="500" y="18" on="1"/>
        <pt x="500" y="11" on="0"/>
        <pt x="489" y="0" on="0"/>
        <pt x="481" y="0" on="1"/>
        <pt x="472" y="0" on="0"/>
        <pt x="466" y="9" on="1"/>
        <pt x="215" y="385" on="1"/>
        <pt x="119" y="265" on="1"/>
        <pt x="119" y="18" on="1"/>
        <pt x="119" y="0" on="0"/>
        <pt x="83" y="0" on="0"/>
      </contour>
    </TTGlyph>
    <TTGlyph name="Kcommaaccent" xMin="83" yMin="-141" xMax="500" yMax="731">
      <contour>
        <pt x="83" y="18" on="1"/>
        <pt x="83" y="714" on="1"/>
        <pt x="83" y="731" on="0"/>
        <pt x="119" y="731" on="0"/>
        <pt x="119" y="714" on="1"/>
        <pt x="119" y="322" on="1"/>
        <pt x="442" y="725" on="1"/>
        <pt x="446" y="731" on="0"/>
        <pt x="456" y="731" on="1"/>
        <pt x="463" y="731" on="0"/>
        <pt x="474" y="719" on="0"/>
        <pt x="474" y="712" on="1"/>
        <pt x="474" y="706" on="0"/>
        <pt x="470" y="702" on="1"/>
        <pt x="239" y="415" on="1"/>
        <pt x="497" y="27" on="1"/>
        <pt x="500" y="22" on="0"/>
        <pt x="500" y="18" on="1"/>
        <pt x="500" y="11" on="0"/>
        <pt x="489" y="0" on="0"/>
        <pt x="481" y="0" on="1"/>
        <pt x="472" y="0" on="0"/>
        <pt x="466" y="9" on="1"/>
        <pt x="215" y="385" on="1"/>
        <pt x="119" y="265" on="1"/>
        <pt x="119" y="18" on="1"/>
        <pt x="119" y="0" on="0"/>
        <pt x="83" y="0" on="0"/>
      </contour>
      <contour>
        <pt x="187" y="-123" on="1"/>
        <pt x="187" y="-114" on="0"/>
        <pt x="195" y="-110" on="1"/>
        <pt x="297" y="-50" on="1"/>
        <pt x="301" y="-48" on="0"/>
        <pt x="304" y="-48" on="1"/>
        <pt x="320" y="-48" on="0"/>
        <pt x="320" y="-66" on="1"/>
        <pt x="320" y="-78" on="0"/>
        <pt x="310" y="-84" on="1"/>
        <pt x="215" y="-138" on="1"/>
        <pt x="210" y="-141" on="0"/>
        <pt x="206" y="-141" on="1"/>
        <pt x="198" y="-141" on="0"/>
        <pt x="187" y="-130" on="0"/>
      </contour>
    </TTGlyph>
    <TTGlyph name="L" xMin="83" yMin="0" xMax="438" yMax="731">
      <contour>
        <pt x="83" y="18" on="1"/>
        <pt x="83" y="714" on="1"/>
        <pt x="83" y="731" on="0"/>
        <pt x="119" y="731" on="0"/>
        <pt x="119" y="714" on="1"/>
        <pt x="119" y="36" on="1"/>
        <pt x="423" y="36" on="1"/>
        <pt x="438" y="36" on="0"/>
        <pt x="438" y="0" on="0"/>
        <pt x="423" y="0" on="1"/>
        <pt x="101" y="0" on="1"/>
        <pt x="83" y="0" on="0"/>
      </contour>
    </TTGlyph>
    <TTGlyph name="Lacute" xMin="83" yMin="0" xMax="438" yMax="953">
      <contour>
        <pt x="83" y="18" on="1"/>
        <pt x="83" y="714" on="1"/>
        <pt x="83" y="731" on="0"/>
        <pt x="119" y="731" on="0"/>
        <pt x="119" y="714" on="1"/>
        <pt x="119" y="36" on="1"/>
        <pt x="423" y="36" on="1"/>
        <pt x="438" y="36" on="0"/>
        <pt x="438" y="0" on="0"/>
        <pt x="423" y="0" on="1"/>
        <pt x="101" y="0" on="1"/>
        <pt x="83" y="0" on="0"/>
      </contour>
      <contour>
        <pt x="194" y="878" on="1"/>
        <pt x="194" y="887" on="0"/>
        <pt x="202" y="891" on="1"/>
        <pt x="304" y="951" on="1"/>
        <pt x="308" y="953" on="0"/>
        <pt x="311" y="953" on="1"/>
        <pt x="327" y="953" on="0"/>
        <pt x="327" y="935" on="1"/>
        <pt x="327" y="923" on="0"/>
        <pt x="317" y="917" on="1"/>
        <pt x="222" y="863" on="1"/>
        <pt x="218" y="860" on="0"/>
        <pt x="213" y="860" on="1"/>
        <pt x="205" y="860" on="0"/>
        <pt x="194" y="871" on="0"/>
      </contour>
    </TTGlyph>
    <TTGlyph name="Lcaron" xMin="83" yMin="0" xMax="438" yMax="741">
      <contour>
        <pt x="83" y="18" on="1"/>
        <pt x="83" y="714" on="1"/>
        <pt x="83" y="731" on="0"/>
        <pt x="119" y="731" on="0"/>
        <pt x="119" y="714" on="1"/>
        <pt x="119" y="36" on="1"/>
        <pt x="423" y="36" on="1"/>
        <pt x="438" y="36" on="0"/>
        <pt x="438" y="0" on="0"/>
        <pt x="423" y="0" on="1"/>
        <pt x="101" y="0" on="1"/>
        <pt x="83" y="0" on="0"/>
      </contour>
      <contour>
        <pt x="288" y="705" on="1"/>
        <pt x="288" y="720" on="0"/>
        <pt x="308" y="741" on="0"/>
        <pt x="324" y="741" on="1"/>
        <pt x="338" y="741" on="0"/>
        <pt x="359" y="720" on="0"/>
        <pt x="359" y="705" on="1"/>
        <pt x="359" y="674" on="0"/>
        <pt x="326" y="608" on="1"/>
        <pt x="321" y="598" on="0"/>
        <pt x="312" y="598" on="1"/>
        <pt x="296" y="598" on="0"/>
        <pt x="296" y="613" on="1"/>
        <pt x="296" y="617" on="0"/>
        <pt x="297" y="619" on="1"/>
        <pt x="315" y="670" on="1"/>
        <pt x="288" y="677" on="0"/>
      </contour>
    </TTGlyph>
    <TTGlyph name="Lcommaaccent" xMin="83" yMin="-141" xMax="438" yMax="731">
      <contour>
        <pt x="83" y="18" on="1"/>
        <pt x="83" y="714" on="1"/>
        <pt x="83" y="731" on="0"/>
        <pt x="119" y="731" on="0"/>
        <pt x="119" y="714" on="1"/>
        <pt x="119" y="36" on="1"/>
        <pt x="423" y="36" on="1"/>
        <pt x="438" y="36" on="0"/>
        <pt x="438" y="0" on="0"/>
        <pt x="423" y="0" on="1"/>
        <pt x="101" y="0" on="1"/>
        <pt x="83" y="0" on="0"/>
      </contour>
      <contour>
        <pt x="186" y="-123" on="1"/>
        <pt x="186" y="-114" on="0"/>
        <pt x="194" y="-110" on="1"/>
        <pt x="296" y="-50" on="1"/>
        <pt x="300" y="-48" on="0"/>
        <pt x="303" y="-48" on="1"/>
        <pt x="319" y="-48" on="0"/>
        <pt x="319" y="-66" on="1"/>
        <pt x="319" y="-78" on="0"/>
        <pt x="309" y="-84" on="1"/>
        <pt x="214" y="-138" on="1"/>
        <pt x="210" y="-141" on="0"/>
        <pt x="205" y="-141" on="1"/>
        <pt x="197" y="-141" on="0"/>
        <pt x="186" y="-130" on="0"/>
      </contour>
    </TTGlyph>
    <TTGlyph name="Ldot" xMin="83" yMin="0" xMax="438" yMax="731">
      <contour>
        <pt x="83" y="18" on="1"/>
        <pt x="83" y="714" on="1"/>
        <pt x="83" y="731" on="0"/>
        <pt x="119" y="731" on="0"/>
        <pt x="119" y="714" on="1"/>
        <pt x="119" y="36" on="1"/>
        <pt x="423" y="36" on="1"/>
        <pt x="438" y="36" on="0"/>
        <pt x="438" y="0" on="0"/>
        <pt x="423" y="0" on="1"/>
        <pt x="101" y="0" on="1"/>
        <pt x="83" y="0" on="0"/>
      </contour>
      <contour>
        <pt x="286" y="406" on="0"/>
        <pt x="286" y="436" on="0"/>
        <pt x="306" y="457" on="0"/>
        <pt x="322" y="457" on="1"/>
        <pt x="336" y="457" on="0"/>
        <pt x="357" y="436" on="0"/>
        <pt x="357" y="421" on="1"/>
        <pt x="357" y="407" on="0"/>
        <pt x="336" y="385" on="0"/>
        <pt x="322" y="385" on="1"/>
        <pt x="307" y="385" on="0"/>
      </contour>
    </TTGlyph>
    <TTGlyph name="Lslash" xMin="6" yMin="0" xMax="444" yMax="731">
      <contour>
        <pt x="6" y="286" on="1"/>
        <pt x="6" y="296" on="0"/>
        <pt x="15" y="300" on="1"/>
        <pt x="89" y="343" on="1"/>
        <pt x="89" y="714" on="1"/>
        <pt x="89" y="731" on="0"/>
        <pt x="125" y="731" on="0"/>
        <pt x="125" y="714" on="1"/>
        <pt x="125" y="363" on="1"/>
        <pt x="240" y="430" on="1"/>
        <pt x="243" y="432" on="0"/>
        <pt x="249" y="432" on="1"/>
        <pt x="256" y="432" on="0"/>
        <pt x="266" y="423" on="0"/>
        <pt x="266" y="416" on="1"/>
        <pt x="266" y="405" on="0"/>
        <pt x="257" y="400" on="1"/>
        <pt x="125" y="324" on="1"/>
        <pt x="125" y="36" on="1"/>
        <pt x="429" y="36" on="1"/>
        <pt x="444" y="36" on="0"/>
        <pt x="444" y="0" on="0"/>
        <pt x="429" y="0" on="1"/>
        <pt x="107" y="0" on="1"/>
        <pt x="89" y="0" on="0"/>
        <pt x="89" y="18" on="1"/>
        <pt x="89" y="303" on="1"/>
        <pt x="32" y="270" on="1"/>
        <pt x="28" y="267" on="0"/>
        <pt x="23" y="267" on="1"/>
        <pt x="17" y="267" on="0"/>
        <pt x="6" y="279" on="0"/>
      </contour>
    </TTGlyph>
    <TTGlyph name="M" xMin="83" yMin="0" xMax="570" yMax="731">
      <contour>
        <pt x="83" y="18" on="1"/>
        <pt x="83" y="714" on="1"/>
        <pt x="83" y="731" on="0"/>
        <pt x="101" y="731" on="1"/>
        <pt x="112" y="731" on="0"/>
        <pt x="132" y="695" on="1"/>
        <pt x="326" y="313" on="1"/>
        <pt x="521" y="695" on="1"/>
        <pt x="541" y="731" on="0"/>
        <pt x="552" y="731" on="1"/>
        <pt x="570" y="731" on="0"/>
        <pt x="570" y="714" on="1"/>
        <pt x="570" y="18" on="1"/>
        <pt x="570" y="0" on="0"/>
        <pt x="534" y="0" on="0"/>
        <pt x="534" y="18" on="1"/>
        <pt x="534" y="643" on="1"/>
        <pt x="345" y="279" on="1"/>
        <pt x="335" y="260" on="0"/>
        <pt x="326" y="260" on="1"/>
        <pt x="316" y="260" on="0"/>
        <pt x="307" y="279" on="1"/>
        <pt x="119" y="643" on="1"/>
        <pt x="119" y="18" on="1"/>
        <pt x="119" y="0" on="0"/>
        <pt x="83" y="0" on="0"/>
      </contour>
    </TTGlyph>
    <TTGlyph name="N" xMin="83" yMin="0" xMax="474" yMax="731">
      <contour>
        <pt x="83" y="18" on="1"/>
        <pt x="83" y="714" on="1"/>
        <pt x="83" y="731" on="0"/>
        <pt x="101" y="731" on="1"/>
        <pt x="112" y="731" on="0"/>
        <pt x="132" y="695" on="1"/>
        <pt x="438" y="89" on="1"/>
        <pt x="438" y="714" on="1"/>
        <pt x="438" y="731" on="0"/>
        <pt x="474" y="731" on="0"/>
        <pt x="474" y="714" on="1"/>
        <pt x="474" y="18" on="1"/>
        <pt x="474" y="0" on="0"/>
        <pt x="456" y="0" on="1"/>
        <pt x="445" y="0" on="0"/>
        <pt x="427" y="36" on="1"/>
        <pt x="119" y="643" on="1"/>
        <pt x="119" y="18" on="1"/>
        <pt x="119" y="0" on="0"/>
        <pt x="83" y="0" on="0"/>
      </contour>
    </TTGlyph>
    <TTGlyph name="Nacute" xMin="83" yMin="0" xMax="474" yMax="953">
      <contour>
        <pt x="83" y="18" on="1"/>
        <pt x="83" y="714" on="1"/>
        <pt x="83" y="731" on="0"/>
        <pt x="101" y="731" on="1"/>
        <pt x="112" y="731" on="0"/>
        <pt x="132" y="695" on="1"/>
        <pt x="438" y="89" on="1"/>
        <pt x="438" y="714" on="1"/>
        <pt x="438" y="731" on="0"/>
        <pt x="474" y="731" on="0"/>
        <pt x="474" y="714" on="1"/>
        <pt x="474" y="18" on="1"/>
        <pt x="474" y="0" on="0"/>
        <pt x="456" y="0" on="1"/>
        <pt x="445" y="0" on="0"/>
        <pt x="427" y="36" on="1"/>
        <pt x="119" y="643" on="1"/>
        <pt x="119" y="18" on="1"/>
        <pt x="119" y="0" on="0"/>
        <pt x="83" y="0" on="0"/>
      </contour>
      <contour>
        <pt x="212" y="878" on="1"/>
        <pt x="212" y="887" on="0"/>
        <pt x="220" y="891" on="1"/>
        <pt x="322" y="951" on="1"/>
        <pt x="326" y="953" on="0"/>
        <pt x="329" y="953" on="1"/>
        <pt x="345" y="953" on="0"/>
        <pt x="345" y="935" on="1"/>
        <pt x="345" y="923" on="0"/>
        <pt x="335" y="917" on="1"/>
        <pt x="240" y="863" on="1"/>
        <pt x="236" y="860" on="0"/>
        <pt x="231" y="860" on="1"/>
        <pt x="223" y="860" on="0"/>
        <pt x="212" y="871" on="0"/>
      </contour>
    </TTGlyph>
    <TTGlyph name="Ncaron" xMin="83" yMin="0" xMax="474" yMax="990">
      <contour>
        <pt x="83" y="18" on="1"/>
        <pt x="83" y="714" on="1"/>
        <pt x="83" y="731" on="0"/>
        <pt x="101" y="731" on="1"/>
        <pt x="112" y="731" on="0"/>
        <pt x="132" y="695" on="1"/>
        <pt x="438" y="89" on="1"/>
        <pt x="438" y="714" on="1"/>
        <pt x="438" y="731" on="0"/>
        <pt x="474" y="731" on="0"/>
        <pt x="474" y="714" on="1"/>
        <pt x="474" y="18" on="1"/>
        <pt x="474" y="0" on="0"/>
        <pt x="456" y="0" on="1"/>
        <pt x="445" y="0" on="0"/>
        <pt x="427" y="36" on="1"/>
        <pt x="119" y="643" on="1"/>
        <pt x="119" y="18" on="1"/>
        <pt x="119" y="0" on="0"/>
        <pt x="83" y="0" on="0"/>
      </contour>
      <contour>
        <pt x="148" y="969" on="0"/>
        <pt x="148" y="981" on="0"/>
        <pt x="157" y="990" on="0"/>
        <pt x="163" y="990" on="1"/>
        <pt x="172" y="990" on="0"/>
        <pt x="179" y="982" on="1"/>
        <pt x="277" y="879" on="1"/>
        <pt x="375" y="982" on="1"/>
        <pt x="382" y="990" on="0"/>
        <pt x="391" y="990" on="1"/>
        <pt x="397" y="990" on="0"/>
        <pt x="406" y="981" on="0"/>
        <pt x="406" y="969" on="0"/>
        <pt x="398" y="959" on="1"/>
        <pt x="298" y="858" on="1"/>
        <pt x="287" y="847" on="0"/>
        <pt x="277" y="847" on="1"/>
        <pt x="265" y="847" on="0"/>
        <pt x="256" y="858" on="1"/>
        <pt x="156" y="959" on="1"/>
      </contour>
    </TTGlyph>
    <TTGlyph name="Ncommaaccent" xMin="83" yMin="-141" xMax="474" yMax="731">
      <contour>
        <pt x="83" y="18" on="1"/>
        <pt x="83" y="714" on="1"/>
        <pt x="83" y="731" on="0"/>
        <pt x="101" y="731" on="1"/>
        <pt x="112" y="731" on="0"/>
        <pt x="132" y="695" on="1"/>
        <pt x="438" y="89" on="1"/>
        <pt x="438" y="714" on="1"/>
        <pt x="438" y="731" on="0"/>
        <pt x="474" y="731" on="0"/>
        <pt x="474" y="714" on="1"/>
        <pt x="474" y="18" on="1"/>
        <pt x="474" y="0" on="0"/>
        <pt x="456" y="0" on="1"/>
        <pt x="445" y="0" on="0"/>
        <pt x="427" y="36" on="1"/>
        <pt x="119" y="643" on="1"/>
        <pt x="119" y="18" on="1"/>
        <pt x="119" y="0" on="0"/>
        <pt x="83" y="0" on="0"/>
      </contour>
      <contour>
        <pt x="209" y="-123" on="1"/>
        <pt x="209" y="-114" on="0"/>
        <pt x="217" y="-110" on="1"/>
        <pt x="319" y="-50" on="1"/>
        <pt x="323" y="-48" on="0"/>
        <pt x="326" y="-48" on="1"/>
        <pt x="342" y="-48" on="0"/>
        <pt x="342" y="-66" on="1"/>
        <pt x="342" y="-78" on="0"/>
        <pt x="332" y="-84" on="1"/>
        <pt x="237" y="-138" on="1"/>
        <pt x="232" y="-141" on="0"/>
        <pt x="228" y="-141" on="1"/>
        <pt x="220" y="-141" on="0"/>
        <pt x="209" y="-130" on="0"/>
      </contour>
    </TTGlyph>
    <TTGlyph name="Ntilde" xMin="83" yMin="0" xMax="474" yMax="949">
      <contour>
        <pt x="83" y="18" on="1"/>
        <pt x="83" y="714" on="1"/>
        <pt x="83" y="731" on="0"/>
        <pt x="101" y="731" on="1"/>
        <pt x="112" y="731" on="0"/>
        <pt x="132" y="695" on="1"/>
        <pt x="438" y="89" on="1"/>
        <pt x="438" y="714" on="1"/>
        <pt x="438" y="731" on="0"/>
        <pt x="474" y="731" on="0"/>
        <pt x="474" y="714" on="1"/>
        <pt x="474" y="18" on="1"/>
        <pt x="474" y="0" on="0"/>
        <pt x="456" y="0" on="1"/>
        <pt x="445" y="0" on="0"/>
        <pt x="427" y="36" on="1"/>
        <pt x="119" y="643" on="1"/>
        <pt x="119" y="18" on="1"/>
        <pt x="119" y="0" on="0"/>
        <pt x="83" y="0" on="0"/>
      </contour>
      <contour>
        <pt x="131" y="897" on="1"/>
        <pt x="131" y="916" on="0"/>
        <pt x="192" y="949" on="0"/>
        <pt x="220" y="949" on="1"/>
        <pt x="244" y="949" on="0"/>
        <pt x="321" y="912" on="0"/>
        <pt x="347" y="912" on="1"/>
        <pt x="367" y="912" on="0"/>
        <pt x="392" y="928" on="0"/>
        <pt x="406" y="944" on="0"/>
        <pt x="412" y="944" on="1"/>
        <pt x="426" y="944" on="0"/>
        <pt x="426" y="929" on="1"/>
        <pt x="426" y="908" on="0"/>
        <pt x="369" y="878" on="0"/>
        <pt x="342" y="878" on="1"/>
        <pt x="319" y="878" on="0"/>
        <pt x="242" y="915" on="0"/>
        <pt x="213" y="915" on="1"/>
        <pt x="194" y="915" on="0"/>
        <pt x="166" y="898" on="0"/>
        <pt x="149" y="880" on="0"/>
        <pt x="144" y="880" on="1"/>
        <pt x="131" y="880" on="0"/>
      </contour>
    </TTGlyph>
    <TTGlyph name="O" xMin="76" yMin="-6" xMax="467" yMax="731">
      <contour>
        <pt x="76" y="200" on="1"/>
        <pt x="76" y="525" on="1"/>
        <pt x="76" y="632" on="0"/>
        <pt x="182" y="731" on="0"/>
        <pt x="360" y="731" on="0"/>
        <pt x="467" y="632" on="0"/>
        <pt x="467" y="525" on="1"/>
        <pt x="467" y="200" on="1"/>
        <pt x="467" y="93" on="0"/>
        <pt x="360" y="-6" on="0"/>
        <pt x="182" y="-6" on="0"/>
        <pt x="76" y="93" on="0"/>
      </contour>
      <contour>
        <pt x="112" y="200" on="1"/>
        <pt x="112" y="115" on="0"/>
        <pt x="194" y="30" on="0"/>
        <pt x="348" y="30" on="0"/>
        <pt x="431" y="115" on="0"/>
        <pt x="431" y="200" on="1"/>
        <pt x="431" y="525" on="1"/>
        <pt x="431" y="610" on="0"/>
        <pt x="348" y="695" on="0"/>
        <pt x="194" y="695" on="0"/>
        <pt x="112" y="610" on="0"/>
        <pt x="112" y="525" on="1"/>
      </contour>
    </TTGlyph>
    <TTGlyph name="OE" xMin="76" yMin="-6" xMax="821" yMax="731">
      <contour>
        <pt x="76" y="200" on="1"/>
        <pt x="76" y="525" on="1"/>
        <pt x="76" y="632" on="0"/>
        <pt x="182" y="731" on="0"/>
        <pt x="271" y="731" on="1"/>
        <pt x="383" y="731" on="0"/>
        <pt x="432" y="659" on="1"/>
        <pt x="432" y="713" on="1"/>
        <pt x="432" y="731" on="0"/>
        <pt x="450" y="731" on="1"/>
        <pt x="804" y="731" on="1"/>
        <pt x="821" y="731" on="0"/>
        <pt x="821" y="714" on="1"/>
        <pt x="821" y="695" on="0"/>
        <pt x="804" y="695" on="1"/>
        <pt x="466" y="695" on="1"/>
        <pt x="466" y="384" on="1"/>
        <pt x="626" y="384" on="1"/>
        <pt x="643" y="384" on="0"/>
        <pt x="643" y="365" on="1"/>
        <pt x="643" y="348" on="0"/>
        <pt x="626" y="348" on="1"/>
        <pt x="466" y="348" on="1"/>
        <pt x="466" y="36" on="1"/>
        <pt x="804" y="36" on="1"/>
        <pt x="821" y="36" on="0"/>
        <pt x="821" y="17" on="1"/>
        <pt x="821" y="0" on="0"/>
        <pt x="804" y="0" on="1"/>
        <pt x="450" y="0" on="1"/>
        <pt x="432" y="0" on="0"/>
        <pt x="432" y="18" on="1"/>
        <pt x="432" y="66" on="1"/>
        <pt x="383" y="-6" on="0"/>
        <pt x="271" y="-6" on="1"/>
        <pt x="182" y="-6" on="0"/>
        <pt x="76" y="93" on="0"/>
      </contour>
      <contour>
        <pt x="112" y="200" on="1"/>
        <pt x="112" y="115" on="0"/>
        <pt x="194" y="30" on="0"/>
        <pt x="348" y="30" on="0"/>
        <pt x="431" y="115" on="0"/>
        <pt x="431" y="200" on="1"/>
        <pt x="431" y="525" on="1"/>
        <pt x="431" y="610" on="0"/>
        <pt x="348" y="695" on="0"/>
        <pt x="194" y="695" on="0"/>
        <pt x="112" y="610" on="0"/>
        <pt x="112" y="525" on="1"/>
      </contour>
    </TTGlyph>
    <TTGlyph name="Oacute" xMin="76" yMin="-6" xMax="467" yMax="953">
      <contour>
        <pt x="76" y="200" on="1"/>
        <pt x="76" y="525" on="1"/>
        <pt x="76" y="632" on="0"/>
        <pt x="182" y="731" on="0"/>
        <pt x="360" y="731" on="0"/>
        <pt x="467" y="632" on="0"/>
        <pt x="467" y="525" on="1"/>
        <pt x="467" y="200" on="1"/>
        <pt x="467" y="93" on="0"/>
        <pt x="360" y="-6" on="0"/>
        <pt x="182" y="-6" on="0"/>
        <pt x="76" y="93" on="0"/>
      </contour>
      <contour>
        <pt x="112" y="200" on="1"/>
        <pt x="112" y="115" on="0"/>
        <pt x="194" y="30" on="0"/>
        <pt x="348" y="30" on="0"/>
        <pt x="431" y="115" on="0"/>
        <pt x="431" y="200" on="1"/>
        <pt x="431" y="525" on="1"/>
        <pt x="431" y="610" on="0"/>
        <pt x="348" y="695" on="0"/>
        <pt x="194" y="695" on="0"/>
        <pt x="112" y="610" on="0"/>
        <pt x="112" y="525" on="1"/>
      </contour>
      <contour>
        <pt x="205" y="878" on="1"/>
        <pt x="205" y="887" on="0"/>
        <pt x="213" y="891" on="1"/>
        <pt x="315" y="951" on="1"/>
        <pt x="319" y="953" on="0"/>
        <pt x="322" y="953" on="1"/>
        <pt x="338" y="953" on="0"/>
        <pt x="338" y="935" on="1"/>
        <pt x="338" y="923" on="0"/>
        <pt x="328" y="917" on="1"/>
        <pt x="233" y="863" on="1"/>
        <pt x="228" y="860" on="0"/>
        <pt x="224" y="860" on="1"/>
        <pt x="216" y="860" on="0"/>
        <pt x="205" y="871" on="0"/>
      </contour>
    </TTGlyph>
    <TTGlyph name="Obreve" xMin="76" yMin="-6" xMax="467" yMax="969">
      <contour>
        <pt x="76" y="200" on="1"/>
        <pt x="76" y="525" on="1"/>
        <pt x="76" y="632" on="0"/>
        <pt x="182" y="731" on="0"/>
        <pt x="360" y="731" on="0"/>
        <pt x="467" y="632" on="0"/>
        <pt x="467" y="525" on="1"/>
        <pt x="467" y="200" on="1"/>
        <pt x="467" y="93" on="0"/>
        <pt x="360" y="-6" on="0"/>
        <pt x="182" y="-6" on="0"/>
        <pt x="76" y="93" on="0"/>
      </contour>
      <contour>
        <pt x="112" y="200" on="1"/>
        <pt x="112" y="115" on="0"/>
        <pt x="194" y="30" on="0"/>
        <pt x="348" y="30" on="0"/>
        <pt x="431" y="115" on="0"/>
        <pt x="431" y="200" on="1"/>
        <pt x="431" y="525" on="1"/>
        <pt x="431" y="610" on="0"/>
        <pt x="348" y="695" on="0"/>
        <pt x="194" y="695" on="0"/>
        <pt x="112" y="610" on="0"/>
        <pt x="112" y="525" on="1"/>
      </contour>
      <contour>
        <pt x="162" y="969" on="1"/>
        <pt x="194" y="969" on="1"/>
        <pt x="194" y="935" on="0"/>
        <pt x="239" y="886" on="0"/>
        <pt x="271" y="886" on="1"/>
        <pt x="302" y="886" on="0"/>
        <pt x="347" y="935" on="0"/>
        <pt x="347" y="969" on="1"/>
        <pt x="380" y="969" on="1"/>
        <pt x="380" y="925" on="0"/>
        <pt x="314" y="860" on="0"/>
        <pt x="271" y="860" on="1"/>
        <pt x="227" y="860" on="0"/>
        <pt x="162" y="925" on="0"/>
      </contour>
    </TTGlyph>
    <TTGlyph name="Ocircumflex" xMin="76" yMin="-6" xMax="467" yMax="953">
      <contour>
        <pt x="76" y="200" on="1"/>
        <pt x="76" y="525" on="1"/>
        <pt x="76" y="632" on="0"/>
        <pt x="182" y="731" on="0"/>
        <pt x="360" y="731" on="0"/>
        <pt x="467" y="632" on="0"/>
        <pt x="467" y="525" on="1"/>
        <pt x="467" y="200" on="1"/>
        <pt x="467" y="93" on="0"/>
        <pt x="360" y="-6" on="0"/>
        <pt x="182" y="-6" on="0"/>
        <pt x="76" y="93" on="0"/>
      </contour>
      <contour>
        <pt x="112" y="200" on="1"/>
        <pt x="112" y="115" on="0"/>
        <pt x="194" y="30" on="0"/>
        <pt x="348" y="30" on="0"/>
        <pt x="431" y="115" on="0"/>
        <pt x="431" y="200" on="1"/>
        <pt x="431" y="525" on="1"/>
        <pt x="431" y="610" on="0"/>
        <pt x="348" y="695" on="0"/>
        <pt x="194" y="695" on="0"/>
        <pt x="112" y="610" on="0"/>
        <pt x="112" y="525" on="1"/>
      </contour>
      <contour>
        <pt x="141" y="878" on="1"/>
        <pt x="141" y="888" on="0"/>
        <pt x="150" y="892" on="1"/>
        <pt x="254" y="948" on="1"/>
        <pt x="262" y="953" on="0"/>
        <pt x="280" y="953" on="0"/>
        <pt x="288" y="948" on="1"/>
        <pt x="392" y="893" on="1"/>
        <pt x="401" y="888" on="0"/>
        <pt x="401" y="876" on="1"/>
        <pt x="401" y="869" on="0"/>
        <pt x="391" y="860" on="0"/>
        <pt x="384" y="860" on="1"/>
        <pt x="375" y="863" on="1"/>
        <pt x="271" y="918" on="1"/>
        <pt x="167" y="862" on="1"/>
        <pt x="166" y="862" on="0"/>
        <pt x="160" y="859" on="0"/>
        <pt x="159" y="859" on="1"/>
        <pt x="152" y="859" on="0"/>
        <pt x="141" y="870" on="0"/>
      </contour>
    </TTGlyph>
    <TTGlyph name="Odieresis" xMin="76" yMin="-6" xMax="467" yMax="918">
      <contour>
        <pt x="76" y="200" on="1"/>
        <pt x="76" y="525" on="1"/>
        <pt x="76" y="632" on="0"/>
        <pt x="182" y="731" on="0"/>
        <pt x="360" y="731" on="0"/>
        <pt x="467" y="632" on="0"/>
        <pt x="467" y="525" on="1"/>
        <pt x="467" y="200" on="1"/>
        <pt x="467" y="93" on="0"/>
        <pt x="360" y="-6" on="0"/>
        <pt x="182" y="-6" on="0"/>
        <pt x="76" y="93" on="0"/>
      </contour>
      <contour>
        <pt x="112" y="200" on="1"/>
        <pt x="112" y="115" on="0"/>
        <pt x="194" y="30" on="0"/>
        <pt x="348" y="30" on="0"/>
        <pt x="431" y="115" on="0"/>
        <pt x="431" y="200" on="1"/>
        <pt x="431" y="525" on="1"/>
        <pt x="431" y="610" on="0"/>
        <pt x="348" y="695" on="0"/>
        <pt x="194" y="695" on="0"/>
        <pt x="112" y="610" on="0"/>
        <pt x="112" y="525" on="1"/>
      </contour>
      <contour>
        <pt x="186" y="876" on="0"/>
        <pt x="186" y="902" on="0"/>
        <pt x="203" y="918" on="0"/>
        <pt x="229" y="918" on="0"/>
        <pt x="245" y="902" on="0"/>
        <pt x="245" y="876" on="0"/>
        <pt x="229" y="859" on="0"/>
        <pt x="203" y="859" on="0"/>
      </contour>
      <contour>
        <pt x="297" y="876" on="0"/>
        <pt x="297" y="902" on="0"/>
        <pt x="314" y="918" on="0"/>
        <pt x="340" y="918" on="0"/>
        <pt x="356" y="902" on="0"/>
        <pt x="356" y="876" on="0"/>
        <pt x="340" y="859" on="0"/>
        <pt x="314" y="859" on="0"/>
      </contour>
    </TTGlyph>
    <TTGlyph name="Ograve" xMin="76" yMin="-6" xMax="467" yMax="953">
      <contour>
        <pt x="76" y="200" on="1"/>
        <pt x="76" y="525" on="1"/>
        <pt x="76" y="632" on="0"/>
        <pt x="182" y="731" on="0"/>
        <pt x="360" y="731" on="0"/>
        <pt x="467" y="632" on="0"/>
        <pt x="467" y="525" on="1"/>
        <pt x="467" y="200" on="1"/>
        <pt x="467" y="93" on="0"/>
        <pt x="360" y="-6" on="0"/>
        <pt x="182" y="-6" on="0"/>
        <pt x="76" y="93" on="0"/>
      </contour>
      <contour>
        <pt x="112" y="200" on="1"/>
        <pt x="112" y="115" on="0"/>
        <pt x="194" y="30" on="0"/>
        <pt x="348" y="30" on="0"/>
        <pt x="431" y="115" on="0"/>
        <pt x="431" y="200" on="1"/>
        <pt x="431" y="525" on="1"/>
        <pt x="431" y="610" on="0"/>
        <pt x="348" y="695" on="0"/>
        <pt x="194" y="695" on="0"/>
        <pt x="112" y="610" on="0"/>
        <pt x="112" y="525" on="1"/>
      </contour>
      <contour>
        <pt x="205" y="935" on="1"/>
        <pt x="205" y="953" on="0"/>
        <pt x="221" y="953" on="1"/>
        <pt x="224" y="953" on="0"/>
        <pt x="228" y="951" on="1"/>
        <pt x="330" y="891" on="1"/>
        <pt x="338" y="887" on="0"/>
        <pt x="338" y="878" on="1"/>
        <pt x="338" y="871" on="0"/>
        <pt x="327" y="860" on="0"/>
        <pt x="319" y="860" on="1"/>
        <pt x="314" y="860" on="0"/>
        <pt x="310" y="863" on="1"/>
        <pt x="215" y="917" on="1"/>
        <pt x="205" y="923" on="0"/>
      </contour>
    </TTGlyph>
    <TTGlyph name="Ohungarumlaut" xMin="76" yMin="-6" xMax="467" yMax="953">
      <contour>
        <pt x="76" y="200" on="1"/>
        <pt x="76" y="525" on="1"/>
        <pt x="76" y="632" on="0"/>
        <pt x="182" y="731" on="0"/>
        <pt x="360" y="731" on="0"/>
        <pt x="467" y="632" on="0"/>
        <pt x="467" y="525" on="1"/>
        <pt x="467" y="200" on="1"/>
        <pt x="467" y="93" on="0"/>
        <pt x="360" y="-6" on="0"/>
        <pt x="182" y="-6" on="0"/>
        <pt x="76" y="93" on="0"/>
      </contour>
      <contour>
        <pt x="112" y="200" on="1"/>
        <pt x="112" y="115" on="0"/>
        <pt x="194" y="30" on="0"/>
        <pt x="348" y="30" on="0"/>
        <pt x="431" y="115" on="0"/>
        <pt x="431" y="200" on="1"/>
        <pt x="431" y="525" on="1"/>
        <pt x="431" y="610" on="0"/>
        <pt x="348" y="695" on="0"/>
        <pt x="194" y="695" on="0"/>
        <pt x="112" y="610" on="0"/>
        <pt x="112" y="525" on="1"/>
      </contour>
      <contour>
        <pt x="171" y="878" on="1"/>
        <pt x="171" y="887" on="0"/>
        <pt x="179" y="891" on="1"/>
        <pt x="281" y="951" on="1"/>
        <pt x="285" y="953" on="0"/>
        <pt x="288" y="953" on="1"/>
        <pt x="304" y="953" on="0"/>
        <pt x="304" y="935" on="1"/>
        <pt x="304" y="923" on="0"/>
        <pt x="294" y="917" on="1"/>
        <pt x="199" y="863" on="1"/>
        <pt x="194" y="860" on="0"/>
        <pt x="190" y="860" on="1"/>
        <pt x="182" y="860" on="0"/>
        <pt x="171" y="871" on="0"/>
      </contour>
      <contour>
        <pt x="318" y="878" on="1"/>
        <pt x="318" y="887" on="0"/>
        <pt x="326" y="891" on="1"/>
        <pt x="428" y="951" on="1"/>
        <pt x="432" y="953" on="0"/>
        <pt x="435" y="953" on="1"/>
        <pt x="451" y="953" on="0"/>
        <pt x="451" y="935" on="1"/>
        <pt x="451" y="923" on="0"/>
        <pt x="441" y="917" on="1"/>
        <pt x="346" y="863" on="1"/>
        <pt x="342" y="860" on="0"/>
        <pt x="337" y="860" on="1"/>
        <pt x="329" y="860" on="0"/>
        <pt x="318" y="871" on="0"/>
      </contour>
    </TTGlyph>
    <TTGlyph name="Omacron" xMin="76" yMin="-6" xMax="467" yMax="941">
      <contour>
        <pt x="76" y="200" on="1"/>
        <pt x="76" y="525" on="1"/>
        <pt x="76" y="632" on="0"/>
        <pt x="182" y="731" on="0"/>
        <pt x="360" y="731" on="0"/>
        <pt x="467" y="632" on="0"/>
        <pt x="467" y="525" on="1"/>
        <pt x="467" y="200" on="1"/>
        <pt x="467" y="93" on="0"/>
        <pt x="360" y="-6" on="0"/>
        <pt x="182" y="-6" on="0"/>
        <pt x="76" y="93" on="0"/>
      </contour>
      <contour>
        <pt x="112" y="200" on="1"/>
        <pt x="112" y="115" on="0"/>
        <pt x="194" y="30" on="0"/>
        <pt x="348" y="30" on="0"/>
        <pt x="431" y="115" on="0"/>
        <pt x="431" y="200" on="1"/>
        <pt x="431" y="525" on="1"/>
        <pt x="431" y="610" on="0"/>
        <pt x="348" y="695" on="0"/>
        <pt x="194" y="695" on="0"/>
        <pt x="112" y="610" on="0"/>
        <pt x="112" y="525" on="1"/>
      </contour>
      <contour>
        <pt x="144" y="923" on="1"/>
        <pt x="144" y="941" on="0"/>
        <pt x="161" y="941" on="1"/>
        <pt x="381" y="941" on="1"/>
        <pt x="388" y="941" on="0"/>
        <pt x="399" y="930" on="0"/>
        <pt x="399" y="916" on="0"/>
        <pt x="388" y="906" on="0"/>
        <pt x="381" y="906" on="1"/>
        <pt x="161" y="906" on="1"/>
        <pt x="144" y="906" on="0"/>
      </contour>
    </TTGlyph>
    <TTGlyph name="Oslash" xMin="59" yMin="-20" xMax="483" yMax="768">
      <contour>
        <pt x="59" y="-5" on="1"/>
        <pt x="59" y="1" on="0"/>
        <pt x="61" y="4" on="1"/>
        <pt x="101" y="81" on="1"/>
        <pt x="76" y="129" on="0"/>
        <pt x="76" y="200" on="1"/>
        <pt x="76" y="525" on="1"/>
        <pt x="76" y="632" on="0"/>
        <pt x="182" y="731" on="0"/>
        <pt x="360" y="731" on="0"/>
        <pt x="412" y="682" on="1"/>
        <pt x="452" y="760" on="1"/>
        <pt x="456" y="768" on="0"/>
        <pt x="465" y="768" on="1"/>
        <pt x="471" y="768" on="0"/>
        <pt x="483" y="757" on="0"/>
        <pt x="483" y="749" on="1"/>
        <pt x="483" y="744" on="0"/>
        <pt x="480" y="738" on="1"/>
        <pt x="436" y="653" on="1"/>
        <pt x="467" y="601" on="0"/>
        <pt x="467" y="525" on="1"/>
        <pt x="467" y="200" on="1"/>
        <pt x="467" y="93" on="0"/>
        <pt x="360" y="-6" on="0"/>
        <pt x="271" y="-6" on="1"/>
        <pt x="172" y="-6" on="0"/>
        <pt x="123" y="50" on="1"/>
        <pt x="92" y="-9" on="1"/>
        <pt x="86" y="-20" on="0"/>
        <pt x="75" y="-20" on="1"/>
        <pt x="59" y="-20" on="0"/>
      </contour>
      <contour>
        <pt x="112" y="200" on="1"/>
        <pt x="112" y="157" on="0"/>
        <pt x="123" y="124" on="1"/>
        <pt x="394" y="647" on="1"/>
        <pt x="352" y="695" on="0"/>
        <pt x="271" y="695" on="1"/>
        <pt x="194" y="695" on="0"/>
        <pt x="112" y="610" on="0"/>
        <pt x="112" y="525" on="1"/>
      </contour>
      <contour>
        <pt x="141" y="86" on="1"/>
        <pt x="181" y="30" on="0"/>
        <pt x="271" y="30" on="1"/>
        <pt x="348" y="30" on="0"/>
        <pt x="431" y="115" on="0"/>
        <pt x="431" y="200" on="1"/>
        <pt x="431" y="525" on="1"/>
        <pt x="431" y="578" on="0"/>
        <pt x="415" y="613" on="1"/>
      </contour>
    </TTGlyph>
    <TTGlyph name="Oslashacute" xMin="59" yMin="-20" xMax="483" yMax="953">
      <contour>
        <pt x="59" y="-5" on="1"/>
        <pt x="59" y="1" on="0"/>
        <pt x="61" y="4" on="1"/>
        <pt x="101" y="81" on="1"/>
        <pt x="76" y="129" on="0"/>
        <pt x="76" y="200" on="1"/>
        <pt x="76" y="525" on="1"/>
        <pt x="76" y="632" on="0"/>
        <pt x="182" y="731" on="0"/>
        <pt x="360" y="731" on="0"/>
        <pt x="412" y="682" on="1"/>
        <pt x="452" y="760" on="1"/>
        <pt x="456" y="768" on="0"/>
        <pt x="465" y="768" on="1"/>
        <pt x="471" y="768" on="0"/>
        <pt x="483" y="757" on="0"/>
        <pt x="483" y="749" on="1"/>
        <pt x="483" y="744" on="0"/>
        <pt x="480" y="738" on="1"/>
        <pt x="436" y="653" on="1"/>
        <pt x="467" y="601" on="0"/>
        <pt x="467" y="525" on="1"/>
        <pt x="467" y="200" on="1"/>
        <pt x="467" y="93" on="0"/>
        <pt x="360" y="-6" on="0"/>
        <pt x="271" y="-6" on="1"/>
        <pt x="172" y="-6" on="0"/>
        <pt x="123" y="50" on="1"/>
        <pt x="92" y="-9" on="1"/>
        <pt x="86" y="-20" on="0"/>
        <pt x="75" y="-20" on="1"/>
        <pt x="59" y="-20" on="0"/>
      </contour>
      <contour>
        <pt x="112" y="200" on="1"/>
        <pt x="112" y="157" on="0"/>
        <pt x="123" y="124" on="1"/>
        <pt x="394" y="647" on="1"/>
        <pt x="352" y="695" on="0"/>
        <pt x="271" y="695" on="1"/>
        <pt x="194" y="695" on="0"/>
        <pt x="112" y="610" on="0"/>
        <pt x="112" y="525" on="1"/>
      </contour>
      <contour>
        <pt x="141" y="86" on="1"/>
        <pt x="181" y="30" on="0"/>
        <pt x="271" y="30" on="1"/>
        <pt x="348" y="30" on="0"/>
        <pt x="431" y="115" on="0"/>
        <pt x="431" y="200" on="1"/>
        <pt x="431" y="525" on="1"/>
        <pt x="431" y="578" on="0"/>
        <pt x="415" y="613" on="1"/>
      </contour>
      <contour>
        <pt x="205" y="878" on="1"/>
        <pt x="205" y="887" on="0"/>
        <pt x="213" y="891" on="1"/>
        <pt x="315" y="951" on="1"/>
        <pt x="319" y="953" on="0"/>
        <pt x="322" y="953" on="1"/>
        <pt x="338" y="953" on="0"/>
        <pt x="338" y="935" on="1"/>
        <pt x="338" y="923" on="0"/>
        <pt x="328" y="917" on="1"/>
        <pt x="233" y="863" on="1"/>
        <pt x="228" y="860" on="0"/>
        <pt x="224" y="860" on="1"/>
        <pt x="216" y="860" on="0"/>
        <pt x="205" y="871" on="0"/>
      </contour>
    </TTGlyph>
    <TTGlyph name="Otilde" xMin="76" yMin="-6" xMax="467" yMax="949">
      <contour>
        <pt x="76" y="200" on="1"/>
        <pt x="76" y="525" on="1"/>
        <pt x="76" y="632" on="0"/>
        <pt x="182" y="731" on="0"/>
        <pt x="360" y="731" on="0"/>
        <pt x="467" y="632" on="0"/>
        <pt x="467" y="525" on="1"/>
        <pt x="467" y="200" on="1"/>
        <pt x="467" y="93" on="0"/>
        <pt x="360" y="-6" on="0"/>
        <pt x="182" y="-6" on="0"/>
        <pt x="76" y="93" on="0"/>
      </contour>
      <contour>
        <pt x="112" y="200" on="1"/>
        <pt x="112" y="115" on="0"/>
        <pt x="194" y="30" on="0"/>
        <pt x="348" y="30" on="0"/>
        <pt x="431" y="115" on="0"/>
        <pt x="431" y="200" on="1"/>
        <pt x="431" y="525" on="1"/>
        <pt x="431" y="610" on="0"/>
        <pt x="348" y="695" on="0"/>
        <pt x="194" y="695" on="0"/>
        <pt x="112" y="610" on="0"/>
        <pt x="112" y="525" on="1"/>
      </contour>
      <contour>
        <pt x="124" y="897" on="1"/>
        <pt x="124" y="916" on="0"/>
        <pt x="185" y="949" on="0"/>
        <pt x="213" y="949" on="1"/>
        <pt x="237" y="949" on="0"/>
        <pt x="314" y="912" on="0"/>
        <pt x="340" y="912" on="1"/>
        <pt x="360" y="912" on="0"/>
        <pt x="385" y="928" on="0"/>
        <pt x="399" y="944" on="0"/>
        <pt x="405" y="944" on="1"/>
        <pt x="419" y="944" on="0"/>
        <pt x="419" y="929" on="1"/>
        <pt x="419" y="908" on="0"/>
        <pt x="362" y="878" on="0"/>
        <pt x="335" y="878" on="1"/>
        <pt x="312" y="878" on="0"/>
        <pt x="235" y="915" on="0"/>
        <pt x="206" y="915" on="1"/>
        <pt x="187" y="915" on="0"/>
        <pt x="159" y="898" on="0"/>
        <pt x="142" y="880" on="0"/>
        <pt x="137" y="880" on="1"/>
        <pt x="124" y="880" on="0"/>
      </contour>
    </TTGlyph>
    <TTGlyph name="P" xMin="83" yMin="0" xMax="474" yMax="731">
      <contour>
        <pt x="83" y="18" on="1"/>
        <pt x="83" y="714" on="1"/>
        <pt x="83" y="729" on="0"/>
        <pt x="101" y="731" on="1"/>
        <pt x="278" y="731" on="1"/>
        <pt x="367" y="731" on="0"/>
        <pt x="474" y="632" on="0"/>
        <pt x="474" y="525" on="1"/>
        <pt x="474" y="513" on="1"/>
        <pt x="474" y="406" on="0"/>
        <pt x="367" y="306" on="0"/>
        <pt x="278" y="306" on="1"/>
        <pt x="119" y="306" on="1"/>
        <pt x="119" y="18" on="1"/>
        <pt x="119" y="0" on="0"/>
        <pt x="83" y="0" on="0"/>
      </contour>
      <contour>
        <pt x="119" y="342" on="1"/>
        <pt x="278" y="342" on="1"/>
        <pt x="355" y="342" on="0"/>
        <pt x="438" y="428" on="0"/>
        <pt x="438" y="513" on="1"/>
        <pt x="438" y="525" on="1"/>
        <pt x="438" y="610" on="0"/>
        <pt x="355" y="695" on="0"/>
        <pt x="278" y="695" on="1"/>
        <pt x="119" y="695" on="1"/>
      </contour>
    </TTGlyph>
    <TTGlyph name="Q" xMin="76" yMin="-109" xMax="467" yMax="731">
      <contour>
        <pt x="76" y="200" on="1"/>
        <pt x="76" y="525" on="1"/>
        <pt x="76" y="632" on="0"/>
        <pt x="182" y="731" on="0"/>
        <pt x="360" y="731" on="0"/>
        <pt x="467" y="632" on="0"/>
        <pt x="467" y="525" on="1"/>
        <pt x="467" y="200" on="1"/>
        <pt x="467" y="99" on="0"/>
        <pt x="371" y="-1" on="0"/>
        <pt x="290" y="-5" on="1"/>
        <pt x="290" y="-91" on="1"/>
        <pt x="290" y="-109" on="0"/>
        <pt x="254" y="-109" on="0"/>
        <pt x="254" y="-91" on="1"/>
        <pt x="254" y="-5" on="1"/>
        <pt x="172" y="-1" on="0"/>
        <pt x="76" y="98" on="0"/>
      </contour>
      <contour>
        <pt x="112" y="200" on="1"/>
        <pt x="112" y="39" on="0"/>
        <pt x="254" y="30" on="1"/>
        <pt x="254" y="114" on="1"/>
        <pt x="254" y="131" on="0"/>
        <pt x="290" y="131" on="0"/>
        <pt x="290" y="114" on="1"/>
        <pt x="290" y="31" on="1"/>
        <pt x="431" y="41" on="0"/>
        <pt x="431" y="200" on="1"/>
        <pt x="431" y="525" on="1"/>
        <pt x="431" y="610" on="0"/>
        <pt x="348" y="695" on="0"/>
        <pt x="194" y="695" on="0"/>
        <pt x="112" y="610" on="0"/>
        <pt x="112" y="525" on="1"/>
      </contour>
    </TTGlyph>
    <TTGlyph name="R" xMin="83" yMin="0" xMax="474" yMax="731">
      <contour>
        <pt x="83" y="18" on="1"/>
        <pt x="83" y="714" on="1"/>
        <pt x="83" y="729" on="0"/>
        <pt x="101" y="731" on="1"/>
        <pt x="268" y="731" on="1"/>
        <pt x="360" y="731" on="0"/>
        <pt x="474" y="641" on="0"/>
        <pt x="474" y="540" on="1"/>
        <pt x="474" y="370" on="0"/>
        <pt x="306" y="350" on="1"/>
        <pt x="471" y="29" on="1"/>
        <pt x="474" y="23" on="0"/>
        <pt x="474" y="18" on="1"/>
        <pt x="474" y="10" on="0"/>
        <pt x="464" y="0" on="0"/>
        <pt x="456" y="0" on="1"/>
        <pt x="452" y="0" on="0"/>
        <pt x="445" y="4" on="0"/>
        <pt x="438" y="14" on="0"/>
        <pt x="436" y="17" on="1"/>
        <pt x="432" y="28" on="1"/>
        <pt x="428" y="36" on="0"/>
        <pt x="427" y="36" on="1"/>
        <pt x="267" y="348" on="1"/>
        <pt x="119" y="348" on="1"/>
        <pt x="119" y="18" on="1"/>
        <pt x="119" y="0" on="0"/>
        <pt x="83" y="0" on="0"/>
      </contour>
      <contour>
        <pt x="119" y="384" on="1"/>
        <pt x="268" y="384" on="1"/>
        <pt x="347" y="384" on="0"/>
        <pt x="438" y="460" on="0"/>
        <pt x="438" y="620" on="0"/>
        <pt x="347" y="695" on="0"/>
        <pt x="268" y="695" on="1"/>
        <pt x="119" y="695" on="1"/>
      </contour>
    </TTGlyph>
    <TTGlyph name="Racute" xMin="83" yMin="0" xMax="474" yMax="953">
      <contour>
        <pt x="83" y="18" on="1"/>
        <pt x="83" y="714" on="1"/>
        <pt x="83" y="729" on="0"/>
        <pt x="101" y="731" on="1"/>
        <pt x="268" y="731" on="1"/>
        <pt x="360" y="731" on="0"/>
        <pt x="474" y="641" on="0"/>
        <pt x="474" y="540" on="1"/>
        <pt x="474" y="370" on="0"/>
        <pt x="306" y="350" on="1"/>
        <pt x="471" y="29" on="1"/>
        <pt x="474" y="23" on="0"/>
        <pt x="474" y="18" on="1"/>
        <pt x="474" y="10" on="0"/>
        <pt x="464" y="0" on="0"/>
        <pt x="456" y="0" on="1"/>
        <pt x="452" y="0" on="0"/>
        <pt x="445" y="4" on="0"/>
        <pt x="438" y="14" on="0"/>
        <pt x="436" y="17" on="1"/>
        <pt x="432" y="28" on="1"/>
        <pt x="428" y="35" on="0"/>
        <pt x="427" y="36" on="1"/>
        <pt x="267" y="348" on="1"/>
        <pt x="119" y="348" on="1"/>
        <pt x="119" y="18" on="1"/>
        <pt x="119" y="0" on="0"/>
        <pt x="83" y="0" on="0"/>
      </contour>
      <contour>
        <pt x="119" y="384" on="1"/>
        <pt x="268" y="384" on="1"/>
        <pt x="347" y="384" on="0"/>
        <pt x="438" y="460" on="0"/>
        <pt x="438" y="620" on="0"/>
        <pt x="347" y="695" on="0"/>
        <pt x="268" y="695" on="1"/>
        <pt x="119" y="695" on="1"/>
      </contour>
      <contour>
        <pt x="212" y="878" on="1"/>
        <pt x="212" y="887" on="0"/>
        <pt x="220" y="891" on="1"/>
        <pt x="322" y="951" on="1"/>
        <pt x="326" y="953" on="0"/>
        <pt x="329" y="953" on="1"/>
        <pt x="345" y="953" on="0"/>
        <pt x="345" y="935" on="1"/>
        <pt x="345" y="923" on="0"/>
        <pt x="335" y="917" on="1"/>
        <pt x="240" y="863" on="1"/>
        <pt x="236" y="860" on="0"/>
        <pt x="231" y="860" on="1"/>
        <pt x="223" y="860" on="0"/>
        <pt x="212" y="871" on="0"/>
      </contour>
    </TTGlyph>
    <TTGlyph name="Rcaron" xMin="83" yMin="0" xMax="474" yMax="990">
      <contour>
        <pt x="83" y="18" on="1"/>
        <pt x="83" y="714" on="1"/>
        <pt x="83" y="729" on="0"/>
        <pt x="101" y="731" on="1"/>
        <pt x="268" y="731" on="1"/>
        <pt x="360" y="731" on="0"/>
        <pt x="474" y="641" on="0"/>
        <pt x="474" y="540" on="1"/>
        <pt x="474" y="370" on="0"/>
        <pt x="306" y="350" on="1"/>
        <pt x="471" y="29" on="1"/>
        <pt x="474" y="23" on="0"/>
        <pt x="474" y="18" on="1"/>
        <pt x="474" y="10" on="0"/>
        <pt x="464" y="0" on="0"/>
        <pt x="456" y="0" on="1"/>
        <pt x="452" y="0" on="0"/>
        <pt x="445" y="4" on="0"/>
        <pt x="438" y="14" on="0"/>
        <pt x="436" y="17" on="1"/>
        <pt x="432" y="28" on="1"/>
        <pt x="428" y="35" on="0"/>
        <pt x="427" y="36" on="1"/>
        <pt x="267" y="348" on="1"/>
        <pt x="119" y="348" on="1"/>
        <pt x="119" y="18" on="1"/>
        <pt x="119" y="0" on="0"/>
        <pt x="83" y="0" on="0"/>
      </contour>
      <contour>
        <pt x="119" y="384" on="1"/>
        <pt x="268" y="384" on="1"/>
        <pt x="347" y="384" on="0"/>
        <pt x="438" y="460" on="0"/>
        <pt x="438" y="620" on="0"/>
        <pt x="347" y="695" on="0"/>
        <pt x="268" y="695" on="1"/>
        <pt x="119" y="695" on="1"/>
      </contour>
      <contour>
        <pt x="148" y="969" on="0"/>
        <pt x="148" y="981" on="0"/>
        <pt x="157" y="990" on="0"/>
        <pt x="163" y="990" on="1"/>
        <pt x="172" y="990" on="0"/>
        <pt x="179" y="982" on="1"/>
        <pt x="277" y="879" on="1"/>
        <pt x="375" y="982" on="1"/>
        <pt x="382" y="990" on="0"/>
        <pt x="391" y="990" on="1"/>
        <pt x="397" y="990" on="0"/>
        <pt x="406" y="981" on="0"/>
        <pt x="406" y="969" on="0"/>
        <pt x="398" y="959" on="1"/>
        <pt x="298" y="858" on="1"/>
        <pt x="287" y="847" on="0"/>
        <pt x="277" y="847" on="1"/>
        <pt x="265" y="847" on="0"/>
        <pt x="256" y="858" on="1"/>
        <pt x="156" y="959" on="1"/>
      </contour>
    </TTGlyph>
    <TTGlyph name="Rcommaaccent" xMin="83" yMin="-141" xMax="474" yMax="731">
      <contour>
        <pt x="83" y="18" on="1"/>
        <pt x="83" y="714" on="1"/>
        <pt x="83" y="729" on="0"/>
        <pt x="101" y="731" on="1"/>
        <pt x="268" y="731" on="1"/>
        <pt x="360" y="731" on="0"/>
        <pt x="474" y="641" on="0"/>
        <pt x="474" y="540" on="1"/>
        <pt x="474" y="370" on="0"/>
        <pt x="306" y="350" on="1"/>
        <pt x="471" y="29" on="1"/>
        <pt x="474" y="23" on="0"/>
        <pt x="474" y="18" on="1"/>
        <pt x="474" y="10" on="0"/>
        <pt x="464" y="0" on="0"/>
        <pt x="456" y="0" on="1"/>
        <pt x="452" y="0" on="0"/>
        <pt x="445" y="4" on="0"/>
        <pt x="438" y="14" on="0"/>
        <pt x="436" y="17" on="1"/>
        <pt x="432" y="28" on="1"/>
        <pt x="428" y="35" on="0"/>
        <pt x="427" y="36" on="1"/>
        <pt x="267" y="348" on="1"/>
        <pt x="119" y="348" on="1"/>
        <pt x="119" y="18" on="1"/>
        <pt x="119" y="0" on="0"/>
        <pt x="83" y="0" on="0"/>
      </contour>
      <contour>
        <pt x="119" y="384" on="1"/>
        <pt x="268" y="384" on="1"/>
        <pt x="347" y="384" on="0"/>
        <pt x="438" y="460" on="0"/>
        <pt x="438" y="620" on="0"/>
        <pt x="347" y="695" on="0"/>
        <pt x="268" y="695" on="1"/>
        <pt x="119" y="695" on="1"/>
      </contour>
      <contour>
        <pt x="174" y="-123" on="1"/>
        <pt x="174" y="-114" on="0"/>
        <pt x="182" y="-110" on="1"/>
        <pt x="284" y="-50" on="1"/>
        <pt x="288" y="-48" on="0"/>
        <pt x="291" y="-48" on="1"/>
        <pt x="307" y="-48" on="0"/>
        <pt x="307" y="-66" on="1"/>
        <pt x="307" y="-78" on="0"/>
        <pt x="297" y="-84" on="1"/>
        <pt x="202" y="-138" on="1"/>
        <pt x="198" y="-141" on="0"/>
        <pt x="193" y="-141" on="1"/>
        <pt x="185" y="-141" on="0"/>
        <pt x="174" y="-130" on="0"/>
      </contour>
    </TTGlyph>
    <TTGlyph name="S" xMin="42" yMin="-6" xMax="433" yMax="731">
      <contour>
        <pt x="42" y="95" on="1"/>
        <pt x="42" y="102" on="0"/>
        <pt x="54" y="116" on="0"/>
        <pt x="64" y="116" on="0"/>
        <pt x="86" y="89" on="0"/>
        <pt x="115" y="57" on="0"/>
        <pt x="184" y="30" on="0"/>
        <pt x="230" y="30" on="1"/>
        <pt x="312" y="30" on="0"/>
        <pt x="397" y="113" on="0"/>
        <pt x="397" y="192" on="1"/>
        <pt x="397" y="244" on="0"/>
        <pt x="360" y="315" on="0"/>
        <pt x="300" y="352" on="0"/>
        <pt x="264" y="365" on="1"/>
        <pt x="193" y="390" on="1"/>
        <pt x="157" y="402" on="0"/>
        <pt x="97" y="439" on="0"/>
        <pt x="60" y="508" on="0"/>
        <pt x="60" y="558" on="1"/>
        <pt x="60" y="609" on="0"/>
        <pt x="97" y="682" on="0"/>
        <pt x="160" y="717" on="0"/>
        <pt x="222" y="731" on="0"/>
        <pt x="257" y="731" on="1"/>
        <pt x="317" y="731" on="0"/>
        <pt x="415" y="697" on="0"/>
        <pt x="415" y="679" on="1"/>
        <pt x="415" y="672" on="0"/>
        <pt x="403" y="657" on="0"/>
        <pt x="397" y="657" on="1"/>
        <pt x="393" y="657" on="0"/>
        <pt x="359" y="676" on="0"/>
        <pt x="296" y="695" on="0"/>
        <pt x="256" y="695" on="1"/>
        <pt x="214" y="695" on="0"/>
        <pt x="147" y="675" on="0"/>
        <pt x="96" y="612" on="0"/>
        <pt x="96" y="561" on="1"/>
        <pt x="96" y="518" on="0"/>
        <pt x="133" y="459" on="0"/>
        <pt x="193" y="429" on="0"/>
        <pt x="264" y="405" on="0"/>
        <pt x="336" y="376" on="0"/>
        <pt x="396" y="334" on="0"/>
        <pt x="433" y="253" on="0"/>
        <pt x="433" y="195" on="1"/>
        <pt x="433" y="93" on="0"/>
        <pt x="326" y="-6" on="0"/>
        <pt x="235" y="-6" on="1"/>
        <pt x="190" y="-6" on="0"/>
        <pt x="113" y="18" on="0"/>
        <pt x="67" y="51" on="0"/>
        <pt x="42" y="84" on="0"/>
      </contour>
    </TTGlyph>
    <TTGlyph name="Sacute" xMin="42" yMin="-6" xMax="433" yMax="953">
      <contour>
        <pt x="42" y="95" on="1"/>
        <pt x="42" y="102" on="0"/>
        <pt x="54" y="116" on="0"/>
        <pt x="64" y="116" on="0"/>
        <pt x="86" y="89" on="0"/>
        <pt x="115" y="57" on="0"/>
        <pt x="184" y="30" on="0"/>
        <pt x="230" y="30" on="1"/>
        <pt x="312" y="30" on="0"/>
        <pt x="397" y="113" on="0"/>
        <pt x="397" y="192" on="1"/>
        <pt x="397" y="244" on="0"/>
        <pt x="360" y="315" on="0"/>
        <pt x="300" y="352" on="0"/>
        <pt x="264" y="365" on="1"/>
        <pt x="193" y="390" on="1"/>
        <pt x="157" y="403" on="0"/>
        <pt x="97" y="439" on="0"/>
        <pt x="60" y="508" on="0"/>
        <pt x="60" y="558" on="1"/>
        <pt x="60" y="609" on="0"/>
        <pt x="97" y="682" on="0"/>
        <pt x="160" y="717" on="0"/>
        <pt x="222" y="731" on="0"/>
        <pt x="257" y="731" on="1"/>
        <pt x="317" y="731" on="0"/>
        <pt x="415" y="697" on="0"/>
        <pt x="415" y="679" on="1"/>
        <pt x="415" y="672" on="0"/>
        <pt x="403" y="657" on="0"/>
        <pt x="397" y="657" on="1"/>
        <pt x="393" y="657" on="0"/>
        <pt x="359" y="676" on="0"/>
        <pt x="296" y="695" on="0"/>
        <pt x="256" y="695" on="1"/>
        <pt x="214" y="695" on="0"/>
        <pt x="147" y="675" on="0"/>
        <pt x="96" y="612" on="0"/>
        <pt x="96" y="561" on="1"/>
        <pt x="96" y="518" on="0"/>
        <pt x="133" y="459" on="0"/>
        <pt x="193" y="429" on="0"/>
        <pt x="264" y="405" on="0"/>
        <pt x="336" y="376" on="0"/>
        <pt x="396" y="334" on="0"/>
        <pt x="433" y="253" on="0"/>
        <pt x="433" y="195" on="1"/>
        <pt x="433" y="93" on="0"/>
        <pt x="326" y="-6" on="0"/>
        <pt x="235" y="-6" on="1"/>
        <pt x="190" y="-6" on="0"/>
        <pt x="113" y="18" on="0"/>
        <pt x="67" y="51" on="0"/>
        <pt x="42" y="84" on="0"/>
      </contour>
      <contour>
        <pt x="171" y="878" on="1"/>
        <pt x="171" y="887" on="0"/>
        <pt x="179" y="891" on="1"/>
        <pt x="281" y="951" on="1"/>
        <pt x="285" y="953" on="0"/>
        <pt x="288" y="953" on="1"/>
        <pt x="304" y="953" on="0"/>
        <pt x="304" y="935" on="1"/>
        <pt x="304" y="923" on="0"/>
        <pt x="294" y="917" on="1"/>
        <pt x="199" y="863" on="1"/>
        <pt x="194" y="860" on="0"/>
        <pt x="190" y="860" on="1"/>
        <pt x="182" y="860" on="0"/>
        <pt x="171" y="871" on="0"/>
      </contour>
    </TTGlyph>
    <TTGlyph name="Scaron" xMin="42" yMin="-6" xMax="433" yMax="990">
      <contour>
        <pt x="42" y="95" on="1"/>
        <pt x="42" y="102" on="0"/>
        <pt x="54" y="116" on="0"/>
        <pt x="64" y="116" on="0"/>
        <pt x="86" y="89" on="0"/>
        <pt x="115" y="57" on="0"/>
        <pt x="184" y="30" on="0"/>
        <pt x="230" y="30" on="1"/>
        <pt x="312" y="30" on="0"/>
        <pt x="397" y="113" on="0"/>
        <pt x="397" y="192" on="1"/>
        <pt x="397" y="244" on="0"/>
        <pt x="360" y="315" on="0"/>
        <pt x="300" y="352" on="0"/>
        <pt x="264" y="365" on="1"/>
        <pt x="193" y="390" on="1"/>
        <pt x="157" y="403" on="0"/>
        <pt x="97" y="439" on="0"/>
        <pt x="60" y="508" on="0"/>
        <pt x="60" y="558" on="1"/>
        <pt x="60" y="609" on="0"/>
        <pt x="97" y="682" on="0"/>
        <pt x="160" y="717" on="0"/>
        <pt x="222" y="731" on="0"/>
        <pt x="257" y="731" on="1"/>
        <pt x="317" y="731" on="0"/>
        <pt x="415" y="697" on="0"/>
        <pt x="415" y="679" on="1"/>
        <pt x="415" y="672" on="0"/>
        <pt x="403" y="657" on="0"/>
        <pt x="397" y="657" on="1"/>
        <pt x="393" y="657" on="0"/>
        <pt x="359" y="676" on="0"/>
        <pt x="296" y="695" on="0"/>
        <pt x="256" y="695" on="1"/>
        <pt x="214" y="695" on="0"/>
        <pt x="147" y="675" on="0"/>
        <pt x="96" y="612" on="0"/>
        <pt x="96" y="561" on="1"/>
        <pt x="96" y="518" on="0"/>
        <pt x="133" y="459" on="0"/>
        <pt x="193" y="429" on="0"/>
        <pt x="264" y="405" on="0"/>
        <pt x="336" y="376" on="0"/>
        <pt x="396" y="334" on="0"/>
        <pt x="433" y="253" on="0"/>
        <pt x="433" y="195" on="1"/>
        <pt x="433" y="93" on="0"/>
        <pt x="326" y="-6" on="0"/>
        <pt x="235" y="-6" on="1"/>
        <pt x="190" y="-6" on="0"/>
        <pt x="113" y="18" on="0"/>
        <pt x="67" y="51" on="0"/>
        <pt x="42" y="84" on="0"/>
      </contour>
      <contour>
        <pt x="107" y="969" on="0"/>
        <pt x="107" y="981" on="0"/>
        <pt x="116" y="990" on="0"/>
        <pt x="122" y="990" on="1"/>
        <pt x="131" y="990" on="0"/>
        <pt x="138" y="982" on="1"/>
        <pt x="236" y="879" on="1"/>
        <pt x="334" y="982" on="1"/>
        <pt x="341" y="990" on="0"/>
        <pt x="350" y="990" on="1"/>
        <pt x="356" y="990" on="0"/>
        <pt x="365" y="981" on="0"/>
        <pt x="365" y="969" on="0"/>
        <pt x="357" y="959" on="1"/>
        <pt x="257" y="858" on="1"/>
        <pt x="246" y="847" on="0"/>
        <pt x="236" y="847" on="1"/>
        <pt x="224" y="847" on="0"/>
        <pt x="215" y="858" on="1"/>
        <pt x="115" y="959" on="1"/>
      </contour>
    </TTGlyph>
    <TTGlyph name="Scedilla" xMin="42" yMin="-207" xMax="433" yMax="731">
      <contour>
        <pt x="42" y="95" on="1"/>
        <pt x="42" y="102" on="0"/>
        <pt x="54" y="116" on="0"/>
        <pt x="64" y="116" on="0"/>
        <pt x="86" y="89" on="0"/>
        <pt x="115" y="57" on="0"/>
        <pt x="184" y="30" on="0"/>
        <pt x="230" y="30" on="1"/>
        <pt x="312" y="30" on="0"/>
        <pt x="397" y="113" on="0"/>
        <pt x="397" y="192" on="1"/>
        <pt x="397" y="244" on="0"/>
        <pt x="360" y="315" on="0"/>
        <pt x="300" y="352" on="0"/>
        <pt x="264" y="365" on="1"/>
        <pt x="193" y="390" on="1"/>
        <pt x="157" y="403" on="0"/>
        <pt x="97" y="439" on="0"/>
        <pt x="60" y="508" on="0"/>
        <pt x="60" y="558" on="1"/>
        <pt x="60" y="609" on="0"/>
        <pt x="97" y="682" on="0"/>
        <pt x="160" y="717" on="0"/>
        <pt x="222" y="731" on="0"/>
        <pt x="257" y="731" on="1"/>
        <pt x="317" y="731" on="0"/>
        <pt x="415" y="697" on="0"/>
        <pt x="415" y="679" on="1"/>
        <pt x="415" y="672" on="0"/>
        <pt x="403" y="657" on="0"/>
        <pt x="397" y="657" on="1"/>
        <pt x="393" y="657" on="0"/>
        <pt x="359" y="676" on="0"/>
        <pt x="296" y="695" on="0"/>
        <pt x="256" y="695" on="1"/>
        <pt x="214" y="695" on="0"/>
        <pt x="147" y="675" on="0"/>
        <pt x="96" y="612" on="0"/>
        <pt x="96" y="561" on="1"/>
        <pt x="96" y="518" on="0"/>
        <pt x="133" y="459" on="0"/>
        <pt x="193" y="429" on="0"/>
        <pt x="264" y="405" on="0"/>
        <pt x="336" y="376" on="0"/>
        <pt x="396" y="334" on="0"/>
        <pt x="433" y="253" on="0"/>
        <pt x="433" y="195" on="1"/>
        <pt x="433" y="105" on="0"/>
        <pt x="350" y="7" on="0"/>
        <pt x="278" y="-3" on="1"/>
        <pt x="263" y="-65" on="1"/>
        <pt x="311" y="-66" on="0"/>
        <pt x="357" y="-107" on="0"/>
        <pt x="357" y="-135" on="1"/>
        <pt x="357" y="-164" on="0"/>
        <pt x="312" y="-207" on="0"/>
        <pt x="275" y="-207" on="1"/>
        <pt x="252" y="-207" on="0"/>
        <pt x="201" y="-194" on="0"/>
        <pt x="201" y="-183" on="1"/>
        <pt x="201" y="-178" on="0"/>
        <pt x="209" y="-165" on="0"/>
        <pt x="213" y="-165" on="1"/>
        <pt x="231" y="-172" on="1"/>
        <pt x="249" y="-178" on="0"/>
        <pt x="269" y="-178" on="1"/>
        <pt x="324" y="-178" on="0"/>
        <pt x="324" y="-137" on="1"/>
        <pt x="324" y="-97" on="0"/>
        <pt x="254" y="-92" on="1"/>
        <pt x="225" y="-90" on="1"/>
        <pt x="245" y="-6" on="1"/>
        <pt x="235" y="-6" on="1"/>
        <pt x="190" y="-6" on="0"/>
        <pt x="113" y="18" on="0"/>
        <pt x="67" y="51" on="0"/>
        <pt x="42" y="84" on="0"/>
      </contour>
    </TTGlyph>
    <TTGlyph name="Scircumflex" xMin="42" yMin="-6" xMax="433" yMax="953">
      <contour>
        <pt x="42" y="95" on="1"/>
        <pt x="42" y="102" on="0"/>
        <pt x="54" y="116" on="0"/>
        <pt x="64" y="116" on="0"/>
        <pt x="86" y="89" on="0"/>
        <pt x="115" y="57" on="0"/>
        <pt x="184" y="30" on="0"/>
        <pt x="230" y="30" on="1"/>
        <pt x="312" y="30" on="0"/>
        <pt x="397" y="113" on="0"/>
        <pt x="397" y="192" on="1"/>
        <pt x="397" y="244" on="0"/>
        <pt x="360" y="315" on="0"/>
        <pt x="300" y="352" on="0"/>
        <pt x="264" y="365" on="1"/>
        <pt x="193" y="390" on="1"/>
        <pt x="157" y="403" on="0"/>
        <pt x="97" y="439" on="0"/>
        <pt x="60" y="508" on="0"/>
        <pt x="60" y="558" on="1"/>
        <pt x="60" y="609" on="0"/>
        <pt x="97" y="682" on="0"/>
        <pt x="160" y="717" on="0"/>
        <pt x="222" y="731" on="0"/>
        <pt x="257" y="731" on="1"/>
        <pt x="317" y="731" on="0"/>
        <pt x="415" y="697" on="0"/>
        <pt x="415" y="679" on="1"/>
        <pt x="415" y="672" on="0"/>
        <pt x="403" y="657" on="0"/>
        <pt x="397" y="657" on="1"/>
        <pt x="393" y="657" on="0"/>
        <pt x="359" y="676" on="0"/>
        <pt x="296" y="695" on="0"/>
        <pt x="256" y="695" on="1"/>
        <pt x="214" y="695" on="0"/>
        <pt x="147" y="675" on="0"/>
        <pt x="96" y="612" on="0"/>
        <pt x="96" y="561" on="1"/>
        <pt x="96" y="518" on="0"/>
        <pt x="133" y="459" on="0"/>
        <pt x="193" y="429" on="0"/>
        <pt x="264" y="405" on="0"/>
        <pt x="336" y="376" on="0"/>
        <pt x="396" y="334" on="0"/>
        <pt x="433" y="253" on="0"/>
        <pt x="433" y="195" on="1"/>
        <pt x="433" y="93" on="0"/>
        <pt x="326" y="-6" on="0"/>
        <pt x="235" y="-6" on="1"/>
        <pt x="190" y="-6" on="0"/>
        <pt x="113" y="18" on="0"/>
        <pt x="67" y="51" on="0"/>
        <pt x="42" y="84" on="0"/>
      </contour>
      <contour>
        <pt x="107" y="878" on="1"/>
        <pt x="107" y="888" on="0"/>
        <pt x="116" y="892" on="1"/>
        <pt x="220" y="948" on="1"/>
        <pt x="228" y="953" on="0"/>
        <pt x="246" y="953" on="0"/>
        <pt x="254" y="948" on="1"/>
        <pt x="358" y="893" on="1"/>
        <pt x="367" y="888" on="0"/>
        <pt x="367" y="876" on="1"/>
        <pt x="367" y="869" on="0"/>
        <pt x="357" y="860" on="0"/>
        <pt x="350" y="860" on="1"/>
        <pt x="341" y="863" on="1"/>
        <pt x="237" y="918" on="1"/>
        <pt x="133" y="862" on="1"/>
        <pt x="132" y="862" on="0"/>
        <pt x="126" y="859" on="0"/>
        <pt x="125" y="859" on="1"/>
        <pt x="118" y="859" on="0"/>
        <pt x="107" y="870" on="0"/>
      </contour>
    </TTGlyph>
    <TTGlyph name="Scommaaccent" xMin="42" yMin="-141" xMax="433" yMax="731">
      <contour>
        <pt x="42" y="95" on="1"/>
        <pt x="42" y="102" on="0"/>
        <pt x="54" y="116" on="0"/>
        <pt x="64" y="116" on="0"/>
        <pt x="86" y="89" on="0"/>
        <pt x="115" y="57" on="0"/>
        <pt x="184" y="30" on="0"/>
        <pt x="230" y="30" on="1"/>
        <pt x="312" y="30" on="0"/>
        <pt x="397" y="113" on="0"/>
        <pt x="397" y="192" on="1"/>
        <pt x="397" y="244" on="0"/>
        <pt x="360" y="315" on="0"/>
        <pt x="300" y="352" on="0"/>
        <pt x="264" y="365" on="1"/>
        <pt x="193" y="390" on="1"/>
        <pt x="157" y="403" on="0"/>
        <pt x="97" y="439" on="0"/>
        <pt x="60" y="508" on="0"/>
        <pt x="60" y="558" on="1"/>
        <pt x="60" y="609" on="0"/>
        <pt x="97" y="682" on="0"/>
        <pt x="160" y="717" on="0"/>
        <pt x="222" y="731" on="0"/>
        <pt x="257" y="731" on="1"/>
        <pt x="317" y="731" on="0"/>
        <pt x="415" y="697" on="0"/>
        <pt x="415" y="679" on="1"/>
        <pt x="415" y="672" on="0"/>
        <pt x="403" y="657" on="0"/>
        <pt x="397" y="657" on="1"/>
        <pt x="393" y="657" on="0"/>
        <pt x="359" y="676" on="0"/>
        <pt x="296" y="695" on="0"/>
        <pt x="256" y="695" on="1"/>
        <pt x="214" y="695" on="0"/>
        <pt x="147" y="675" on="0"/>
        <pt x="96" y="612" on="0"/>
        <pt x="96" y="561" on="1"/>
        <pt x="96" y="518" on="0"/>
        <pt x="133" y="459" on="0"/>
        <pt x="193" y="429" on="0"/>
        <pt x="264" y="405" on="0"/>
        <pt x="336" y="376" on="0"/>
        <pt x="396" y="334" on="0"/>
        <pt x="433" y="253" on="0"/>
        <pt x="433" y="195" on="1"/>
        <pt x="433" y="93" on="0"/>
        <pt x="326" y="-6" on="0"/>
        <pt x="235" y="-6" on="1"/>
        <pt x="190" y="-6" on="0"/>
        <pt x="113" y="18" on="0"/>
        <pt x="67" y="51" on="0"/>
        <pt x="42" y="84" on="0"/>
      </contour>
      <contour>
        <pt x="185" y="-123" on="1"/>
        <pt x="185" y="-114" on="0"/>
        <pt x="193" y="-110" on="1"/>
        <pt x="295" y="-50" on="1"/>
        <pt x="299" y="-48" on="0"/>
        <pt x="302" y="-48" on="1"/>
        <pt x="318" y="-48" on="0"/>
        <pt x="318" y="-66" on="1"/>
        <pt x="318" y="-78" on="0"/>
        <pt x="308" y="-84" on="1"/>
        <pt x="213" y="-138" on="1"/>
        <pt x="208" y="-141" on="0"/>
        <pt x="204" y="-141" on="1"/>
        <pt x="196" y="-141" on="0"/>
        <pt x="185" y="-130" on="0"/>
      </contour>
    </TTGlyph>
    <TTGlyph name="T" xMin="14" yMin="0" xMax="441" yMax="731">
      <contour>
        <pt x="14" y="706" on="0"/>
        <pt x="14" y="720" on="0"/>
        <pt x="24" y="731" on="0"/>
        <pt x="32" y="731" on="1"/>
        <pt x="423" y="731" on="1"/>
        <pt x="441" y="731" on="0"/>
        <pt x="441" y="714" on="1"/>
        <pt x="441" y="695" on="0"/>
        <pt x="423" y="695" on="1"/>
        <pt x="246" y="695" on="1"/>
        <pt x="246" y="18" on="1"/>
        <pt x="246" y="0" on="0"/>
        <pt x="210" y="0" on="0"/>
        <pt x="210" y="18" on="1"/>
        <pt x="210" y="695" on="1"/>
        <pt x="32" y="695" on="1"/>
        <pt x="24" y="695" on="0"/>
      </contour>
    </TTGlyph>
    <TTGlyph name="Tbar" xMin="16" yMin="0" xMax="443" yMax="731">
      <contour>
        <pt x="16" y="706" on="0"/>
        <pt x="16" y="720" on="0"/>
        <pt x="26" y="731" on="0"/>
        <pt x="34" y="731" on="1"/>
        <pt x="425" y="731" on="1"/>
        <pt x="443" y="731" on="0"/>
        <pt x="443" y="714" on="1"/>
        <pt x="443" y="695" on="0"/>
        <pt x="425" y="695" on="1"/>
        <pt x="248" y="695" on="1"/>
        <pt x="248" y="383" on="1"/>
        <pt x="395" y="383" on="1"/>
        <pt x="413" y="383" on="0"/>
        <pt x="413" y="366" on="1"/>
        <pt x="413" y="347" on="0"/>
        <pt x="395" y="347" on="1"/>
        <pt x="248" y="347" on="1"/>
        <pt x="248" y="18" on="1"/>
        <pt x="248" y="0" on="0"/>
        <pt x="212" y="0" on="0"/>
        <pt x="212" y="18" on="1"/>
        <pt x="212" y="347" on="1"/>
        <pt x="64" y="347" on="1"/>
        <pt x="56" y="347" on="0"/>
        <pt x="46" y="358" on="0"/>
        <pt x="46" y="372" on="0"/>
        <pt x="56" y="383" on="0"/>
        <pt x="64" y="383" on="1"/>
        <pt x="212" y="383" on="1"/>
        <pt x="212" y="695" on="1"/>
        <pt x="34" y="695" on="1"/>
        <pt x="26" y="695" on="0"/>
      </contour>
    </TTGlyph>
    <TTGlyph name="Tcaron" xMin="14" yMin="0" xMax="441" yMax="990">
      <contour>
        <pt x="14" y="706" on="0"/>
        <pt x="14" y="720" on="0"/>
        <pt x="24" y="731" on="0"/>
        <pt x="32" y="731" on="1"/>
        <pt x="423" y="731" on="1"/>
        <pt x="441" y="731" on="0"/>
        <pt x="441" y="714" on="1"/>
        <pt x="441" y="695" on="0"/>
        <pt x="423" y="695" on="1"/>
        <pt x="246" y="695" on="1"/>
        <pt x="246" y="18" on="1"/>
        <pt x="246" y="0" on="0"/>
        <pt x="210" y="0" on="0"/>
        <pt x="210" y="18" on="1"/>
        <pt x="210" y="695" on="1"/>
        <pt x="32" y="695" on="1"/>
        <pt x="24" y="695" on="0"/>
      </contour>
      <contour>
        <pt x="97" y="969" on="0"/>
        <pt x="97" y="981" on="0"/>
        <pt x="106" y="990" on="0"/>
        <pt x="112" y="990" on="1"/>
        <pt x="121" y="990" on="0"/>
        <pt x="128" y="982" on="1"/>
        <pt x="226" y="879" on="1"/>
        <pt x="324" y="982" on="1"/>
        <pt x="331" y="990" on="0"/>
        <pt x="340" y="990" on="1"/>
        <pt x="346" y="990" on="0"/>
        <pt x="355" y="981" on="0"/>
        <pt x="355" y="969" on="0"/>
        <pt x="347" y="959" on="1"/>
        <pt x="247" y="858" on="1"/>
        <pt x="236" y="847" on="0"/>
        <pt x="226" y="847" on="1"/>
        <pt x="214" y="847" on="0"/>
        <pt x="205" y="858" on="1"/>
        <pt x="105" y="959" on="1"/>
      </contour>
    </TTGlyph>
    <TTGlyph name="Tcommaaccent" xMin="14" yMin="-141" xMax="441" yMax="731">
      <contour>
        <pt x="14" y="706" on="0"/>
        <pt x="14" y="720" on="0"/>
        <pt x="24" y="731" on="0"/>
        <pt x="32" y="731" on="1"/>
        <pt x="423" y="731" on="1"/>
        <pt x="441" y="731" on="0"/>
        <pt x="441" y="714" on="1"/>
        <pt x="441" y="695" on="0"/>
        <pt x="423" y="695" on="1"/>
        <pt x="246" y="695" on="1"/>
        <pt x="246" y="18" on="1"/>
        <pt x="246" y="0" on="0"/>
        <pt x="210" y="0" on="0"/>
        <pt x="210" y="18" on="1"/>
        <pt x="210" y="695" on="1"/>
        <pt x="32" y="695" on="1"/>
        <pt x="24" y="695" on="0"/>
      </contour>
      <contour>
        <pt x="161" y="-123" on="1"/>
        <pt x="161" y="-114" on="0"/>
        <pt x="169" y="-110" on="1"/>
        <pt x="271" y="-50" on="1"/>
        <pt x="275" y="-48" on="0"/>
        <pt x="278" y="-48" on="1"/>
        <pt x="294" y="-48" on="0"/>
        <pt x="294" y="-66" on="1"/>
        <pt x="294" y="-78" on="0"/>
        <pt x="284" y="-84" on="1"/>
        <pt x="189" y="-138" on="1"/>
        <pt x="184" y="-141" on="0"/>
        <pt x="180" y="-141" on="1"/>
        <pt x="172" y="-141" on="0"/>
        <pt x="161" y="-130" on="0"/>
      </contour>
    </TTGlyph>
    <TTGlyph name="Thorn" xMin="83" yMin="0" xMax="432" yMax="731">
      <contour>
        <pt x="83" y="18" on="1"/>
        <pt x="83" y="715" on="1"/>
        <pt x="83" y="731" on="0"/>
        <pt x="100" y="731" on="1"/>
        <pt x="118" y="731" on="0"/>
        <pt x="118" y="714" on="1"/>
        <pt x="118" y="542" on="1"/>
        <pt x="161" y="618" on="0"/>
        <pt x="261" y="618" on="1"/>
        <pt x="331" y="618" on="0"/>
        <pt x="432" y="541" on="0"/>
        <pt x="432" y="473" on="1"/>
        <pt x="432" y="281" on="1"/>
        <pt x="432" y="213" on="0"/>
        <pt x="331" y="134" on="0"/>
        <pt x="266" y="134" on="1"/>
        <pt x="217" y="134" on="0"/>
        <pt x="130" y="178" on="0"/>
        <pt x="118" y="212" on="1"/>
        <pt x="118" y="18" on="1"/>
        <pt x="118" y="11" on="0"/>
        <pt x="108" y="0" on="0"/>
        <pt x="94" y="0" on="0"/>
        <pt x="83" y="11" on="0"/>
      </contour>
      <contour>
        <pt x="118" y="281" on="1"/>
        <pt x="118" y="239" on="0"/>
        <pt x="202" y="169" on="0"/>
        <pt x="263" y="169" on="1"/>
        <pt x="317" y="169" on="0"/>
        <pt x="397" y="227" on="0"/>
        <pt x="397" y="281" on="1"/>
        <pt x="397" y="473" on="1"/>
        <pt x="397" y="526" on="0"/>
        <pt x="318" y="583" on="0"/>
        <pt x="263" y="583" on="1"/>
        <pt x="204" y="583" on="0"/>
        <pt x="118" y="521" on="0"/>
        <pt x="118" y="473" on="1"/>
      </contour>
    </TTGlyph>
    <TTGlyph name="U" xMin="79" yMin="-6" xMax="470" yMax="731">
      <contour>
        <pt x="79" y="200" on="1"/>
        <pt x="79" y="714" on="1"/>
        <pt x="79" y="731" on="0"/>
        <pt x="115" y="731" on="0"/>
        <pt x="115" y="714" on="1"/>
        <pt x="115" y="200" on="1"/>
        <pt x="115" y="115" on="0"/>
        <pt x="197" y="30" on="0"/>
        <pt x="351" y="30" on="0"/>
        <pt x="434" y="115" on="0"/>
        <pt x="434" y="200" on="1"/>
        <pt x="434" y="714" on="1"/>
        <pt x="434" y="731" on="0"/>
        <pt x="470" y="731" on="0"/>
        <pt x="470" y="714" on="1"/>
        <pt x="470" y="200" on="1"/>
        <pt x="470" y="93" on="0"/>
        <pt x="363" y="-6" on="0"/>
        <pt x="185" y="-6" on="0"/>
        <pt x="79" y="93" on="0"/>
      </contour>
    </TTGlyph>
    <TTGlyph name="Uacute" xMin="79" yMin="-6" xMax="470" yMax="953">
      <contour>
        <pt x="79" y="200" on="1"/>
        <pt x="79" y="714" on="1"/>
        <pt x="79" y="731" on="0"/>
        <pt x="115" y="731" on="0"/>
        <pt x="115" y="714" on="1"/>
        <pt x="115" y="200" on="1"/>
        <pt x="115" y="115" on="0"/>
        <pt x="197" y="30" on="0"/>
        <pt x="351" y="30" on="0"/>
        <pt x="434" y="115" on="0"/>
        <pt x="434" y="200" on="1"/>
        <pt x="434" y="714" on="1"/>
        <pt x="434" y="731" on="0"/>
        <pt x="470" y="731" on="0"/>
        <pt x="470" y="714" on="1"/>
        <pt x="470" y="200" on="1"/>
        <pt x="470" y="93" on="0"/>
        <pt x="363" y="-6" on="0"/>
        <pt x="185" y="-6" on="0"/>
        <pt x="79" y="93" on="0"/>
      </contour>
      <contour>
        <pt x="208" y="878" on="1"/>
        <pt x="208" y="887" on="0"/>
        <pt x="216" y="891" on="1"/>
        <pt x="318" y="951" on="1"/>
        <pt x="322" y="953" on="0"/>
        <pt x="325" y="953" on="1"/>
        <pt x="341" y="953" on="0"/>
        <pt x="341" y="935" on="1"/>
        <pt x="341" y="923" on="0"/>
        <pt x="331" y="917" on="1"/>
        <pt x="236" y="863" on="1"/>
        <pt x="232" y="860" on="0"/>
        <pt x="227" y="860" on="1"/>
        <pt x="219" y="860" on="0"/>
        <pt x="208" y="871" on="0"/>
      </contour>
    </TTGlyph>
    <TTGlyph name="Ubreve" xMin="79" yMin="-6" xMax="470" yMax="969">
      <contour>
        <pt x="79" y="200" on="1"/>
        <pt x="79" y="714" on="1"/>
        <pt x="79" y="731" on="0"/>
        <pt x="115" y="731" on="0"/>
        <pt x="115" y="714" on="1"/>
        <pt x="115" y="200" on="1"/>
        <pt x="115" y="115" on="0"/>
        <pt x="197" y="30" on="0"/>
        <pt x="351" y="30" on="0"/>
        <pt x="434" y="115" on="0"/>
        <pt x="434" y="200" on="1"/>
        <pt x="434" y="714" on="1"/>
        <pt x="434" y="731" on="0"/>
        <pt x="470" y="731" on="0"/>
        <pt x="470" y="714" on="1"/>
        <pt x="470" y="200" on="1"/>
        <pt x="470" y="93" on="0"/>
        <pt x="363" y="-6" on="0"/>
        <pt x="185" y="-6" on="0"/>
        <pt x="79" y="93" on="0"/>
      </contour>
      <contour>
        <pt x="165" y="969" on="1"/>
        <pt x="197" y="969" on="1"/>
        <pt x="197" y="935" on="0"/>
        <pt x="242" y="886" on="0"/>
        <pt x="274" y="886" on="1"/>
        <pt x="305" y="886" on="0"/>
        <pt x="350" y="935" on="0"/>
        <pt x="350" y="969" on="1"/>
        <pt x="383" y="969" on="1"/>
        <pt x="383" y="925" on="0"/>
        <pt x="317" y="860" on="0"/>
        <pt x="274" y="860" on="1"/>
        <pt x="230" y="860" on="0"/>
        <pt x="165" y="925" on="0"/>
      </contour>
    </TTGlyph>
    <TTGlyph name="Ucircumflex" xMin="79" yMin="-6" xMax="470" yMax="953">
      <contour>
        <pt x="79" y="200" on="1"/>
        <pt x="79" y="714" on="1"/>
        <pt x="79" y="731" on="0"/>
        <pt x="115" y="731" on="0"/>
        <pt x="115" y="714" on="1"/>
        <pt x="115" y="200" on="1"/>
        <pt x="115" y="115" on="0"/>
        <pt x="197" y="30" on="0"/>
        <pt x="351" y="30" on="0"/>
        <pt x="434" y="115" on="0"/>
        <pt x="434" y="200" on="1"/>
        <pt x="434" y="714" on="1"/>
        <pt x="434" y="731" on="0"/>
        <pt x="470" y="731" on="0"/>
        <pt x="470" y="714" on="1"/>
        <pt x="470" y="200" on="1"/>
        <pt x="470" y="93" on="0"/>
        <pt x="363" y="-6" on="0"/>
        <pt x="185" y="-6" on="0"/>
        <pt x="79" y="93" on="0"/>
      </contour>
      <contour>
        <pt x="144" y="878" on="1"/>
        <pt x="144" y="888" on="0"/>
        <pt x="153" y="892" on="1"/>
        <pt x="257" y="948" on="1"/>
        <pt x="265" y="953" on="0"/>
        <pt x="283" y="953" on="0"/>
        <pt x="291" y="948" on="1"/>
        <pt x="395" y="893" on="1"/>
        <pt x="404" y="888" on="0"/>
        <pt x="404" y="876" on="1"/>
        <pt x="404" y="869" on="0"/>
        <pt x="394" y="860" on="0"/>
        <pt x="387" y="860" on="1"/>
        <pt x="378" y="863" on="1"/>
        <pt x="274" y="918" on="1"/>
        <pt x="170" y="862" on="1"/>
        <pt x="169" y="862" on="0"/>
        <pt x="163" y="859" on="0"/>
        <pt x="162" y="859" on="1"/>
        <pt x="155" y="859" on="0"/>
        <pt x="144" y="870" on="0"/>
      </contour>
    </TTGlyph>
    <TTGlyph name="Udieresis" xMin="79" yMin="-6" xMax="470" yMax="918">
      <contour>
        <pt x="79" y="200" on="1"/>
        <pt x="79" y="714" on="1"/>
        <pt x="79" y="731" on="0"/>
        <pt x="115" y="731" on="0"/>
        <pt x="115" y="714" on="1"/>
        <pt x="115" y="200" on="1"/>
        <pt x="115" y="115" on="0"/>
        <pt x="197" y="30" on="0"/>
        <pt x="351" y="30" on="0"/>
        <pt x="434" y="115" on="0"/>
        <pt x="434" y="200" on="1"/>
        <pt x="434" y="714" on="1"/>
        <pt x="434" y="731" on="0"/>
        <pt x="470" y="731" on="0"/>
        <pt x="470" y="714" on="1"/>
        <pt x="470" y="200" on="1"/>
        <pt x="470" y="93" on="0"/>
        <pt x="363" y="-6" on="0"/>
        <pt x="185" y="-6" on="0"/>
        <pt x="79" y="93" on="0"/>
      </contour>
      <contour>
        <pt x="189" y="876" on="0"/>
        <pt x="189" y="902" on="0"/>
        <pt x="206" y="918" on="0"/>
        <pt x="232" y="918" on="0"/>
        <pt x="248" y="902" on="0"/>
        <pt x="248" y="876" on="0"/>
        <pt x="232" y="859" on="0"/>
        <pt x="206" y="859" on="0"/>
      </contour>
      <contour>
        <pt x="300" y="876" on="0"/>
        <pt x="300" y="902" on="0"/>
        <pt x="317" y="918" on="0"/>
        <pt x="343" y="918" on="0"/>
        <pt x="359" y="902" on="0"/>
        <pt x="359" y="876" on="0"/>
        <pt x="343" y="859" on="0"/>
        <pt x="317" y="859" on="0"/>
      </contour>
    </TTGlyph>
    <TTGlyph name="Ugrave" xMin="79" yMin="-6" xMax="470" yMax="953">
      <contour>
        <pt x="79" y="200" on="1"/>
        <pt x="79" y="714" on="1"/>
        <pt x="79" y="731" on="0"/>
        <pt x="115" y="731" on="0"/>
        <pt x="115" y="714" on="1"/>
        <pt x="115" y="200" on="1"/>
        <pt x="115" y="115" on="0"/>
        <pt x="197" y="30" on="0"/>
        <pt x="351" y="30" on="0"/>
        <pt x="434" y="115" on="0"/>
        <pt x="434" y="200" on="1"/>
        <pt x="434" y="714" on="1"/>
        <pt x="434" y="731" on="0"/>
        <pt x="470" y="731" on="0"/>
        <pt x="470" y="714" on="1"/>
        <pt x="470" y="200" on="1"/>
        <pt x="470" y="93" on="0"/>
        <pt x="363" y="-6" on="0"/>
        <pt x="185" y="-6" on="0"/>
        <pt x="79" y="93" on="0"/>
      </contour>
      <contour>
        <pt x="208" y="935" on="1"/>
        <pt x="208" y="953" on="0"/>
        <pt x="224" y="953" on="1"/>
        <pt x="227" y="953" on="0"/>
        <pt x="231" y="951" on="1"/>
        <pt x="333" y="891" on="1"/>
        <pt x="341" y="887" on="0"/>
        <pt x="341" y="878" on="1"/>
        <pt x="341" y="871" on="0"/>
        <pt x="330" y="860" on="0"/>
        <pt x="322" y="860" on="1"/>
        <pt x="318" y="860" on="0"/>
        <pt x="313" y="863" on="1"/>
        <pt x="218" y="917" on="1"/>
        <pt x="208" y="923" on="0"/>
      </contour>
    </TTGlyph>
    <TTGlyph name="Uhungarumlaut" xMin="79" yMin="-6" xMax="470" yMax="953">
      <contour>
        <pt x="79" y="200" on="1"/>
        <pt x="79" y="714" on="1"/>
        <pt x="79" y="731" on="0"/>
        <pt x="115" y="731" on="0"/>
        <pt x="115" y="714" on="1"/>
        <pt x="115" y="200" on="1"/>
        <pt x="115" y="115" on="0"/>
        <pt x="197" y="30" on="0"/>
        <pt x="351" y="30" on="0"/>
        <pt x="434" y="115" on="0"/>
        <pt x="434" y="200" on="1"/>
        <pt x="434" y="714" on="1"/>
        <pt x="434" y="731" on="0"/>
        <pt x="470" y="731" on="0"/>
        <pt x="470" y="714" on="1"/>
        <pt x="470" y="200" on="1"/>
        <pt x="470" y="93" on="0"/>
        <pt x="363" y="-6" on="0"/>
        <pt x="185" y="-6" on="0"/>
        <pt x="79" y="93" on="0"/>
      </contour>
      <contour>
        <pt x="185" y="878" on="1"/>
        <pt x="185" y="887" on="0"/>
        <pt x="193" y="891" on="1"/>
        <pt x="295" y="951" on="1"/>
        <pt x="299" y="953" on="0"/>
        <pt x="302" y="953" on="1"/>
        <pt x="318" y="953" on="0"/>
        <pt x="318" y="935" on="1"/>
        <pt x="318" y="923" on="0"/>
        <pt x="308" y="917" on="1"/>
        <pt x="213" y="863" on="1"/>
        <pt x="208" y="860" on="0"/>
        <pt x="204" y="860" on="1"/>
        <pt x="196" y="860" on="0"/>
        <pt x="185" y="871" on="0"/>
      </contour>
      <contour>
        <pt x="332" y="878" on="1"/>
        <pt x="332" y="887" on="0"/>
        <pt x="340" y="891" on="1"/>
        <pt x="442" y="951" on="1"/>
        <pt x="446" y="953" on="0"/>
        <pt x="449" y="953" on="1"/>
        <pt x="465" y="953" on="0"/>
        <pt x="465" y="935" on="1"/>
        <pt x="465" y="923" on="0"/>
        <pt x="455" y="917" on="1"/>
        <pt x="360" y="863" on="1"/>
        <pt x="356" y="860" on="0"/>
        <pt x="351" y="860" on="1"/>
        <pt x="343" y="860" on="0"/>
        <pt x="332" y="871" on="0"/>
      </contour>
    </TTGlyph>
    <TTGlyph name="Umacron" xMin="79" yMin="-6" xMax="470" yMax="941">
      <contour>
        <pt x="79" y="200" on="1"/>
        <pt x="79" y="714" on="1"/>
        <pt x="79" y="731" on="0"/>
        <pt x="115" y="731" on="0"/>
        <pt x="115" y="714" on="1"/>
        <pt x="115" y="200" on="1"/>
        <pt x="115" y="115" on="0"/>
        <pt x="197" y="30" on="0"/>
        <pt x="351" y="30" on="0"/>
        <pt x="434" y="115" on="0"/>
        <pt x="434" y="200" on="1"/>
        <pt x="434" y="714" on="1"/>
        <pt x="434" y="731" on="0"/>
        <pt x="470" y="731" on="0"/>
        <pt x="470" y="714" on="1"/>
        <pt x="470" y="200" on="1"/>
        <pt x="470" y="93" on="0"/>
        <pt x="363" y="-6" on="0"/>
        <pt x="185" y="-6" on="0"/>
        <pt x="79" y="93" on="0"/>
      </contour>
      <contour>
        <pt x="147" y="923" on="1"/>
        <pt x="147" y="941" on="0"/>
        <pt x="164" y="941" on="1"/>
        <pt x="384" y="941" on="1"/>
        <pt x="391" y="941" on="0"/>
        <pt x="402" y="930" on="0"/>
        <pt x="402" y="916" on="0"/>
        <pt x="391" y="906" on="0"/>
        <pt x="384" y="906" on="1"/>
        <pt x="164" y="906" on="1"/>
        <pt x="147" y="906" on="0"/>
      </contour>
    </TTGlyph>
    <TTGlyph name="Uogonek" xMin="79" yMin="-195" xMax="470" yMax="731">
      <contour>
        <pt x="79" y="200" on="1"/>
        <pt x="79" y="714" on="1"/>
        <pt x="79" y="731" on="0"/>
        <pt x="115" y="731" on="0"/>
        <pt x="115" y="714" on="1"/>
        <pt x="115" y="200" on="1"/>
        <pt x="115" y="115" on="0"/>
        <pt x="197" y="30" on="0"/>
        <pt x="351" y="30" on="0"/>
        <pt x="434" y="115" on="0"/>
        <pt x="434" y="200" on="1"/>
        <pt x="434" y="714" on="1"/>
        <pt x="434" y="731" on="0"/>
        <pt x="470" y="731" on="0"/>
        <pt x="470" y="714" on="1"/>
        <pt x="470" y="200" on="1"/>
        <pt x="470" y="36" on="0"/>
        <pt x="340" y="2" on="1"/>
        <pt x="304" y="-33" on="0"/>
        <pt x="268" y="-90" on="0"/>
        <pt x="268" y="-126" on="1"/>
        <pt x="268" y="-169" on="0"/>
        <pt x="331" y="-169" on="1"/>
        <pt x="349" y="-169" on="0"/>
        <pt x="349" y="-195" on="0"/>
        <pt x="326" y="-195" on="1"/>
        <pt x="292" y="-195" on="0"/>
        <pt x="239" y="-164" on="0"/>
        <pt x="239" y="-128" on="1"/>
        <pt x="239" y="-64" on="0"/>
        <pt x="291" y="-5" on="1"/>
        <pt x="285" y="-6" on="0"/>
        <pt x="274" y="-6" on="1"/>
        <pt x="185" y="-6" on="0"/>
        <pt x="79" y="93" on="0"/>
      </contour>
    </TTGlyph>
    <TTGlyph name="Uring" xMin="79" yMin="-6" xMax="470" yMax="1027">
      <contour>
        <pt x="79" y="200" on="1"/>
        <pt x="79" y="714" on="1"/>
        <pt x="79" y="731" on="0"/>
        <pt x="115" y="731" on="0"/>
        <pt x="115" y="714" on="1"/>
        <pt x="115" y="200" on="1"/>
        <pt x="115" y="115" on="0"/>
        <pt x="197" y="30" on="0"/>
        <pt x="351" y="30" on="0"/>
        <pt x="434" y="115" on="0"/>
        <pt x="434" y="200" on="1"/>
        <pt x="434" y="714" on="1"/>
        <pt x="434" y="731" on="0"/>
        <pt x="470" y="731" on="0"/>
        <pt x="470" y="714" on="1"/>
        <pt x="470" y="200" on="1"/>
        <pt x="470" y="93" on="0"/>
        <pt x="363" y="-6" on="0"/>
        <pt x="185" y="-6" on="0"/>
        <pt x="79" y="93" on="0"/>
      </contour>
      <contour>
        <pt x="184" y="936" on="1"/>
        <pt x="184" y="972" on="0"/>
        <pt x="237" y="1027" on="0"/>
        <pt x="274" y="1027" on="1"/>
        <pt x="309" y="1027" on="0"/>
        <pt x="364" y="972" on="0"/>
        <pt x="364" y="936" on="1"/>
        <pt x="364" y="899" on="0"/>
        <pt x="309" y="843" on="0"/>
        <pt x="274" y="843" on="1"/>
        <pt x="237" y="843" on="0"/>
        <pt x="184" y="899" on="0"/>
      </contour>
      <contour>
        <pt x="208" y="936" on="1"/>
        <pt x="208" y="909" on="0"/>
        <pt x="248" y="866" on="0"/>
        <pt x="300" y="866" on="0"/>
        <pt x="339" y="909" on="0"/>
        <pt x="339" y="936" on="1"/>
        <pt x="339" y="960" on="0"/>
        <pt x="300" y="1001" on="0"/>
        <pt x="274" y="1001" on="1"/>
        <pt x="247" y="1001" on="0"/>
        <pt x="208" y="960" on="0"/>
      </contour>
    </TTGlyph>
    <TTGlyph name="Utilde" xMin="79" yMin="-6" xMax="470" yMax="949">
      <contour>
        <pt x="79" y="200" on="1"/>
        <pt x="79" y="714" on="1"/>
        <pt x="79" y="731" on="0"/>
        <pt x="115" y="731" on="0"/>
        <pt x="115" y="714" on="1"/>
        <pt x="115" y="200" on="1"/>
        <pt x="115" y="115" on="0"/>
        <pt x="197" y="30" on="0"/>
        <pt x="351" y="30" on="0"/>
        <pt x="434" y="115" on="0"/>
        <pt x="434" y="200" on="1"/>
        <pt x="434" y="714" on="1"/>
        <pt x="434" y="731" on="0"/>
        <pt x="470" y="731" on="0"/>
        <pt x="470" y="714" on="1"/>
        <pt x="470" y="200" on="1"/>
        <pt x="470" y="93" on="0"/>
        <pt x="363" y="-6" on="0"/>
        <pt x="185" y="-6" on="0"/>
        <pt x="79" y="93" on="0"/>
      </contour>
      <contour>
        <pt x="127" y="897" on="1"/>
        <pt x="127" y="916" on="0"/>
        <pt x="188" y="949" on="0"/>
        <pt x="216" y="949" on="1"/>
        <pt x="240" y="949" on="0"/>
        <pt x="317" y="912" on="0"/>
        <pt x="343" y="912" on="1"/>
        <pt x="363" y="912" on="0"/>
        <pt x="388" y="928" on="0"/>
        <pt x="402" y="944" on="0"/>
        <pt x="408" y="944" on="1"/>
        <pt x="422" y="944" on="0"/>
        <pt x="422" y="929" on="1"/>
        <pt x="422" y="908" on="0"/>
        <pt x="365" y="878" on="0"/>
        <pt x="338" y="878" on="1"/>
        <pt x="315" y="878" on="0"/>
        <pt x="238" y="915" on="0"/>
        <pt x="209" y="915" on="1"/>
        <pt x="190" y="915" on="0"/>
        <pt x="162" y="898" on="0"/>
        <pt x="145" y="880" on="0"/>
        <pt x="140" y="880" on="1"/>
        <pt x="127" y="880" on="0"/>
      </contour>
    </TTGlyph>
    <TTGlyph name="V" xMin="24" yMin="-6" xMax="495" yMax="731">
      <contour>
        <pt x="24" y="715" on="1"/>
        <pt x="24" y="731" on="0"/>
        <pt x="42" y="731" on="1"/>
        <pt x="56" y="731" on="0"/>
        <pt x="60" y="718" on="1"/>
        <pt x="260" y="70" on="1"/>
        <pt x="459" y="718" on="1"/>
        <pt x="463" y="731" on="0"/>
        <pt x="475" y="731" on="1"/>
        <pt x="483" y="731" on="0"/>
        <pt x="495" y="721" on="0"/>
        <pt x="495" y="714" on="1"/>
        <pt x="495" y="713" on="0"/>
        <pt x="494" y="710" on="0"/>
        <pt x="494" y="709" on="1"/>
        <pt x="279" y="8" on="1"/>
        <pt x="274" y="-6" on="0"/>
        <pt x="246" y="-6" on="0"/>
        <pt x="242" y="8" on="1"/>
        <pt x="25" y="709" on="1"/>
        <pt x="24" y="711" on="0"/>
      </contour>
    </TTGlyph>
    <TTGlyph name="W" xMin="26" yMin="-6" xMax="713" yMax="731">
      <contour>
        <pt x="26" y="715" on="1"/>
        <pt x="26" y="731" on="0"/>
        <pt x="43" y="731" on="1"/>
        <pt x="59" y="731" on="0"/>
        <pt x="62" y="718" on="1"/>
        <pt x="242" y="70" on="1"/>
        <pt x="348" y="455" on="1"/>
        <pt x="353" y="472" on="0"/>
        <pt x="370" y="472" on="1"/>
        <pt x="385" y="472" on="0"/>
        <pt x="390" y="455" on="1"/>
        <pt x="498" y="70" on="1"/>
        <pt x="677" y="718" on="1"/>
        <pt x="680" y="731" on="0"/>
        <pt x="696" y="731" on="1"/>
        <pt x="713" y="731" on="0"/>
        <pt x="713" y="715" on="1"/>
        <pt x="713" y="712" on="0"/>
        <pt x="712" y="709" on="1"/>
        <pt x="517" y="8" on="1"/>
        <pt x="512" y="-6" on="0"/>
        <pt x="498" y="-6" on="1"/>
        <pt x="483" y="-6" on="0"/>
        <pt x="480" y="8" on="1"/>
        <pt x="370" y="400" on="1"/>
        <pt x="261" y="8" on="1"/>
        <pt x="256" y="-6" on="0"/>
        <pt x="242" y="-6" on="1"/>
        <pt x="227" y="-6" on="0"/>
        <pt x="224" y="8" on="1"/>
        <pt x="27" y="709" on="1"/>
        <pt x="26" y="712" on="0"/>
      </contour>
    </TTGlyph>
    <TTGlyph name="Wacute" xMin="26" yMin="-6" xMax="713" yMax="953">
      <contour>
        <pt x="26" y="715" on="1"/>
        <pt x="26" y="731" on="0"/>
        <pt x="43" y="731" on="1"/>
        <pt x="59" y="731" on="0"/>
        <pt x="62" y="718" on="1"/>
        <pt x="242" y="70" on="1"/>
        <pt x="348" y="455" on="1"/>
        <pt x="353" y="472" on="0"/>
        <pt x="370" y="472" on="1"/>
        <pt x="385" y="472" on="0"/>
        <pt x="390" y="455" on="1"/>
        <pt x="498" y="70" on="1"/>
        <pt x="677" y="718" on="1"/>
        <pt x="680" y="731" on="0"/>
        <pt x="696" y="731" on="1"/>
        <pt x="713" y="731" on="0"/>
        <pt x="713" y="715" on="1"/>
        <pt x="713" y="712" on="0"/>
        <pt x="712" y="709" on="1"/>
        <pt x="517" y="8" on="1"/>
        <pt x="512" y="-6" on="0"/>
        <pt x="498" y="-6" on="1"/>
        <pt x="483" y="-6" on="0"/>
        <pt x="480" y="8" on="1"/>
        <pt x="370" y="400" on="1"/>
        <pt x="261" y="8" on="1"/>
        <pt x="256" y="-6" on="0"/>
        <pt x="242" y="-6" on="1"/>
        <pt x="227" y="-6" on="0"/>
        <pt x="224" y="8" on="1"/>
        <pt x="27" y="709" on="1"/>
        <pt x="26" y="712" on="0"/>
      </contour>
      <contour>
        <pt x="303" y="878" on="1"/>
        <pt x="303" y="887" on="0"/>
        <pt x="311" y="891" on="1"/>
        <pt x="413" y="951" on="1"/>
        <pt x="417" y="953" on="0"/>
        <pt x="420" y="953" on="1"/>
        <pt x="436" y="953" on="0"/>
        <pt x="436" y="935" on="1"/>
        <pt x="436" y="923" on="0"/>
        <pt x="426" y="917" on="1"/>
        <pt x="331" y="863" on="1"/>
        <pt x="326" y="860" on="0"/>
        <pt x="322" y="860" on="1"/>
        <pt x="314" y="860" on="0"/>
        <pt x="303" y="871" on="0"/>
      </contour>
    </TTGlyph>
    <TTGlyph name="Wcircumflex" xMin="26" yMin="-6" xMax="713" yMax="953">
      <contour>
        <pt x="26" y="715" on="1"/>
        <pt x="26" y="731" on="0"/>
        <pt x="43" y="731" on="1"/>
        <pt x="59" y="731" on="0"/>
        <pt x="62" y="718" on="1"/>
        <pt x="242" y="70" on="1"/>
        <pt x="348" y="455" on="1"/>
        <pt x="353" y="472" on="0"/>
        <pt x="370" y="472" on="1"/>
        <pt x="385" y="472" on="0"/>
        <pt x="390" y="455" on="1"/>
        <pt x="498" y="70" on="1"/>
        <pt x="677" y="718" on="1"/>
        <pt x="680" y="731" on="0"/>
        <pt x="696" y="731" on="1"/>
        <pt x="713" y="731" on="0"/>
        <pt x="713" y="715" on="1"/>
        <pt x="713" y="712" on="0"/>
        <pt x="712" y="709" on="1"/>
        <pt x="517" y="8" on="1"/>
        <pt x="512" y="-6" on="0"/>
        <pt x="498" y="-6" on="1"/>
        <pt x="483" y="-6" on="0"/>
        <pt x="480" y="8" on="1"/>
        <pt x="370" y="400" on="1"/>
        <pt x="261" y="8" on="1"/>
        <pt x="256" y="-6" on="0"/>
        <pt x="242" y="-6" on="1"/>
        <pt x="227" y="-6" on="0"/>
        <pt x="224" y="8" on="1"/>
        <pt x="27" y="709" on="1"/>
        <pt x="26" y="712" on="0"/>
      </contour>
      <contour>
        <pt x="239" y="878" on="1"/>
        <pt x="239" y="888" on="0"/>
        <pt x="248" y="892" on="1"/>
        <pt x="352" y="948" on="1"/>
        <pt x="360" y="953" on="0"/>
        <pt x="378" y="953" on="0"/>
        <pt x="386" y="948" on="1"/>
        <pt x="490" y="893" on="1"/>
        <pt x="499" y="888" on="0"/>
        <pt x="499" y="876" on="1"/>
        <pt x="499" y="869" on="0"/>
        <pt x="489" y="860" on="0"/>
        <pt x="482" y="860" on="1"/>
        <pt x="473" y="863" on="1"/>
        <pt x="369" y="918" on="1"/>
        <pt x="265" y="862" on="1"/>
        <pt x="264" y="862" on="0"/>
        <pt x="258" y="859" on="0"/>
        <pt x="257" y="859" on="1"/>
        <pt x="250" y="859" on="0"/>
        <pt x="239" y="870" on="0"/>
      </contour>
    </TTGlyph>
    <TTGlyph name="Wdieresis" xMin="26" yMin="-6" xMax="713" yMax="918">
      <contour>
        <pt x="26" y="715" on="1"/>
        <pt x="26" y="731" on="0"/>
        <pt x="43" y="731" on="1"/>
        <pt x="59" y="731" on="0"/>
        <pt x="62" y="718" on="1"/>
        <pt x="242" y="70" on="1"/>
        <pt x="348" y="455" on="1"/>
        <pt x="353" y="472" on="0"/>
        <pt x="370" y="472" on="1"/>
        <pt x="385" y="472" on="0"/>
        <pt x="390" y="455" on="1"/>
        <pt x="498" y="70" on="1"/>
        <pt x="677" y="718" on="1"/>
        <pt x="680" y="731" on="0"/>
        <pt x="696" y="731" on="1"/>
        <pt x="713" y="731" on="0"/>
        <pt x="713" y="715" on="1"/>
        <pt x="713" y="712" on="0"/>
        <pt x="712" y="709" on="1"/>
        <pt x="517" y="8" on="1"/>
        <pt x="512" y="-6" on="0"/>
        <pt x="498" y="-6" on="1"/>
        <pt x="483" y="-6" on="0"/>
        <pt x="480" y="8" on="1"/>
        <pt x="370" y="400" on="1"/>
        <pt x="261" y="8" on="1"/>
        <pt x="256" y="-6" on="0"/>
        <pt x="242" y="-6" on="1"/>
        <pt x="227" y="-6" on="0"/>
        <pt x="224" y="8" on="1"/>
        <pt x="27" y="709" on="1"/>
        <pt x="26" y="712" on="0"/>
      </contour>
      <contour>
        <pt x="284" y="876" on="0"/>
        <pt x="284" y="902" on="0"/>
        <pt x="301" y="918" on="0"/>
        <pt x="327" y="918" on="0"/>
        <pt x="343" y="902" on="0"/>
        <pt x="343" y="876" on="0"/>
        <pt x="327" y="859" on="0"/>
        <pt x="301" y="859" on="0"/>
      </contour>
      <contour>
        <pt x="395" y="876" on="0"/>
        <pt x="395" y="902" on="0"/>
        <pt x="412" y="918" on="0"/>
        <pt x="438" y="918" on="0"/>
        <pt x="454" y="902" on="0"/>
        <pt x="454" y="876" on="0"/>
        <pt x="438" y="859" on="0"/>
        <pt x="412" y="859" on="0"/>
      </contour>
    </TTGlyph>
    <TTGlyph name="Wgrave" xMin="26" yMin="-6" xMax="713" yMax="953">
      <contour>
        <pt x="26" y="715" on="1"/>
        <pt x="26" y="731" on="0"/>
        <pt x="43" y="731" on="1"/>
        <pt x="59" y="731" on="0"/>
        <pt x="62" y="718" on="1"/>
        <pt x="242" y="70" on="1"/>
        <pt x="348" y="455" on="1"/>
        <pt x="353" y="472" on="0"/>
        <pt x="370" y="472" on="1"/>
        <pt x="385" y="472" on="0"/>
        <pt x="390" y="455" on="1"/>
        <pt x="498" y="70" on="1"/>
        <pt x="677" y="718" on="1"/>
        <pt x="680" y="731" on="0"/>
        <pt x="696" y="731" on="1"/>
        <pt x="713" y="731" on="0"/>
        <pt x="713" y="715" on="1"/>
        <pt x="713" y="712" on="0"/>
        <pt x="712" y="709" on="1"/>
        <pt x="517" y="8" on="1"/>
        <pt x="512" y="-6" on="0"/>
        <pt x="498" y="-6" on="1"/>
        <pt x="483" y="-6" on="0"/>
        <pt x="480" y="8" on="1"/>
        <pt x="370" y="400" on="1"/>
        <pt x="261" y="8" on="1"/>
        <pt x="256" y="-6" on="0"/>
        <pt x="242" y="-6" on="1"/>
        <pt x="227" y="-6" on="0"/>
        <pt x="224" y="8" on="1"/>
        <pt x="27" y="709" on="1"/>
        <pt x="26" y="712" on="0"/>
      </contour>
      <contour>
        <pt x="303" y="935" on="1"/>
        <pt x="303" y="953" on="0"/>
        <pt x="319" y="953" on="1"/>
        <pt x="322" y="953" on="0"/>
        <pt x="326" y="951" on="1"/>
        <pt x="428" y="891" on="1"/>
        <pt x="436" y="887" on="0"/>
        <pt x="436" y="878" on="1"/>
        <pt x="436" y="871" on="0"/>
        <pt x="425" y="860" on="0"/>
        <pt x="417" y="860" on="1"/>
        <pt x="412" y="860" on="0"/>
        <pt x="408" y="863" on="1"/>
        <pt x="313" y="917" on="1"/>
        <pt x="303" y="923" on="0"/>
      </contour>
    </TTGlyph>
    <TTGlyph name="X" xMin="28" yMin="0" xMax="419" yMax="731">
      <contour>
        <pt x="28" y="18" on="1"/>
        <pt x="28" y="23" on="0"/>
        <pt x="31" y="29" on="1"/>
        <pt x="203" y="366" on="1"/>
        <pt x="33" y="700" on="1"/>
        <pt x="28" y="710" on="0"/>
        <pt x="28" y="717" on="1"/>
        <pt x="28" y="731" on="0"/>
        <pt x="46" y="731" on="1"/>
        <pt x="58" y="731" on="0"/>
        <pt x="76" y="695" on="1"/>
        <pt x="223" y="405" on="1"/>
        <pt x="371" y="695" on="1"/>
        <pt x="389" y="731" on="0"/>
        <pt x="401" y="731" on="1"/>
        <pt x="419" y="731" on="0"/>
        <pt x="419" y="717" on="1"/>
        <pt x="419" y="710" on="0"/>
        <pt x="414" y="700" on="1"/>
        <pt x="243" y="366" on="1"/>
        <pt x="416" y="29" on="1"/>
        <pt x="419" y="23" on="0"/>
        <pt x="419" y="18" on="1"/>
        <pt x="419" y="10" on="0"/>
        <pt x="408" y="0" on="0"/>
        <pt x="401" y="0" on="1"/>
        <pt x="397" y="0" on="0"/>
        <pt x="390" y="4" on="0"/>
        <pt x="386" y="9" on="1"/>
        <pt x="384" y="14" on="0"/>
        <pt x="382" y="17" on="1"/>
        <pt x="376" y="28" on="1"/>
        <pt x="372" y="36" on="1"/>
        <pt x="223" y="327" on="1"/>
        <pt x="75" y="36" on="1"/>
        <pt x="74" y="36" on="0"/>
        <pt x="70" y="28" on="1"/>
        <pt x="66" y="17" on="1"/>
        <pt x="64" y="14" on="0"/>
        <pt x="57" y="4" on="0"/>
        <pt x="50" y="0" on="0"/>
        <pt x="46" y="0" on="1"/>
        <pt x="38" y="0" on="0"/>
        <pt x="28" y="10" on="0"/>
      </contour>
    </TTGlyph>
    <TTGlyph name="Y" xMin="22" yMin="0" xMax="486" yMax="731">
      <contour>
        <pt x="22" y="715" on="1"/>
        <pt x="22" y="731" on="0"/>
        <pt x="35" y="731" on="1"/>
        <pt x="46" y="731" on="0"/>
        <pt x="55" y="714" on="1"/>
        <pt x="254" y="313" on="1"/>
        <pt x="454" y="714" on="1"/>
        <pt x="462" y="731" on="0"/>
        <pt x="486" y="731" on="0"/>
        <pt x="486" y="715" on="1"/>
        <pt x="486" y="705" on="0"/>
        <pt x="481" y="695" on="1"/>
        <pt x="273" y="279" on="1"/>
        <pt x="272" y="277" on="0"/>
        <pt x="272" y="273" on="1"/>
        <pt x="272" y="18" on="1"/>
        <pt x="272" y="0" on="0"/>
        <pt x="236" y="0" on="0"/>
        <pt x="236" y="18" on="1"/>
        <pt x="236" y="273" on="1"/>
        <pt x="236" y="277" on="0"/>
        <pt x="235" y="279" on="1"/>
        <pt x="28" y="695" on="1"/>
        <pt x="22" y="707" on="0"/>
      </contour>
    </TTGlyph>
    <TTGlyph name="Yacute" xMin="22" yMin="0" xMax="486" yMax="953">
      <contour>
        <pt x="22" y="715" on="1"/>
        <pt x="22" y="731" on="0"/>
        <pt x="35" y="731" on="1"/>
        <pt x="46" y="731" on="0"/>
        <pt x="55" y="714" on="1"/>
        <pt x="254" y="313" on="1"/>
        <pt x="454" y="714" on="1"/>
        <pt x="462" y="731" on="0"/>
        <pt x="486" y="731" on="0"/>
        <pt x="486" y="715" on="1"/>
        <pt x="486" y="705" on="0"/>
        <pt x="481" y="695" on="1"/>
        <pt x="273" y="279" on="1"/>
        <pt x="272" y="277" on="0"/>
        <pt x="272" y="273" on="1"/>
        <pt x="272" y="18" on="1"/>
        <pt x="272" y="0" on="0"/>
        <pt x="236" y="0" on="0"/>
        <pt x="236" y="18" on="1"/>
        <pt x="236" y="273" on="1"/>
        <pt x="236" y="277" on="0"/>
        <pt x="235" y="279" on="1"/>
        <pt x="28" y="695" on="1"/>
        <pt x="22" y="707" on="0"/>
      </contour>
      <contour>
        <pt x="187" y="878" on="1"/>
        <pt x="187" y="887" on="0"/>
        <pt x="195" y="891" on="1"/>
        <pt x="297" y="951" on="1"/>
        <pt x="301" y="953" on="0"/>
        <pt x="304" y="953" on="1"/>
        <pt x="320" y="953" on="0"/>
        <pt x="320" y="935" on="1"/>
        <pt x="320" y="923" on="0"/>
        <pt x="310" y="917" on="1"/>
        <pt x="215" y="863" on="1"/>
        <pt x="210" y="860" on="0"/>
        <pt x="206" y="860" on="1"/>
        <pt x="198" y="860" on="0"/>
        <pt x="187" y="871" on="0"/>
      </contour>
    </TTGlyph>
    <TTGlyph name="Ycircumflex" xMin="22" yMin="0" xMax="486" yMax="953">
      <contour>
        <pt x="22" y="715" on="1"/>
        <pt x="22" y="731" on="0"/>
        <pt x="35" y="731" on="1"/>
        <pt x="46" y="731" on="0"/>
        <pt x="55" y="714" on="1"/>
        <pt x="254" y="313" on="1"/>
        <pt x="454" y="714" on="1"/>
        <pt x="462" y="731" on="0"/>
        <pt x="486" y="731" on="0"/>
        <pt x="486" y="715" on="1"/>
        <pt x="486" y="705" on="0"/>
        <pt x="481" y="695" on="1"/>
        <pt x="273" y="279" on="1"/>
        <pt x="272" y="277" on="0"/>
        <pt x="272" y="273" on="1"/>
        <pt x="272" y="18" on="1"/>
        <pt x="272" y="0" on="0"/>
        <pt x="236" y="0" on="0"/>
        <pt x="236" y="18" on="1"/>
        <pt x="236" y="273" on="1"/>
        <pt x="236" y="277" on="0"/>
        <pt x="235" y="279" on="1"/>
        <pt x="28" y="695" on="1"/>
        <pt x="22" y="707" on="0"/>
      </contour>
      <contour>
        <pt x="124" y="878" on="1"/>
        <pt x="124" y="888" on="0"/>
        <pt x="133" y="892" on="1"/>
        <pt x="237" y="948" on="1"/>
        <pt x="245" y="953" on="0"/>
        <pt x="263" y="953" on="0"/>
        <pt x="271" y="948" on="1"/>
        <pt x="375" y="893" on="1"/>
        <pt x="384" y="888" on="0"/>
        <pt x="384" y="876" on="1"/>
        <pt x="384" y="869" on="0"/>
        <pt x="374" y="860" on="0"/>
        <pt x="367" y="860" on="1"/>
        <pt x="358" y="863" on="1"/>
        <pt x="254" y="918" on="1"/>
        <pt x="150" y="862" on="1"/>
        <pt x="149" y="862" on="0"/>
        <pt x="143" y="859" on="0"/>
        <pt x="142" y="859" on="1"/>
        <pt x="135" y="859" on="0"/>
        <pt x="124" y="870" on="0"/>
      </contour>
    </TTGlyph>
    <TTGlyph name="Ydieresis" xMin="22" yMin="0" xMax="486" yMax="918">
      <contour>
        <pt x="22" y="715" on="1"/>
        <pt x="22" y="731" on="0"/>
        <pt x="35" y="731" on="1"/>
        <pt x="46" y="731" on="0"/>
        <pt x="55" y="714" on="1"/>
        <pt x="254" y="313" on="1"/>
        <pt x="454" y="714" on="1"/>
        <pt x="462" y="731" on="0"/>
        <pt x="486" y="731" on="0"/>
        <pt x="486" y="715" on="1"/>
        <pt x="486" y="705" on="0"/>
        <pt x="481" y="695" on="1"/>
        <pt x="273" y="279" on="1"/>
        <pt x="272" y="277" on="0"/>
        <pt x="272" y="273" on="1"/>
        <pt x="272" y="18" on="1"/>
        <pt x="272" y="0" on="0"/>
        <pt x="236" y="0" on="0"/>
        <pt x="236" y="18" on="1"/>
        <pt x="236" y="273" on="1"/>
        <pt x="236" y="277" on="0"/>
        <pt x="235" y="279" on="1"/>
        <pt x="28" y="695" on="1"/>
        <pt x="22" y="707" on="0"/>
      </contour>
      <contour>
        <pt x="169" y="876" on="0"/>
        <pt x="169" y="902" on="0"/>
        <pt x="186" y="918" on="0"/>
        <pt x="212" y="918" on="0"/>
        <pt x="228" y="902" on="0"/>
        <pt x="228" y="876" on="0"/>
        <pt x="212" y="859" on="0"/>
        <pt x="186" y="859" on="0"/>
      </contour>
      <contour>
        <pt x="280" y="876" on="0"/>
        <pt x="280" y="902" on="0"/>
        <pt x="297" y="918" on="0"/>
        <pt x="323" y="918" on="0"/>
        <pt x="339" y="902" on="0"/>
        <pt x="339" y="876" on="0"/>
        <pt x="323" y="859" on="0"/>
        <pt x="297" y="859" on="0"/>
      </contour>
    </TTGlyph>
    <TTGlyph name="Ygrave" xMin="22" yMin="0" xMax="486" yMax="953">
      <contour>
        <pt x="22" y="715" on="1"/>
        <pt x="22" y="731" on="0"/>
        <pt x="35" y="731" on="1"/>
        <pt x="46" y="731" on="0"/>
        <pt x="55" y="714" on="1"/>
        <pt x="254" y="313" on="1"/>
        <pt x="454" y="714" on="1"/>
        <pt x="462" y="731" on="0"/>
        <pt x="486" y="731" on="0"/>
        <pt x="486" y="715" on="1"/>
        <pt x="486" y="705" on="0"/>
        <pt x="481" y="695" on="1"/>
        <pt x="273" y="279" on="1"/>
        <pt x="272" y="277" on="0"/>
        <pt x="272" y="273" on="1"/>
        <pt x="272" y="18" on="1"/>
        <pt x="272" y="0" on="0"/>
        <pt x="236" y="0" on="0"/>
        <pt x="236" y="18" on="1"/>
        <pt x="236" y="273" on="1"/>
        <pt x="236" y="277" on="0"/>
        <pt x="235" y="279" on="1"/>
        <pt x="28" y="695" on="1"/>
        <pt x="22" y="707" on="0"/>
      </contour>
      <contour>
        <pt x="188" y="935" on="1"/>
        <pt x="188" y="953" on="0"/>
        <pt x="204" y="953" on="1"/>
        <pt x="207" y="953" on="0"/>
        <pt x="211" y="951" on="1"/>
        <pt x="313" y="891" on="1"/>
        <pt x="321" y="887" on="0"/>
        <pt x="321" y="878" on="1"/>
        <pt x="321" y="871" on="0"/>
        <pt x="310" y="860" on="0"/>
        <pt x="302" y="860" on="1"/>
        <pt x="298" y="860" on="0"/>
        <pt x="293" y="863" on="1"/>
        <pt x="198" y="917" on="1"/>
        <pt x="188" y="923" on="0"/>
      </contour>
    </TTGlyph>
    <TTGlyph name="Z" xMin="27" yMin="0" xMax="438" yMax="731">
      <contour>
        <pt x="27" y="17" on="1"/>
        <pt x="27" y="23" on="0"/>
        <pt x="30" y="29" on="1"/>
        <pt x="380" y="695" on="1"/>
        <pt x="55" y="695" on="1"/>
        <pt x="37" y="695" on="0"/>
        <pt x="37" y="731" on="0"/>
        <pt x="55" y="731" on="1"/>
        <pt x="410" y="731" on="1"/>
        <pt x="428" y="731" on="0"/>
        <pt x="428" y="716" on="1"/>
        <pt x="428" y="708" on="0"/>
        <pt x="423" y="700" on="1"/>
        <pt x="74" y="36" on="1"/>
        <pt x="420" y="36" on="1"/>
        <pt x="438" y="36" on="0"/>
        <pt x="438" y="0" on="0"/>
        <pt x="420" y="0" on="1"/>
        <pt x="45" y="0" on="1"/>
        <pt x="27" y="0" on="0"/>
      </contour>
    </TTGlyph>
    <TTGlyph name="Zacute" xMin="27" yMin="0" xMax="438" yMax="953">
      <contour>
        <pt x="27" y="17" on="1"/>
        <pt x="27" y="23" on="0"/>
        <pt x="30" y="29" on="1"/>
        <pt x="380" y="695" on="1"/>
        <pt x="55" y="695" on="1"/>
        <pt x="37" y="695" on="0"/>
        <pt x="37" y="731" on="0"/>
        <pt x="55" y="731" on="1"/>
        <pt x="410" y="731" on="1"/>
        <pt x="428" y="731" on="0"/>
        <pt x="428" y="716" on="1"/>
        <pt x="428" y="708" on="0"/>
        <pt x="423" y="700" on="1"/>
        <pt x="74" y="36" on="1"/>
        <pt x="420" y="36" on="1"/>
        <pt x="438" y="36" on="0"/>
        <pt x="438" y="0" on="0"/>
        <pt x="420" y="0" on="1"/>
        <pt x="45" y="0" on="1"/>
        <pt x="27" y="0" on="0"/>
      </contour>
      <contour>
        <pt x="156" y="878" on="1"/>
        <pt x="156" y="887" on="0"/>
        <pt x="164" y="891" on="1"/>
        <pt x="266" y="951" on="1"/>
        <pt x="270" y="953" on="0"/>
        <pt x="273" y="953" on="1"/>
        <pt x="289" y="953" on="0"/>
        <pt x="289" y="935" on="1"/>
        <pt x="289" y="923" on="0"/>
        <pt x="279" y="917" on="1"/>
        <pt x="184" y="863" on="1"/>
        <pt x="180" y="860" on="0"/>
        <pt x="175" y="860" on="1"/>
        <pt x="167" y="860" on="0"/>
        <pt x="156" y="871" on="0"/>
      </contour>
    </TTGlyph>
    <TTGlyph name="Zcaron" xMin="27" yMin="0" xMax="438" yMax="990">
      <contour>
        <pt x="27" y="17" on="1"/>
        <pt x="27" y="23" on="0"/>
        <pt x="30" y="29" on="1"/>
        <pt x="380" y="695" on="1"/>
        <pt x="55" y="695" on="1"/>
        <pt x="37" y="695" on="0"/>
        <pt x="37" y="731" on="0"/>
        <pt x="55" y="731" on="1"/>
        <pt x="410" y="731" on="1"/>
        <pt x="428" y="731" on="0"/>
        <pt x="428" y="716" on="1"/>
        <pt x="428" y="708" on="0"/>
        <pt x="423" y="700" on="1"/>
        <pt x="74" y="36" on="1"/>
        <pt x="420" y="36" on="1"/>
        <pt x="438" y="36" on="0"/>
        <pt x="438" y="0" on="0"/>
        <pt x="420" y="0" on="1"/>
        <pt x="45" y="0" on="1"/>
        <pt x="27" y="0" on="0"/>
      </contour>
      <contour>
        <pt x="92" y="969" on="0"/>
        <pt x="92" y="981" on="0"/>
        <pt x="101" y="990" on="0"/>
        <pt x="107" y="990" on="1"/>
        <pt x="116" y="990" on="0"/>
        <pt x="123" y="982" on="1"/>
        <pt x="221" y="879" on="1"/>
        <pt x="319" y="982" on="1"/>
        <pt x="326" y="990" on="0"/>
        <pt x="335" y="990" on="1"/>
        <pt x="341" y="990" on="0"/>
        <pt x="350" y="981" on="0"/>
        <pt x="350" y="969" on="0"/>
        <pt x="342" y="959" on="1"/>
        <pt x="242" y="858" on="1"/>
        <pt x="231" y="847" on="0"/>
        <pt x="221" y="847" on="1"/>
        <pt x="209" y="847" on="0"/>
        <pt x="200" y="858" on="1"/>
        <pt x="100" y="959" on="1"/>
      </contour>
    </TTGlyph>
</ttFont>
